<svg width="19" height="19" viewBox="0 0 19 19" fill="none" xmlns="http://www.w3.org/2000/svg">
<path d="M1.9137 2.78602V16.3171C1.9137 16.5238 2.08283 16.6929 2.28956 16.6929H15.8206C16.0273 16.6929 16.1965 16.5238 16.1965 16.3171V2.78602C16.1965 2.57929 16.0273 2.41016 15.8206 2.41016H2.28956C2.08283 2.41016 1.9137 2.57929 1.9137 2.78602ZM2.66542 3.16188H15.4447V15.9412H2.66542V3.16188Z" fill="black"/>
<path d="M14.3172 3.91357H10.5586C10.3519 3.91357 10.1828 4.08271 10.1828 4.28944V8.04806C10.1828 8.25478 10.3519 8.42392 10.5586 8.42392H14.3172C14.524 8.42392 14.6931 8.25478 14.6931 8.04806V4.28944C14.6931 4.08271 14.524 3.91357 14.3172 3.91357ZM13.9414 7.67219H10.9345V4.6653H13.9414V7.67219ZM3.7931 4.6653H9.05517C9.26189 4.6653 9.43103 4.49616 9.43103 4.28944C9.43103 4.08271 9.26189 3.91357 9.05517 3.91357H3.7931C3.58637 3.91357 3.41724 4.08271 3.41724 4.28944C3.41724 4.49616 3.58637 4.6653 3.7931 4.6653ZM3.7931 5.79288H9.05517C9.26189 5.79288 9.43103 5.62375 9.43103 5.41702C9.43103 5.2103 9.26189 5.04116 9.05517 5.04116H3.7931C3.58637 5.04116 3.41724 5.2103 3.41724 5.41702C3.41724 5.62375 3.58637 5.79288 3.7931 5.79288ZM3.7931 6.92047H9.05517C9.26189 6.92047 9.43103 6.75133 9.43103 6.54461C9.43103 6.33788 9.26189 6.16875 9.05517 6.16875H3.7931C3.58637 6.16875 3.41724 6.33788 3.41724 6.54461C3.41724 6.75133 3.58637 6.92047 3.7931 6.92047ZM3.7931 8.04806H9.05517C9.26189 8.04806 9.43103 7.87892 9.43103 7.67219C9.43103 7.46547 9.26189 7.29633 9.05517 7.29633H3.7931C3.58637 7.29633 3.41724 7.46547 3.41724 7.67219C3.41724 7.87892 3.58637 8.04806 3.7931 8.04806ZM3.7931 9.17564H9.05517C9.26189 9.17564 9.43103 9.00651 9.43103 8.79978C9.43103 8.59306 9.26189 8.42392 9.05517 8.42392H3.7931C3.58637 8.42392 3.41724 8.59306 3.41724 8.79978C3.41724 9.00651 3.58637 9.17564 3.7931 9.17564ZM7.55172 10.6791H3.7931C3.58637 10.6791 3.41724 10.8482 3.41724 11.055V14.8136C3.41724 15.0203 3.58637 15.1894 3.7931 15.1894H7.55172C7.75844 15.1894 7.92758 15.0203 7.92758 14.8136V11.055C7.92758 10.8482 7.75844 10.6791 7.55172 10.6791ZM7.17586 14.4377H4.16896V11.4308H7.17586V14.4377ZM14.3172 14.4377H9.05517C8.84844 14.4377 8.67931 14.6068 8.67931 14.8136C8.67931 15.0203 8.84844 15.1894 9.05517 15.1894H14.3172C14.524 15.1894 14.6931 15.0203 14.6931 14.8136C14.6931 14.6068 14.524 14.4377 14.3172 14.4377ZM14.3172 13.3101H9.05517C8.84844 13.3101 8.67931 13.4793 8.67931 13.686C8.67931 13.8927 8.84844 14.0618 9.05517 14.0618H14.3172C14.524 14.0618 14.6931 13.8927 14.6931 13.686C14.6931 13.4793 14.524 13.3101 14.3172 13.3101ZM14.3172 12.1825H9.05517C8.84844 12.1825 8.67931 12.3517 8.67931 12.5584C8.67931 12.7651 8.84844 12.9343 9.05517 12.9343H14.3172C14.524 12.9343 14.6931 12.7651 14.6931 12.5584C14.6931 12.3517 14.524 12.1825 14.3172 12.1825ZM14.3172 11.055H9.05517C8.84844 11.055 8.67931 11.2241 8.67931 11.4308C8.67931 11.6375 8.84844 11.8067 9.05517 11.8067H14.3172C14.524 11.8067 14.6931 11.6375 14.6931 11.4308C14.6931 11.2241 14.524 11.055 14.3172 11.055ZM14.3172 9.92737H9.05517C8.84844 9.92737 8.67931 10.0965 8.67931 10.3032C8.67931 10.51 8.84844 10.6791 9.05517 10.6791H14.3172C14.524 10.6791 14.6931 10.51 14.6931 10.3032C14.6931 10.0965 14.524 9.92737 14.3172 9.92737Z" fill="black"/>
</svg>
