<svg width="628" height="506" viewBox="0 0 628 506" fill="none" xmlns="http://www.w3.org/2000/svg">
<g clip-path="url(#clip0_10_1851)">
<g filter="url(#filter0_i_10_1851)">
<path d="M421.608 67.6846C437.109 72.1905 506.388 94.3222 535.93 153.956C577.409 237.627 507.194 327.446 487.935 352.085C443.787 408.573 325.717 513.873 208.187 471.415C114.06 437.399 75.4228 322.265 93.5354 240.719C123.376 106.301 298.619 31.9252 421.608 67.6846Z" fill="#EFF5F9"/>
<path d="M517.66 283.941H485.795C485.217 283.941 484.748 284.41 484.748 284.988V298.035C484.748 298.613 485.217 299.081 485.795 299.081H517.66C518.239 299.081 518.707 298.613 518.707 298.035V284.988C518.707 284.41 518.239 283.941 517.66 283.941Z" stroke="#C9EFFB" stroke-width="1.83984" stroke-miterlimit="10"/>
<path d="M517.66 314.164H485.795C485.217 314.164 484.748 314.632 484.748 315.21V328.257C484.748 328.835 485.217 329.304 485.795 329.304H517.66C518.239 329.304 518.707 328.835 518.707 328.257V315.21C518.707 314.632 518.239 314.164 517.66 314.164Z" stroke="#C9EFFB" stroke-width="1.83984" stroke-miterlimit="10"/>
<path d="M534.643 299.081H502.777C502.199 299.081 501.73 299.55 501.73 300.128V313.175C501.73 313.753 502.199 314.221 502.777 314.221H534.643C535.221 314.221 535.689 313.753 535.689 313.175V300.128C535.689 299.55 535.221 299.081 534.643 299.081Z" fill="#C9EFFB"/>
<path d="M500.683 299.081H468.818C468.24 299.081 467.771 299.55 467.771 300.128V313.175C467.771 313.753 468.24 314.221 468.818 314.221H500.683C501.261 314.221 501.73 313.753 501.73 313.175V300.128C501.73 299.55 501.261 299.081 500.683 299.081Z" fill="#C9EFFB"/>
<path d="M145.162 358.773H113.296C112.718 358.773 112.25 359.242 112.25 359.82V372.866C112.25 373.444 112.718 373.913 113.296 373.913H145.162C145.74 373.913 146.209 373.444 146.209 372.866V359.82C146.209 359.242 145.74 358.773 145.162 358.773Z" stroke="#C9EFFB" stroke-width="1.83984" stroke-miterlimit="10"/>
<path d="M162.139 389.001H130.273C129.695 389.001 129.227 389.469 129.227 390.047V403.094C129.227 403.672 129.695 404.141 130.273 404.141H162.139C162.717 404.141 163.186 403.672 163.186 403.094V390.047C163.186 389.469 162.717 389.001 162.139 389.001Z" stroke="#C9EFFB" stroke-width="1.83984" stroke-miterlimit="10"/>
<path d="M169.199 373.913H137.333C136.755 373.913 136.286 374.382 136.286 374.96V388.006C136.286 388.585 136.755 389.053 137.333 389.053H169.199C169.777 389.053 170.245 388.585 170.245 388.006V374.96C170.245 374.382 169.777 373.913 169.199 373.913Z" fill="#C9EFFB"/>
<path d="M135.24 373.913H103.374C102.796 373.913 102.327 374.382 102.327 374.96V388.006C102.327 388.585 102.796 389.053 103.374 389.053H135.24C135.818 389.053 136.287 388.585 136.287 388.006V374.96C136.287 374.382 135.818 373.913 135.24 373.913Z" fill="#C9EFFB"/>
<path d="M342.668 157.064H310.803C310.224 157.064 309.756 157.533 309.756 158.111V171.158C309.756 171.736 310.224 172.204 310.803 172.204H342.668C343.246 172.204 343.715 171.736 343.715 171.158V158.111C343.715 157.533 343.246 157.064 342.668 157.064Z" fill="#C9EFFB"/>
<path d="M354.14 187.345H322.274C321.696 187.345 321.227 187.813 321.227 188.391V201.438C321.227 202.016 321.696 202.485 322.274 202.485H354.14C354.718 202.485 355.186 202.016 355.186 201.438V188.391C355.186 187.813 354.718 187.345 354.14 187.345Z" fill="#C9EFFB"/>
<path d="M366.7 172.205H334.834C334.256 172.205 333.787 172.673 333.787 173.251V186.298C333.787 186.876 334.256 187.345 334.834 187.345H366.7C367.278 187.345 367.746 186.876 367.746 186.298V173.251C367.746 172.673 367.278 172.205 366.7 172.205Z" stroke="#C9EFFB" stroke-width="1.83984" stroke-miterlimit="10"/>
<path d="M332.746 172.205H300.88C300.302 172.205 299.833 172.673 299.833 173.251V186.298C299.833 186.876 300.302 187.345 300.88 187.345H332.746C333.324 187.345 333.793 186.876 333.793 186.298V173.251C333.793 172.673 333.324 172.205 332.746 172.205Z" stroke="#C9EFFB" stroke-width="1.83984" stroke-miterlimit="10"/>
<path d="M320.74 91.0045H82.6028V274.129H320.74V91.0045Z" fill="#C9EFFB"/>
<path d="M320.74 215.165C314.152 213.36 302.874 211.408 282.296 209.246C224.264 203.16 213.154 208.105 193.372 197.942C169.298 185.571 157.309 163.612 153.431 156.494C138.851 129.747 141.823 107.515 139.05 91.02H82.6028V274.129H320.719L320.74 215.165Z" fill="#A8E5F9"/>
<path d="M322.222 87.6864H81.6033C81.2088 87.6864 80.8182 87.7641 80.4537 87.9151C80.0893 88.066 79.7581 88.2873 79.4792 88.5662C79.2003 88.8452 78.979 89.1763 78.828 89.5408C78.6771 89.9052 78.5994 90.2959 78.5994 90.6903V274.579C78.5994 274.974 78.6771 275.364 78.828 275.729C78.979 276.093 79.2003 276.424 79.4792 276.703C79.7581 276.982 80.0893 277.204 80.4537 277.354C80.8182 277.505 81.2088 277.583 81.6033 277.583H322.222C323.018 277.583 323.782 277.267 324.346 276.703C324.909 276.14 325.225 275.376 325.225 274.579V90.6903C325.225 90.2959 325.148 89.9052 324.997 89.5408C324.846 89.1763 324.625 88.8452 324.346 88.5662C324.067 88.2873 323.736 88.066 323.371 87.9151C323.007 87.7641 322.616 87.6864 322.222 87.6864ZM315.863 267.593C315.863 267.958 315.791 268.319 315.651 268.656C315.512 268.993 315.307 269.3 315.049 269.558C314.791 269.816 314.485 270.02 314.148 270.16C313.81 270.3 313.449 270.372 313.084 270.372H90.7407C90.376 270.372 90.0149 270.3 89.6781 270.16C89.3412 270.02 89.0352 269.815 88.7776 269.557C88.5199 269.299 88.3157 268.993 88.1767 268.656C88.0376 268.319 87.9663 267.957 87.967 267.593V97.6716C87.967 96.936 88.2593 96.2305 88.7794 95.7103C89.2996 95.1902 90.0051 94.8979 90.7407 94.8979H313.084C313.449 94.8972 313.81 94.9685 314.147 95.1076C314.484 95.2466 314.791 95.4508 315.049 95.7085C315.307 95.9661 315.512 96.2721 315.651 96.609C315.791 96.9458 315.863 97.3069 315.863 97.6716V267.593Z" fill="#87DBF6"/>
<path d="M241.68 94.694H239.064V270.372H241.68V94.694Z" fill="#87DBF6"/>
<path d="M164.761 94.694H162.144V270.372H164.761V94.694Z" fill="#87DBF6"/>
<path d="M315.863 219.786H87.967V222.403H315.863V219.786Z" fill="#87DBF6"/>
<path d="M315.863 142.867H87.967V145.483H315.863V142.867Z" fill="#87DBF6"/>
<path d="M91.5834 448.132L91.0601 447.714C91.5834 443.836 93.2319 432.014 95.3409 417.198C100.501 381.046 108.487 327.258 110.12 328.828C112.349 330.974 112.396 358.171 109.827 390.105C109.581 393.245 109.303 396.385 109 399.567C108.693 402.895 108.402 406.074 108.126 409.102C106.943 411.975 105.687 414.916 104.363 417.884C95.5764 437.629 91.5834 448.132 91.5834 448.132Z" fill="#7BCE34"/>
<path d="M94.8384 442.93C94.8384 442.93 97.1149 431.94 102.688 411.054C108.262 390.168 111.261 370.716 109.68 368.873C108.958 368.01 103.521 383.04 97.9523 399.263C95.456 416.34 93.2423 432.265 91.9653 441.318L94.8384 442.93Z" fill="#3C8F2D"/>
<path d="M95.77 473.053L96.4137 472.875C97.4133 469.087 100.459 457.531 104.201 443.045C113.354 407.689 126.704 354.968 124.574 355.79C121.685 356.915 111.177 381.999 101.26 412.462C100.29 415.434 99.3304 418.451 98.3814 421.51C97.3941 424.703 96.4399 427.75 95.5188 430.653C95.5188 433.756 95.5188 436.933 95.613 440.204C96.1311 461.828 95.77 473.053 95.77 473.053Z" fill="#3C8F2D"/>
<path d="M40.4536 386.285C41.3207 385.8 42.2174 385.37 43.1383 384.997C44.0541 384.61 44.9909 384.275 45.9381 383.951C47.8466 383.347 49.7993 382.894 51.7785 382.595C55.8543 381.95 60.0093 381.991 64.0716 382.716C66.1774 383.095 68.2381 383.691 70.2208 384.495C71.2224 384.913 72.2007 385.385 73.1515 385.908L73.8632 386.306C74.0987 386.447 74.3237 386.599 74.554 386.745C75.0093 387.049 75.4855 387.326 75.9251 387.651C77.6997 388.93 79.3439 390.382 80.834 391.984L81.9173 393.208C82.001 393.313 82.1005 393.413 82.179 393.512L82.4092 393.81L82.8802 394.407L84.7538 396.783C85.9051 398.442 87.1192 400.054 88.124 401.802L88.8986 403.094C89.0242 403.314 89.1603 403.529 89.2806 403.743L89.6365 404.413L91.0599 407.113C91.913 408.929 92.7869 410.73 93.5196 412.588L94.1005 413.969L94.6238 415.366L95.1472 416.764L95.4141 417.465L95.6496 418.171C95.9688 419.119 96.3299 420.045 96.6963 420.982C97.0626 421.919 97.3871 422.861 97.7429 423.797C98.0988 424.734 98.3761 425.702 98.6483 426.665C98.9204 427.628 99.1036 428.612 99.2815 429.596C99.36 430.119 99.4228 430.59 99.4752 431.087C99.5275 431.585 99.5903 432.087 99.6322 432.584C99.6897 433.589 99.742 434.588 99.7263 435.604C99.7173 436.616 99.6562 437.628 99.5432 438.634C99.4368 439.658 99.2532 440.673 98.9937 441.669L92.7765 441.894C92.0961 440.136 91.599 438.393 91.1123 436.661L90.7512 435.363C90.6413 434.929 90.5209 434.494 90.4215 434.06C90.1877 433.195 89.9732 432.322 89.7778 431.443C89.558 430.58 89.38 429.711 89.2283 428.827C89.0765 427.942 88.9038 427.068 88.7625 426.21C88.6212 425.352 88.4223 424.451 88.2392 423.593C88.056 422.735 87.7734 421.866 87.5065 421.008L87.2972 420.369L87.0669 419.741L86.5959 418.485C86.4389 418.067 86.2819 417.648 86.1144 417.235L85.5911 416.01C84.9003 414.362 84.0577 412.792 83.257 411.201L81.933 408.888L81.6033 408.312C81.4882 408.123 81.3626 407.94 81.2474 407.752L80.4781 406.59L79.7716 405.465C79.5414 405.088 79.2483 404.743 79.0181 404.376L77.5056 402.199L75.8676 400.106L75.4541 399.583L75.25 399.326C75.182 399.237 75.114 399.174 75.0459 399.096L74.2348 398.206C73.9679 397.908 73.6591 397.652 73.3765 397.369L72.9474 396.956C72.8008 396.819 72.6438 396.699 72.4921 396.568C72.1781 396.317 71.8902 396.045 71.571 395.799L70.6133 395.087C70.2993 394.841 69.9539 394.637 69.6294 394.407C69.462 394.297 69.2997 394.182 69.1061 394.077L68.5828 393.768C67.9077 393.334 67.1907 392.963 66.4894 392.56C65.0214 391.796 63.5099 391.12 61.9626 390.534C58.6796 389.319 55.276 388.457 51.8099 387.965C50.0201 387.687 48.1937 387.483 46.3306 387.342C44.4676 387.201 42.5731 387.101 40.6629 387.065L40.4536 386.285Z" fill="#3C8F2D"/>
<path d="M92.5776 441.412L92.5515 440.706C92.5515 440.261 92.5201 439.811 92.4939 439.366L92.3735 438.032C92.2375 436.252 91.9392 434.494 91.6775 432.736L91.1542 430.119L91.0286 429.47C90.9815 429.25 90.9187 429.041 90.8663 428.826L90.5366 427.523L90.2226 426.236C90.1284 425.801 89.9662 425.388 89.8511 424.964L89.1079 422.421L88.213 419.93L87.988 419.307L87.8729 418.998C87.8362 418.893 87.7891 418.81 87.7525 418.715L87.2658 417.616C87.1088 417.245 86.8942 416.905 86.7425 416.57L86.4651 416.046C86.3709 415.869 86.2558 415.706 86.1563 415.523C85.9418 415.188 85.7481 414.838 85.5283 414.508L84.8428 413.524C84.623 413.194 84.3613 412.891 84.1258 412.571C84.0054 412.414 83.8851 412.252 83.7595 412.095L83.6182 411.933C84.2985 413.257 84.9841 414.586 85.5597 415.968L86.0831 417.193C86.2505 417.606 86.4075 418.025 86.5645 418.443L87.0355 419.699L87.2658 420.327L87.4751 420.966C87.742 421.824 87.9985 422.677 88.2078 423.551C88.4171 424.425 88.5689 425.309 88.7311 426.168C88.8934 427.026 89.0137 427.937 89.1969 428.784C89.3801 429.632 89.5266 430.532 89.7464 431.401C89.9662 432.27 90.1546 433.138 90.3901 434.018C90.4895 434.452 90.6099 434.886 90.7198 435.321L91.0809 436.619C91.5257 438.225 91.9863 439.811 92.5776 441.412Z" fill="#7BCE34"/>
<path d="M66.5156 392.576C67.2221 392.979 67.939 393.35 68.6089 393.784L69.1322 394.093C69.2997 394.198 69.4619 394.313 69.6556 394.423C69.98 394.653 70.3254 394.857 70.6394 395.103L71.5971 395.815L71.6338 395.846C75.458 396.554 79.146 397.863 82.561 399.724C85.4072 401.252 87.976 403.247 90.1598 405.627L90.4685 405.968L89.6626 404.44L89.3067 403.77C89.1864 403.555 89.0503 403.341 88.9247 403.121L88.1502 401.828C87.1454 400.08 85.9312 398.468 84.7799 396.809L82.9064 394.433L82.4354 393.837L82.2051 393.539C82.1266 393.439 82.0272 393.34 81.9434 393.235L80.8601 392.01C79.37 390.408 77.7258 388.957 75.9513 387.677C75.5117 387.347 75.0354 387.075 74.5801 386.772C74.3499 386.625 74.1248 386.473 73.8893 386.332L73.1776 385.934C72.2269 385.411 71.2486 384.939 70.2469 384.521C68.2643 383.717 66.2035 383.121 64.0978 382.742C60.0354 382.018 55.8805 381.977 51.8047 382.622C49.8255 382.92 47.8727 383.374 45.9643 383.977C45.017 384.275 44.0803 384.61 43.1644 385.024C42.2435 385.396 41.3469 385.826 40.4797 386.311L40.6995 387.091C42.6097 387.128 44.5094 387.211 46.3672 387.368C48.2251 387.525 50.0306 387.714 51.8465 387.991C55.3185 388.488 58.7274 389.354 62.0149 390.576C63.5527 391.155 65.0555 391.822 66.5156 392.576Z" fill="#7BCE34"/>
<path d="M153.337 379.513C152.407 379.156 151.457 378.859 150.49 378.623C149.527 378.377 148.553 378.184 147.575 378.021C145.598 377.703 143.6 377.537 141.598 377.524C137.472 377.474 133.366 378.116 129.452 379.424C127.423 380.1 125.47 380.987 123.627 382.072C122.695 382.63 121.795 383.24 120.932 383.898L120.283 384.422C120.074 384.589 119.869 384.772 119.66 384.945C119.252 385.311 118.828 385.652 118.436 386.039C116.866 387.565 115.45 389.24 114.207 391.042L113.312 392.408C113.244 392.523 113.16 392.638 113.098 392.748L112.909 393.078L112.532 393.732L111.02 396.348C110.125 398.149 109.152 399.923 108.403 401.796L107.822 403.188C107.728 403.424 107.629 403.654 107.54 403.89L107.289 404.596L106.278 407.438C105.698 409.353 105.096 411.264 104.64 413.195L104.264 414.649L103.939 416.11L103.615 417.57L103.458 418.297L103.322 419.035C103.144 420.014 102.919 420.987 102.715 421.96C102.51 422.934 102.306 423.918 102.092 424.896C101.877 425.875 101.741 426.869 101.61 427.864C101.48 428.858 101.443 429.858 101.406 430.857C101.406 431.38 101.406 431.862 101.406 432.364C101.406 432.867 101.438 433.364 101.469 433.866C101.558 434.866 101.647 435.865 101.809 436.865C101.965 437.866 102.173 438.858 102.432 439.838C102.685 440.836 103.014 441.814 103.416 442.763L109.596 442.083C110.015 440.246 110.256 438.451 110.486 436.661L110.654 435.321C110.701 434.876 110.758 434.431 110.795 433.987C110.9 433.097 110.988 432.213 111.057 431.323C111.125 430.433 111.198 429.549 111.224 428.654C111.25 427.759 111.287 426.875 111.297 425.974C111.308 425.074 111.381 424.185 111.439 423.29C111.496 422.395 111.653 421.51 111.794 420.626L111.904 419.967L112.046 419.307L112.328 417.999C112.422 417.559 112.522 417.125 112.627 416.69L112.977 415.398C113.422 413.666 114.024 411.991 114.594 410.306L115.568 407.825L115.814 407.202C115.897 406.998 115.997 406.799 116.086 406.601L116.609 405.386L117.132 404.172C117.3 403.764 117.53 403.387 117.719 402.984L118.901 400.614L120.22 398.321L120.555 397.751L120.717 397.463C120.775 397.369 120.832 397.296 120.89 397.207L121.565 396.212C121.78 395.877 122.052 395.579 122.287 395.255L122.654 394.784C122.779 394.632 122.92 394.485 123.051 394.334C123.323 394.041 123.575 393.732 123.847 393.444L124.695 392.601C124.967 392.314 125.281 392.078 125.569 391.785C125.72 391.654 125.862 391.513 126.013 391.382C126.165 391.251 126.327 391.136 126.479 391.005C127.086 390.482 127.74 390.006 128.384 389.509C129.724 388.536 131.122 387.647 132.571 386.845C135.676 385.157 138.953 383.808 142.347 382.82C144.079 382.297 145.858 381.821 147.674 381.407C149.49 380.994 151.337 380.628 153.248 380.314L153.337 379.513Z" fill="#7BCE34"/>
<path d="M125.663 391.785L125.731 391.727C123.978 392.25 122.268 392.91 120.618 393.7C118.688 394.622 116.859 395.741 115.16 397.039C114.303 397.707 113.483 398.422 112.705 399.18L112.124 399.75C111.936 399.949 111.758 400.153 111.569 400.357C111.214 400.765 110.832 401.158 110.491 401.587C109.118 403.291 107.915 405.126 106.901 407.066L106.179 408.532C106.122 408.652 106.054 408.783 106.006 408.898L105.86 409.249L105.567 409.945L105.509 410.075C105.206 411.122 104.918 412.169 104.672 413.215L104.295 414.67L103.971 416.13L103.646 417.59L103.489 418.318L103.353 419.056C103.175 420.034 102.95 421.008 102.746 421.981C102.542 422.955 102.338 423.938 102.123 424.917C101.909 425.896 101.773 426.89 101.642 427.884C101.511 428.879 101.474 429.878 101.438 430.878C101.438 431.401 101.438 431.883 101.438 432.385C101.438 432.887 101.469 433.385 101.501 433.887C101.59 434.887 101.678 435.886 101.841 436.886C101.997 437.887 102.205 438.879 102.463 439.858C102.716 440.857 103.045 441.835 103.447 442.784L108.293 442.26V442.145C108.225 441.25 108.163 440.355 108.11 439.461C108.058 438.566 108.11 437.671 108.136 436.776L108.168 436.106L108.225 435.436L108.346 434.102C108.388 433.657 108.429 433.212 108.482 432.767L108.675 431.443C108.906 429.669 109.303 427.931 109.659 426.21L110.324 423.63L110.491 422.986C110.549 422.771 110.622 422.562 110.685 422.348L111.083 421.081L111.465 419.809C111.585 419.385 111.763 418.977 111.904 418.559L112.789 416.062L112.982 415.607L113.024 415.45C113.469 413.718 114.071 412.043 114.641 410.358L115.615 407.877L115.861 407.255C115.945 407.051 116.044 406.852 116.133 406.653L116.656 405.439L117.18 404.224C117.347 403.816 117.577 403.44 117.766 403.037L118.948 400.666L120.267 398.374L120.602 397.803L120.764 397.515C120.822 397.421 120.88 397.348 120.937 397.259L121.612 396.265C121.827 395.93 122.099 395.631 122.334 395.307L122.701 394.836C122.826 394.684 122.968 394.538 123.099 394.386C123.371 394.093 123.622 393.784 123.894 393.496L124.742 392.654C125.077 392.313 125.375 392.062 125.663 391.785Z" fill="#3C8F2D"/>
<path d="M108.853 444.014L108.183 443.935C106.613 440.361 101.731 429.439 95.7125 415.759C81.0016 382.334 59.3774 332.439 61.5964 332.91C64.6212 333.554 79.0234 356.627 93.7081 385.102C95.135 387.893 96.5655 390.717 97.9994 393.575C99.4927 396.565 100.923 399.417 102.291 402.131C102.814 405.193 103.29 408.359 103.73 411.551C106.682 432.992 108.853 444.014 108.853 444.014Z" fill="#7BCE34"/>
<path d="M108.853 437.885C108.853 437.885 104.975 427.345 98.7059 406.663C92.4363 385.981 84.6805 367.879 82.3674 367.151C81.2789 366.806 84.602 382.449 88.4328 399.159C95.3356 414.979 101.846 429.685 105.562 438.037L108.853 437.885Z" fill="#3C8F2D"/>
<path d="M108.853 444.013L108.183 443.935L97.8319 442.768C97.8319 442.768 96.7852 430.344 95.7124 415.759C94.9431 405.407 94.1424 393.957 93.708 385.102C93.2475 376.022 93.148 369.669 93.797 369.993C95.6443 370.914 99.3966 384.835 102.291 402.131C102.814 405.193 103.29 408.359 103.73 411.551C106.681 432.992 108.853 444.013 108.853 444.013Z" fill="#7BCE34"/>
<path d="M168.942 433.463C165.844 430.893 162.804 428.544 160.004 426.136C158.612 424.927 157.262 423.729 156.047 422.473C154.878 421.318 153.802 420.072 152.829 418.747C152.402 418.16 152.006 417.552 151.641 416.926C151.564 416.776 151.48 416.629 151.39 416.486C151.306 416.34 151.243 416.193 151.17 416.052L150.49 414.712C149.937 413.707 149.314 412.742 148.627 411.823C147.924 410.9 147.16 410.026 146.34 409.207C144.681 407.584 142.824 406.177 140.813 405.02C138.788 403.839 136.615 402.935 134.35 402.33C133.178 402.019 131.98 401.818 130.77 401.728C129.506 401.629 128.234 401.678 126.981 401.875C125.663 402.075 124.38 402.457 123.166 403.01C122.005 403.557 120.908 404.231 119.896 405.02C118.941 405.742 118.05 406.544 117.232 407.417C116.443 408.25 115.71 409.134 115.039 410.065C113.758 411.857 112.657 413.771 111.752 415.78C110.096 419.653 108.961 423.728 108.377 427.9C108.22 428.915 108.063 429.931 107.932 430.946L107.728 432.464C107.67 432.987 107.623 433.479 107.55 433.986C107.309 436.006 107.079 438.021 106.681 440.036L116.374 440.371C116.15 438.548 116.122 436.705 116.29 434.876C116.44 433.069 116.706 431.274 117.085 429.501C117.462 427.738 117.923 426.011 118.451 424.336C118.98 422.661 119.555 421.013 120.21 419.443C120.534 418.658 120.864 417.873 121.256 417.14C121.649 416.408 121.999 415.665 122.413 414.974C122.809 414.295 123.243 413.638 123.711 413.006C124.147 412.411 124.632 411.852 125.16 411.337C125.635 410.871 126.162 410.462 126.73 410.117C127.244 409.804 127.804 409.575 128.389 409.437C129.038 409.292 129.703 409.231 130.367 409.254C131.085 409.282 131.798 409.389 132.492 409.573C133.966 409.987 135.34 410.7 136.527 411.666C137.736 412.649 138.794 413.804 139.667 415.094C140.112 415.738 140.515 416.402 140.902 417.077C141.289 417.753 141.635 418.454 141.985 419.171L142.231 419.694L142.289 419.825C142.289 419.872 142.326 419.903 142.367 419.987L142.587 420.416C142.739 420.699 142.88 420.992 143.037 421.264C143.194 421.536 143.367 421.788 143.561 422.065C144.223 423.073 144.98 424.016 145.821 424.88C147.385 426.48 149.143 427.876 151.055 429.036C151.976 429.596 152.897 430.119 153.844 430.606C154.791 431.092 155.739 431.49 156.702 431.867C158.612 432.617 160.579 433.216 162.584 433.657C163.583 433.871 164.588 434.054 165.598 434.18C166.62 434.319 167.65 434.394 168.681 434.405L168.942 433.463Z" fill="#7BCE34"/>
<path d="M107.728 432.448L107.932 430.93C108.063 429.915 108.22 428.9 108.377 427.885C108.961 423.713 110.096 419.637 111.752 415.764C112.657 413.755 113.758 411.841 115.039 410.049C115.71 409.119 116.443 408.234 117.232 407.401C118.051 406.534 118.942 405.737 119.896 405.02C120.454 404.595 121.038 404.203 121.643 403.848C133.466 404.513 137.38 410.212 138.673 413.791C138.019 413.003 137.286 412.284 136.485 411.646C135.298 410.679 133.924 409.967 132.45 409.552C131.756 409.368 131.043 409.261 130.326 409.233C129.661 409.21 128.996 409.272 128.347 409.416C127.762 409.554 127.202 409.784 126.688 410.097C126.12 410.441 125.593 410.851 125.118 411.316C124.59 411.832 124.105 412.39 123.669 412.985C123.201 413.617 122.768 414.274 122.371 414.953C121.957 415.644 121.575 416.366 121.214 417.12C120.853 417.873 120.508 418.637 120.168 419.422C119.514 420.992 118.948 422.636 118.409 424.316C117.87 425.995 117.42 427.717 117.043 429.481C116.679 431.253 116.427 433.046 116.29 434.85C116.122 436.68 116.15 438.522 116.374 440.345L106.681 440.01C107.079 437.995 107.309 435.981 107.55 433.961C107.623 433.463 107.67 432.956 107.728 432.448Z" fill="#3C8F2D"/>
<path d="M31.625 433.463C34.7231 430.893 37.7689 428.544 40.5635 426.136C41.9556 424.927 43.3058 423.729 44.5199 422.473C45.6922 421.32 46.7686 420.074 47.7384 418.747C48.1667 418.161 48.5633 417.553 48.9264 416.926C49.0066 416.776 49.0904 416.629 49.1776 416.486C49.2666 416.339 49.3241 416.193 49.3974 416.052L50.0777 414.712C50.6344 413.708 51.2586 412.743 51.946 411.823C52.6501 410.9 53.416 410.026 54.2382 409.206C55.8938 407.583 57.7491 406.176 59.7594 405.02C61.7847 403.84 63.9582 402.935 66.2226 402.33C67.3963 402.018 68.5964 401.817 69.8074 401.728C71.0718 401.629 72.3434 401.678 73.5963 401.875C74.9127 402.075 76.1948 402.457 77.4062 403.01C78.5656 403.546 79.6625 404.207 80.677 404.983C81.6304 405.706 82.5215 406.508 83.3408 407.38C84.1266 408.214 84.8573 409.099 85.5283 410.028C86.8098 411.82 87.9107 413.734 88.8149 415.743C90.4711 419.616 91.6062 423.692 92.1904 427.863C92.3474 428.879 92.5044 429.894 92.6352 430.909L92.8393 432.427C92.9021 432.95 92.944 433.442 93.0172 433.95C93.2632 435.97 93.4882 437.985 93.886 439.999L84.1938 440.334C84.41 438.514 84.431 436.675 84.2566 434.85C84.106 433.043 83.8403 431.248 83.4612 429.475C83.093 427.731 82.6371 426.008 82.0953 424.31C81.5719 422.63 80.991 420.987 80.3369 419.417C80.0124 418.632 79.6827 417.847 79.2902 417.114C78.8977 416.381 78.5471 415.638 78.1336 414.947C77.7388 414.267 77.3055 413.61 76.8358 412.98C76.401 412.384 75.9179 411.826 75.3914 411.31C74.9226 410.849 74.405 410.44 73.8475 410.091C73.3319 409.778 72.7703 409.549 72.1833 409.411C71.5343 409.266 70.8696 409.204 70.2051 409.227C69.4873 409.256 68.7748 409.363 68.0804 409.547C66.6064 409.961 65.2331 410.673 64.0455 411.64C62.8364 412.622 61.7784 413.777 60.9055 415.068C60.4607 415.711 60.0577 416.376 59.6704 417.051C59.2832 417.726 58.9378 418.428 58.5924 419.145L58.3464 419.668L58.2836 419.799L58.2051 419.961L57.9853 420.39C57.8388 420.673 57.6922 420.966 57.5352 421.238C57.3782 421.51 57.2108 421.761 57.0433 422.039C56.3793 423.047 55.6205 423.99 54.7773 424.854C53.2142 426.453 51.4559 427.849 49.5439 429.009C48.6281 429.569 47.7018 430.093 46.7546 430.579C45.8073 431.066 44.8601 431.464 43.8972 431.841C41.9866 432.591 40.0197 433.19 38.0149 433.63C37.0153 433.845 36.0158 434.028 35.0005 434.154C33.9793 434.275 32.9516 434.332 31.9233 434.326L31.625 433.463Z" fill="#7BCE34"/>
<path d="M92.8394 432.448L92.6353 430.93C92.5044 429.915 92.3474 428.9 92.1904 427.885C91.6063 423.713 90.4712 419.637 88.8149 415.764C87.9108 413.755 86.8099 411.841 85.5284 410.049C84.8574 409.12 84.1267 408.236 83.3409 407.401C82.5215 406.529 81.6305 405.727 80.6771 405.004C80.1158 404.58 79.5304 404.189 78.9239 403.832C67.1018 404.497 63.1873 410.196 61.8999 413.775C62.5501 412.986 63.2815 412.267 64.0822 411.63C65.2698 410.663 66.6431 409.951 68.1171 409.536C68.8115 409.353 69.524 409.246 70.2418 409.217C70.9063 409.194 71.5711 409.256 72.22 409.4C72.807 409.539 73.3686 409.768 73.8842 410.081C74.4417 410.43 74.9593 410.839 75.4281 411.3C75.9546 411.816 76.4377 412.374 76.8725 412.97C77.3422 413.6 77.7755 414.257 78.1703 414.937C78.5838 415.628 78.9658 416.35 79.3269 417.104C79.688 417.858 80.0334 418.622 80.3736 419.407C81.0277 420.977 81.5929 422.62 82.132 424.3C82.6738 425.997 83.1297 427.721 83.4979 429.465C83.8652 431.242 84.1186 433.041 84.2567 434.85C84.4249 436.68 84.3968 438.522 84.173 440.345L93.8651 440.01C93.4674 437.995 93.2423 435.981 92.9964 433.96C92.944 433.463 92.9022 432.956 92.8394 432.448Z" fill="#3C8F2D"/>
<path d="M117.227 481.254H87.92C86.0911 481.253 84.3231 480.596 82.9374 479.402C81.5517 478.209 80.6401 476.558 80.3683 474.749L75.203 440.34C74.8419 437.953 92.384 439.816 103.123 439.733C113.239 439.633 129.776 438.686 129.598 439.884L124.789 474.749C124.517 476.559 123.604 478.212 122.216 479.406C120.828 480.6 119.057 481.255 117.227 481.254Z" fill="#ABBCCA"/>
<path d="M102.39 439.743C91.6514 439.848 74.8315 437.953 75.1769 440.34L80.3422 474.749C80.6147 476.562 81.53 478.217 82.9212 479.411C84.3124 480.605 86.0866 481.259 87.92 481.254H99.5171C96.4689 477.893 94.7627 473.529 94.7234 468.992C94.7234 468.055 94.8333 462.016 99.224 457.201C101.841 454.323 106.09 452.853 114.584 449.906C118.666 448.493 121.911 447.776 125.448 444.788C126.934 443.596 128.279 442.239 129.457 440.743L129.577 439.884C129.787 438.691 112.517 439.644 102.39 439.743Z" fill="#91A6B5"/>
<path d="M491.85 193.86H432.713C432.287 193.859 431.879 193.689 431.578 193.388C431.277 193.087 431.108 192.679 431.106 192.254V128.255C431.106 128.044 431.148 127.835 431.228 127.64C431.309 127.445 431.428 127.268 431.577 127.119C431.726 126.97 431.903 126.852 432.098 126.771C432.293 126.69 432.502 126.649 432.713 126.649H502.803C503.014 126.648 503.223 126.689 503.419 126.769C503.614 126.85 503.791 126.968 503.94 127.118C504.09 127.267 504.208 127.444 504.289 127.64C504.369 127.835 504.41 128.044 504.41 128.255V181.777L491.85 193.86Z" fill="#A2AEE6"/>
<path d="M479.797 141.417H469.393V151.821H479.797V141.417Z" fill="#C0D6F2"/>
<path d="M494.225 141.417H483.822V151.821H494.225V141.417Z" fill="#C0D6F2"/>
<path d="M479.797 154.26H469.393V164.664H479.797V154.26Z" fill="#C0D6F2"/>
<path d="M494.225 154.26H483.822V164.664H494.225V154.26Z" fill="#C0D6F2"/>
<path d="M479.797 167.107H469.393V177.511H479.797V167.107Z" fill="#C0D6F2"/>
<path d="M494.225 167.107H483.822V177.511H494.225V167.107Z" fill="#C0D6F2"/>
<path d="M450.81 167.107H440.406V177.511H450.81V167.107Z" fill="#C0D6F2"/>
<path d="M450.81 179.939H440.406V190.343H450.81V179.939Z" fill="#C0D6F2"/>
<path d="M450.81 154.26H440.406V164.664H450.81V154.26Z" fill="#C0D6F2"/>
<path d="M464.945 167.107H454.541V177.511H464.945V167.107Z" fill="#C0D6F2"/>
<path d="M464.945 154.26H454.541V164.664H464.945V154.26Z" fill="#C0D6F2"/>
<path d="M502.803 193.86C503.229 193.86 503.638 193.691 503.939 193.39C504.24 193.088 504.41 192.68 504.41 192.254V181.787L491.85 193.871L502.803 193.86Z" fill="#A2AEE6"/>
<path d="M443.687 134.179C443.529 134.179 443.372 134.148 443.225 134.087C443.079 134.027 442.946 133.937 442.834 133.825C442.722 133.713 442.634 133.579 442.574 133.433C442.513 133.286 442.483 133.129 442.483 132.971V121.415C442.483 121.096 442.61 120.79 442.836 120.564C443.062 120.338 443.368 120.212 443.687 120.212C444.006 120.212 444.312 120.338 444.538 120.564C444.764 120.79 444.891 121.096 444.891 121.415V132.971C444.891 133.129 444.861 133.286 444.801 133.433C444.74 133.579 444.652 133.713 444.54 133.825C444.428 133.937 444.295 134.027 444.149 134.087C444.003 134.148 443.846 134.179 443.687 134.179Z" fill="#EA8826"/>
<path d="M435.659 134.179C435.501 134.179 435.344 134.148 435.197 134.087C435.051 134.027 434.918 133.937 434.806 133.825C434.694 133.713 434.606 133.579 434.546 133.433C434.486 133.286 434.455 133.129 434.456 132.971V121.415C434.456 121.096 434.582 120.79 434.808 120.564C435.034 120.338 435.34 120.212 435.659 120.212C435.978 120.212 436.285 120.338 436.51 120.564C436.736 120.79 436.863 121.096 436.863 121.415V132.971C436.864 133.129 436.833 133.286 436.773 133.433C436.713 133.579 436.624 133.713 436.512 133.825C436.4 133.937 436.267 134.027 436.121 134.087C435.975 134.148 435.818 134.179 435.659 134.179Z" fill="#EA8826"/>
<path d="M451.715 134.179C451.557 134.179 451.4 134.148 451.253 134.087C451.107 134.027 450.974 133.937 450.862 133.825C450.75 133.713 450.662 133.579 450.602 133.433C450.541 133.286 450.511 133.129 450.511 132.971V121.415C450.511 121.096 450.638 120.79 450.864 120.564C451.09 120.338 451.396 120.212 451.715 120.212C452.034 120.212 452.341 120.338 452.566 120.564C452.792 120.79 452.919 121.096 452.919 121.415V132.971C452.92 133.129 452.889 133.286 452.829 133.433C452.769 133.579 452.68 133.713 452.568 133.825C452.456 133.937 452.323 134.027 452.177 134.087C452.031 134.148 451.874 134.179 451.715 134.179Z" fill="#EA8826"/>
<path d="M459.743 134.179C459.584 134.179 459.428 134.148 459.281 134.087C459.135 134.027 459.002 133.937 458.89 133.825C458.778 133.713 458.69 133.579 458.629 133.433C458.569 133.286 458.539 133.129 458.539 132.971V121.415C458.539 121.096 458.666 120.79 458.892 120.564C459.118 120.338 459.424 120.212 459.743 120.212C460.062 120.212 460.368 120.338 460.594 120.564C460.82 120.79 460.947 121.096 460.947 121.415V132.971C460.947 133.129 460.917 133.286 460.857 133.433C460.796 133.579 460.708 133.713 460.596 133.825C460.484 133.937 460.351 134.027 460.205 134.087C460.058 134.148 459.901 134.179 459.743 134.179Z" fill="#EA8826"/>
<path d="M467.771 134.179C467.613 134.179 467.456 134.148 467.309 134.087C467.163 134.027 467.03 133.937 466.918 133.825C466.806 133.713 466.718 133.579 466.658 133.433C466.597 133.286 466.567 133.129 466.567 132.971V121.415C466.567 121.096 466.694 120.79 466.92 120.564C467.146 120.338 467.452 120.212 467.771 120.212C468.09 120.212 468.396 120.338 468.622 120.564C468.848 120.79 468.975 121.096 468.975 121.415V132.971C468.975 133.129 468.945 133.286 468.885 133.433C468.824 133.579 468.736 133.713 468.624 133.825C468.512 133.937 468.379 134.027 468.233 134.087C468.086 134.148 467.93 134.179 467.771 134.179Z" fill="#EA8826"/>
<path d="M475.799 134.18C475.64 134.18 475.482 134.149 475.335 134.089C475.188 134.028 475.055 133.939 474.942 133.827C474.83 133.715 474.741 133.581 474.68 133.434C474.62 133.287 474.589 133.13 474.59 132.971V121.415C474.61 121.109 474.746 120.822 474.97 120.612C475.194 120.403 475.489 120.286 475.796 120.286C476.103 120.286 476.398 120.403 476.622 120.612C476.846 120.822 476.982 121.109 477.002 121.415V132.971C477.003 133.129 476.972 133.286 476.912 133.433C476.852 133.579 476.764 133.713 476.652 133.825C476.54 133.937 476.407 134.027 476.261 134.087C476.114 134.148 475.957 134.18 475.799 134.18Z" fill="#EA8826"/>
<path d="M483.822 134.18C483.663 134.18 483.506 134.148 483.36 134.087C483.213 134.027 483.08 133.937 482.969 133.825C482.857 133.713 482.768 133.579 482.708 133.433C482.648 133.286 482.617 133.129 482.618 132.971V121.415C482.638 121.109 482.774 120.822 482.998 120.612C483.222 120.403 483.517 120.286 483.824 120.286C484.131 120.286 484.426 120.403 484.65 120.612C484.874 120.822 485.01 121.109 485.03 121.415V132.971C485.031 133.13 485 133.287 484.94 133.434C484.879 133.581 484.79 133.715 484.678 133.827C484.566 133.939 484.432 134.028 484.285 134.089C484.138 134.149 483.981 134.18 483.822 134.18Z" fill="#EA8826"/>
<path d="M491.849 134.179C491.691 134.179 491.534 134.148 491.388 134.087C491.241 134.027 491.108 133.937 490.996 133.825C490.885 133.713 490.796 133.579 490.736 133.433C490.676 133.286 490.645 133.129 490.646 132.971V121.415C490.646 121.096 490.773 120.79 490.998 120.564C491.224 120.338 491.53 120.212 491.849 120.212C492.169 120.212 492.475 120.338 492.701 120.564C492.926 120.79 493.053 121.096 493.053 121.415V132.971C493.054 133.129 493.023 133.286 492.963 133.433C492.903 133.579 492.814 133.713 492.702 133.825C492.591 133.937 492.458 134.027 492.311 134.087C492.165 134.148 492.008 134.179 491.849 134.179Z" fill="#EA8826"/>
<path d="M499.877 134.179C499.719 134.179 499.562 134.148 499.416 134.087C499.269 134.027 499.136 133.937 499.025 133.825C498.913 133.713 498.824 133.579 498.764 133.433C498.704 133.286 498.673 133.129 498.674 132.971V121.415C498.674 121.096 498.801 120.79 499.026 120.564C499.252 120.338 499.558 120.212 499.877 120.212C500.197 120.212 500.503 120.338 500.729 120.564C500.954 120.79 501.081 121.096 501.081 121.415V132.971C501.082 133.129 501.051 133.286 500.991 133.433C500.931 133.579 500.842 133.713 500.73 133.825C500.619 133.937 500.486 134.027 500.339 134.087C500.193 134.148 500.036 134.179 499.877 134.179Z" fill="#EA8826"/>
<path d="M504.352 181.719L491.797 181.834L491.907 193.918L504.352 181.719Z" fill="#C0D6F2"/>
<path d="M456.718 167.217C457.92 168.785 459.019 170.428 460.01 172.137C460.533 172.984 460.999 173.843 461.459 174.717C461.92 175.591 462.36 176.475 462.742 177.396C462.119 176.622 461.554 175.826 461.004 174.984C460.455 174.141 459.957 173.325 459.434 172.477C458.419 170.783 457.511 169.026 456.718 167.217Z" fill="#AF2F2F"/>
<path d="M462.763 167.217C461.967 169.02 461.055 170.768 460.031 172.451C459.508 173.298 458.984 174.141 458.461 174.957C457.938 175.774 457.351 176.595 456.723 177.37C457.105 176.449 457.55 175.564 458.011 174.69C458.471 173.817 458.958 172.958 459.455 172.11C460.453 170.411 461.558 168.777 462.763 167.217Z" fill="#AF2F2F"/>
<path d="M532.586 374.384L564.132 473.65L495.173 374.384L466.41 473.65L532.586 374.384Z" stroke="#59A4CE" stroke-width="3.67969" stroke-linecap="round" stroke-linejoin="round"/>
<path d="M561.034 476.413H567.225C567.933 476.413 568.508 475.839 568.508 475.131V473.545C568.508 472.837 567.933 472.263 567.225 472.263H561.034C560.326 472.263 559.752 472.837 559.752 473.545V475.131C559.752 475.839 560.326 476.413 561.034 476.413Z" fill="#80CBE8"/>
<path d="M463.317 476.413H469.508C470.216 476.413 470.791 475.839 470.791 475.131V473.545C470.791 472.837 470.216 472.263 469.508 472.263H463.317C462.609 472.263 462.035 472.837 462.035 473.545V475.131C462.035 475.839 462.609 476.413 463.317 476.413Z" fill="#80CBE8"/>
<path d="M483.309 403.848H545.161C546.029 403.848 546.731 403.145 546.731 402.278V400.425C546.731 399.558 546.029 398.855 545.161 398.855H483.309C482.442 398.855 481.739 399.558 481.739 400.425V402.278C481.739 403.145 482.442 403.848 483.309 403.848Z" fill="#80CBE8"/>
<path d="M582.569 283.214C582.522 282.34 582.24 278.666 580.031 276.761C575.164 272.575 562.337 278.29 554.414 284.611C552.41 286.213 535.004 300.542 535.574 320.596C535.747 326.714 538.039 348.903 536.888 349.798C536.574 350.039 536.244 350.269 536.244 350.269C533.627 352.111 530.205 353.665 514.117 354.649C495.026 355.816 485.988 354.466 470.791 357.873C464.39 359.312 458.089 360.919 455.808 365.943C454.86 368.036 454.185 371.6 455.808 374.238C459.314 379.916 470.079 375.698 489.688 376.08C493.529 376.158 490.928 376.279 527.258 379.309C531.895 379.696 538.112 380.151 545.465 377.697C547.114 377.142 553.838 374.902 558.601 370.087C565.242 363.399 563.279 356.669 566.205 338.515C569.622 317.304 571.904 303.096 578.419 294.497C579.33 293.294 582.852 288.866 582.569 283.214Z" fill="#C9EFFB"/>
<path d="M501.442 372.636C510.166 373.295 517.524 374.556 528.179 372.175C533.533 370.977 542.466 368.978 549.636 362.494C553.472 359.013 556.565 354.445 562.772 329.524C568.785 305.419 569.245 296.224 577.985 288.039C579.437 286.626 580.98 285.312 582.606 284.104C582.501 289.337 579.314 293.34 578.419 294.492C571.904 303.09 569.622 317.299 566.205 338.509C563.279 356.664 565.242 363.394 558.601 370.082C553.817 374.897 547.087 377.136 545.465 377.691C538.138 380.146 531.895 379.69 527.253 379.303C490.929 376.273 493.529 376.163 489.688 376.074C471.089 375.713 460.46 379.471 456.42 375.027C465.709 372.139 486.03 371.469 501.442 372.636Z" fill="#80CBE8"/>
<path d="M550.154 338.059C550.154 338.059 561.332 360.715 540.488 371.589C519.644 382.464 506.655 386.389 506.063 390.921C505.472 395.453 509.386 401.493 507.576 419.616C505.765 437.739 502.74 459.19 502.74 459.19C502.74 459.19 486.731 461.603 484.313 459.19C481.896 456.778 484.915 426.43 482.22 399.159C482.22 399.159 477.086 386.075 483.879 377.932L491.206 369.873C491.206 369.873 437.962 380.34 445.54 372.013C454.274 362.442 480.347 353.042 502.133 342.115L503.269 338.059H550.154Z" fill="#25BEEF"/>
<path d="M550.154 338.059C550.154 338.059 561.332 360.715 540.488 371.589C519.644 382.464 506.655 386.389 506.063 390.921C505.472 395.453 509.386 401.493 507.576 419.616C505.765 437.739 502.74 459.19 502.74 459.19C502.74 459.19 486.731 461.603 484.313 459.19C481.896 456.778 484.915 426.43 482.22 399.159C482.22 399.159 477.086 386.075 483.879 377.932L489.636 372.495L503.3 338.059H550.154Z" fill="#25BEEF"/>
<path d="M465.4 476.397C470.231 472.069 481.712 466.632 484.329 459.18C486.339 461.189 497.721 459.86 501.515 459.352C501.515 459.352 503.358 465.203 503.447 469.448C503.535 473.692 503.447 474.885 503.447 474.885L496.402 475.796V473.98C496.402 473.98 492.273 474.184 490.06 476.397C487.846 478.611 481.498 481.531 474.653 481.233C467.807 480.935 460.565 480.725 465.4 476.397Z" fill="#D18165"/>
<path d="M474.663 481.233C481.508 481.531 487.851 478.616 490.065 476.397C492.279 474.178 496.408 473.98 496.408 473.98V475.796L503.447 474.885C503.447 474.885 503.546 473.681 503.447 469.448C503.329 467.212 502.992 464.992 502.442 462.822C501.96 460.823 501.5 459.358 501.5 459.358C497.711 459.881 486.323 461.184 484.319 459.18C483.765 460.655 482.963 462.025 481.948 463.23C481.624 463.644 481.273 464.047 480.901 464.439L479.959 465.381C479.546 465.774 479.127 466.171 478.682 466.554C474.218 470.442 468.457 473.645 465.374 476.397C460.57 480.725 467.818 480.929 474.663 481.233Z" fill="#FFC065"/>
<path d="M474.663 481.233C469.163 480.987 463.417 480.809 463.862 478.506C481.048 482.63 487.851 475.89 489.102 473.88C490.353 471.871 493.388 471.667 493.388 471.667C498.956 471.604 501.934 469.835 503.405 468.474C503.431 468.809 503.452 469.134 503.457 469.448C503.562 473.681 503.457 474.885 503.457 474.885L496.413 475.796V473.98C496.413 473.98 492.284 474.184 490.07 476.397C487.857 478.611 481.508 481.531 474.663 481.233Z" fill="#7C2F13"/>
<path d="M480.943 464.439C481.268 464.659 481.613 464.868 481.959 465.062C482.422 465.336 482.907 465.572 483.408 465.769C483.957 466.008 484.537 466.17 485.13 466.25C484.92 465.666 484.592 465.132 484.167 464.68C483.768 464.251 483.305 463.886 482.796 463.597C482.536 463.454 482.267 463.33 481.99 463.225C481.639 463.633 481.289 464.047 480.943 464.439Z" fill="#7C2F13"/>
<path d="M478.708 466.553C478.944 466.7 479.179 466.841 479.425 466.972C479.892 467.24 480.377 467.476 480.875 467.678C481.421 467.912 481.997 468.067 482.586 468.139C482.378 467.554 482.05 467.02 481.623 466.569C481.222 466.143 480.76 465.778 480.252 465.486C480.169 465.439 480.08 465.397 479.985 465.355C479.572 465.774 479.153 466.171 478.708 466.553Z" fill="#7C2F13"/>
<path d="M502.73 459.19L501.5 459.358L499.6 459.593H499.564L497.69 459.803L497.088 459.86C496.225 459.944 495.372 460.012 494.519 460.08L493.425 460.148H493.226L492.179 460.2L491.049 460.232C490.677 460.232 490.311 460.232 489.95 460.232C488.675 460.247 487.401 460.142 486.145 459.918C493.435 453.271 496.664 446.882 498.255 442.397C503.551 427.482 500.506 406.533 499.768 401.467C498.967 395.956 498.072 392.382 499.946 388.09C502.4 382.48 507.272 380.523 516.378 376.09C524.673 372.061 532.078 368.455 537.558 364.174C541.331 361.217 542.791 356.052 540.781 351.698C539.489 348.882 536.919 346.569 532.036 346.208C523.646 345.487 515.57 342.676 508.544 338.033H550.217V338.081V338.122L550.259 338.217V338.248L550.332 338.415C550.342 338.434 550.351 338.453 550.358 338.473L550.426 338.63L550.458 338.709C550.489 338.771 550.515 338.839 550.547 338.913V338.97L550.667 339.269L550.698 339.357C550.735 339.436 550.766 339.52 550.798 339.609L550.845 339.729L550.955 340.017C550.955 340.054 550.981 340.085 550.991 340.122C551.044 340.252 551.091 340.394 551.143 340.535L551.175 340.624L551.3 340.985C551.3 341.037 551.332 341.09 551.353 341.142C551.374 341.194 551.426 341.378 551.468 341.498L551.515 341.639L551.672 342.163C551.675 342.187 551.675 342.211 551.672 342.236C551.717 342.389 551.764 342.546 551.813 342.707L551.86 342.89C551.902 343.026 551.939 343.162 551.975 343.303L552.022 343.487C552.075 343.685 552.127 343.884 552.174 344.094C552.227 344.298 552.274 344.507 552.321 344.722C552.321 344.784 552.321 344.852 552.363 344.915C552.399 345.072 552.431 345.229 552.462 345.392C552.462 345.46 552.462 345.533 552.504 345.601L552.614 346.187V346.286C552.656 346.517 552.692 346.747 552.724 346.982L552.755 347.187C552.781 347.359 552.802 347.537 552.828 347.71C552.828 347.788 552.828 347.867 552.828 347.945C552.828 348.139 552.875 348.333 552.896 348.526V348.689L552.959 349.437C552.959 349.505 552.959 349.568 552.959 349.636L552.991 350.211C552.991 350.3 552.991 350.384 552.991 350.468C552.991 350.661 552.991 350.86 552.991 351.054C552.991 351.122 552.991 351.19 552.991 351.263C552.991 351.525 552.991 351.787 552.991 352.048C552.991 352.106 552.991 352.163 552.991 352.221C552.991 352.43 552.991 352.645 552.991 352.854V353.116C552.991 353.315 552.975 353.514 552.944 353.713C552.944 353.791 552.944 353.869 552.944 353.948C552.944 354.215 552.886 354.471 552.849 354.759V354.88C552.818 355.115 552.781 355.345 552.739 355.586L552.692 355.842C552.656 356.041 552.619 356.24 552.577 356.439C552.577 356.523 552.541 356.612 552.525 356.695C552.462 356.968 552.399 357.219 552.326 357.512C551.916 359.073 551.322 360.581 550.557 362.002C550.421 362.259 550.274 362.525 550.123 362.771L549.961 363.049C549.772 363.347 549.573 363.64 549.369 363.938L549.217 364.158C548.786 364.763 548.321 365.343 547.825 365.896L547.632 366.11C547.375 366.393 547.108 366.675 546.826 366.953C545.194 368.533 543.363 369.893 541.378 370.998L540.425 371.522C538.472 372.537 536.588 373.496 534.773 374.4C533.564 375.002 532.392 375.583 531.246 376.137L529.613 377.022L526.39 378.56L523.375 379.979C517.566 382.705 513.06 384.783 510.098 386.62C509.428 387.025 508.783 387.47 508.167 387.954C507.831 388.219 507.513 388.506 507.215 388.812C506.61 389.367 506.2 390.101 506.042 390.906C505.972 391.5 505.96 392.099 506.006 392.696C506.11 394.098 506.461 395.715 506.838 397.777C506.89 398.044 506.943 398.3 506.99 398.604C507.037 398.908 507.079 399.127 507.12 399.363C507.162 399.598 507.209 399.886 507.251 400.153C507.923 404.506 508.169 408.914 507.984 413.315C507.984 413.802 507.947 414.304 507.921 414.812C507.843 416.308 507.722 417.899 507.555 419.6C507.487 420.28 507.414 420.961 507.346 421.646V421.84C507.204 423.211 507.052 424.598 506.901 425.99V426.158L506.665 428.251C506.571 429.12 506.472 429.988 506.372 430.868C506.273 431.71 506.173 432.542 506.079 433.374V433.5C505.948 434.62 505.812 435.735 505.681 436.828C505.619 437.352 505.55 437.875 505.488 438.398V438.545C505.43 439.032 505.373 439.518 505.31 439.994V440.183C505.184 441.191 505.06 442.177 504.938 443.14V443.318C504.813 444.301 504.69 445.257 504.572 446.185C504.08 449.995 503.646 453.245 503.337 455.537C503.337 455.679 503.295 455.82 503.279 455.956C503.263 456.092 503.243 456.223 503.222 456.354C503.049 457.62 502.929 458.5 502.871 458.913C502.74 459.096 502.73 459.19 502.73 459.19Z" fill="#1A87C4"/>
<path d="M502.164 365.671C481.32 376.546 468.331 380.476 467.729 385.003C467.127 389.529 471.052 395.579 469.241 413.702C467.431 431.825 464.406 453.271 464.406 453.271C464.406 453.271 448.397 455.689 445.979 453.271C443.561 450.854 446.581 420.516 443.886 393.245C443.886 393.245 438.752 380.162 445.545 372.013L452.835 366.184" fill="#25BEEF"/>
<path d="M427.077 470.484C431.907 466.151 443.389 460.713 446.005 453.266C448.015 455.271 459.398 453.947 463.192 453.439C463.192 453.439 465.034 459.306 465.133 463.534C465.233 467.763 465.133 468.971 465.133 468.971L458.089 469.877V468.066C458.089 468.066 453.96 468.265 451.746 470.484C449.533 472.703 443.185 475.618 436.34 475.314C429.494 475.011 422.241 474.812 427.077 470.484Z" fill="#D18165"/>
<path d="M436.345 475.314C443.19 475.618 449.533 472.698 451.746 470.484C453.96 468.27 458.089 468.066 458.089 468.066V469.877L465.139 468.971C465.139 468.971 465.238 467.763 465.139 463.534C465.021 461.298 464.684 459.079 464.134 456.909C463.652 454.91 463.192 453.439 463.192 453.439C459.403 453.962 448.015 455.271 446.011 453.266C445.456 454.741 444.654 456.111 443.64 457.317C443.316 457.73 442.965 458.133 442.593 458.526L441.651 459.468C441.238 459.86 440.819 460.253 440.374 460.64C435.937 464.523 430.18 467.731 427.077 470.484C422.246 474.812 429.494 475.016 436.345 475.314Z" fill="#FFC065"/>
<path d="M436.34 475.314C430.839 475.074 425.093 474.896 425.538 472.593C442.724 476.717 449.528 469.976 450.778 467.967C452.029 465.957 455.064 465.748 455.064 465.748C460.633 465.69 463.61 463.916 465.081 462.561C465.081 462.89 465.128 463.22 465.133 463.534C465.238 467.763 465.133 468.972 465.133 468.972L458.089 469.877V468.066C458.089 468.066 453.96 468.265 451.746 470.484C449.533 472.703 443.185 475.618 436.34 475.314Z" fill="#7C2F13"/>
<path d="M442.604 458.526C442.928 458.745 443.274 458.955 443.619 459.148C444.082 459.423 444.567 459.657 445.069 459.85C445.614 460.085 446.19 460.242 446.78 460.315C446.568 459.732 446.241 459.198 445.817 458.745C445.416 458.32 444.954 457.956 444.446 457.667C444.189 457.52 443.919 457.396 443.64 457.296C443.315 457.73 442.965 458.133 442.604 458.526Z" fill="#7C2F13"/>
<path d="M440.385 460.64C440.621 460.781 440.856 460.928 441.102 461.059C441.569 461.326 442.053 461.562 442.552 461.765C443.098 461.996 443.674 462.151 444.263 462.226C444.054 461.649 443.726 461.123 443.3 460.682C442.901 460.253 442.438 459.888 441.929 459.599C441.845 459.552 441.756 459.51 441.662 459.468C441.249 459.86 440.83 460.253 440.385 460.64Z" fill="#7C2F13"/>
<path d="M502.164 365.671C500.214 366.693 498.33 367.654 496.512 368.554C495.303 369.156 494.131 369.732 492.985 370.292L491.3 371.108C490.19 371.631 489.118 372.155 488.076 372.641C487.035 373.128 486.03 373.61 485.062 374.06C479.253 376.786 474.747 378.869 471.785 380.706C471.114 381.111 470.469 381.557 469.854 382.041C469.517 382.304 469.198 382.591 468.901 382.899C468.297 383.453 467.886 384.187 467.729 384.992C467.656 385.588 467.644 386.189 467.692 386.787C467.797 388.19 468.148 389.807 468.524 391.863C468.577 392.136 468.629 392.387 468.676 392.696C468.723 393.004 468.765 393.193 468.807 393.449C468.849 393.706 468.896 393.973 468.938 394.245C469.61 398.596 469.855 403.002 469.671 407.401C469.671 407.893 469.634 408.39 469.608 408.903C469.529 410.4 469.409 411.991 469.241 413.692C469.173 414.367 469.1 415.052 469.032 415.738V415.926C468.891 417.303 468.739 418.69 468.587 420.076V420.249L468.352 422.342C468.258 423.211 468.158 424.075 468.059 424.959C467.959 425.796 467.86 426.634 467.766 427.461V427.591C467.635 428.711 467.499 429.821 467.368 430.915C467.305 431.438 467.237 431.961 467.174 432.485V432.636C467.117 433.123 467.059 433.605 466.996 434.086V434.274C466.871 435.279 466.745 436.268 466.625 437.231V437.409C466.499 438.393 466.379 439.351 466.258 440.272C465.766 444.087 465.332 447.337 465.023 449.629C465.023 449.77 464.981 449.912 464.966 450.048C464.95 450.184 464.929 450.315 464.908 450.445C464.736 451.707 464.615 452.591 464.558 452.999C464.531 453.172 464.521 453.261 464.521 453.261C464.113 453.324 463.699 453.381 463.291 453.434C462.658 453.523 462.025 453.601 461.391 453.674H461.355L459.481 453.878L458.879 453.941C458.016 454.025 457.163 454.093 456.31 454.156L455.216 454.229H455.017L453.971 454.276L452.84 454.313C452.469 454.313 452.102 454.313 451.741 454.313C450.466 454.328 449.192 454.223 447.937 453.999C455.227 447.353 458.456 440.963 460.046 436.478C465.343 421.557 462.297 400.614 461.559 395.548C460.758 390.037 459.863 386.457 461.737 382.166C463.27 378.665 465.746 376.582 469.587 374.436C474.517 371.726 479.852 369.828 485.386 368.816L502.164 365.671Z" fill="#1A87C4"/>
<path d="M486.088 460.101L488.28 457.856L488.411 457.987L486.088 460.101Z" fill="white"/>
<path d="M492.153 453.167C493.342 451.525 494.412 449.801 495.356 448.007L496.015 448.368C494.984 450.147 493.824 451.849 492.546 453.46L492.153 453.167Z" fill="white"/>
<path d="M497.69 442.423C498.324 440.512 498.83 438.561 499.202 436.582L500.401 436.828C499.957 438.845 499.373 440.828 498.653 442.763L497.69 442.423Z" fill="white"/>
<path d="M500.061 430.585C500.256 428.572 500.373 426.553 500.411 424.53L501.981 424.582C501.887 426.639 501.73 428.69 501.458 430.737L500.061 430.585Z" fill="white"/>
<path d="M500.369 418.454L500.008 412.389L501.814 412.258L502.065 418.417L500.369 418.454Z" fill="white"/>
<path d="M499.38 406.344C499.087 404.335 498.857 402.325 498.511 400.321L500.463 400.022C500.767 402.048 500.987 404.089 501.259 406.119L499.38 406.344Z" fill="white"/>
<path d="M497.768 394.114C497.738 393.023 497.822 391.932 498.019 390.859C498.228 389.777 498.56 388.724 499.009 387.719L500.882 388.556C500.493 389.413 500.203 390.312 500.019 391.235C499.843 392.168 499.768 393.117 499.794 394.067L497.768 394.114Z" fill="white"/>
<path d="M502.923 382.517C504.57 381.185 506.356 380.035 508.251 379.089L509.224 380.931C507.476 381.814 505.82 382.871 504.284 384.087L502.923 382.517Z" fill="white"/>
<path d="M513.788 376.362L519.288 373.704L520.183 375.52L514.677 378.21L513.788 376.362Z" fill="white"/>
<path d="M524.751 370.993L530.105 368.125L531.058 369.768L525.662 372.751L524.751 370.993Z" fill="white"/>
<path d="M535.218 364.922L536.432 364.038C536.827 363.761 537.204 363.46 537.563 363.138C538.261 362.509 538.867 361.785 539.363 360.987L540.823 361.866C540.263 362.818 539.571 363.685 538.766 364.441C538.372 364.807 537.954 365.148 537.516 365.461L536.27 366.403L535.218 364.922Z" fill="white"/>
<path d="M540.834 355.617C540.775 353.723 540.127 351.894 538.981 350.384L540.09 349.494C541.475 351.225 542.281 353.346 542.393 355.56L540.834 355.617Z" fill="white"/>
<path d="M534.276 347.37C533.806 347.244 533.329 347.144 532.847 347.071C532.361 346.998 531.874 346.962 531.356 346.888L528.284 346.48L528.441 345.465L531.45 345.763C531.942 345.821 532.497 345.836 533.02 345.904C533.548 345.966 534.073 346.059 534.59 346.182L534.276 347.37Z" fill="white"/>
<path d="M522.287 344.999C520.327 344.381 518.404 343.649 516.53 342.806L516.724 342.356C518.604 343.105 520.526 343.745 522.48 344.272L522.287 344.999Z" fill="white"/>
<path d="M511.103 339.959C510.208 339.436 509.329 338.839 508.486 338.217C509.36 338.787 510.271 339.305 511.192 339.787L511.103 339.959Z" fill="white"/>
<path d="M528.692 228.16C528.692 228.16 540.206 223.151 544.649 233.053C549.092 242.954 555.911 274.747 567.529 276.516C567.529 276.516 561.123 280.461 554.78 272.7C548.438 264.939 544.199 257.717 543.021 254.154C543.692 260.749 546.155 267.034 550.144 272.329C556.821 281.226 566.445 297.873 554.126 300.788C554.126 300.788 560.527 298.025 554.158 290.091C547.789 282.157 516.137 255.347 528.975 234.785C531.487 230.75 528.692 228.16 528.692 228.16Z" fill="black"/>
<path d="M519.947 226.658C526.437 227.919 530.414 236.182 529.503 245.775H529.55C531.325 246.12 532.371 248.392 531.89 250.888C531.408 253.384 529.577 255.075 527.803 254.75C527.567 254.701 527.339 254.618 527.127 254.504C523.522 261.768 516.53 265.813 510.773 264.688C503.63 263.296 501.097 254.478 503.206 243.682C505.315 232.885 512.804 225.26 519.947 226.658Z" fill="#EA9D7D"/>
<path d="M513.044 270.356C513.374 269.194 511.998 266.373 511.16 264.746C516.844 265.614 523.605 261.606 527.127 254.509C527.339 254.623 527.567 254.706 527.802 254.755C527.802 254.755 528.352 269.518 531.555 269.702C535.297 272.91 547.522 283.774 545.031 288.819C542.937 293.042 531.654 290.865 514.824 287.61C513.187 287.356 511.661 286.628 510.433 285.517C506.906 282.152 507.869 276.097 508.34 274.731C509.01 272.951 512.573 272.025 513.044 270.356Z" fill="#EA9D7D"/>
<path d="M528.279 260.632C527.907 257.492 527.802 254.755 527.802 254.755C527.567 254.706 527.339 254.623 527.127 254.509C523.605 261.626 516.844 265.614 511.16 264.766C511.807 265.951 512.355 267.187 512.798 268.461L513.233 268.561C518.356 269.539 524.458 266.441 528.279 260.632Z" fill="#D18165"/>
<path d="M529.613 247.978C530.05 248.277 530.38 248.708 530.555 249.208C530.749 249.721 530.791 250.279 530.676 250.815C530.567 251.351 530.309 251.846 529.932 252.243C529.756 252.434 529.555 252.602 529.336 252.741C529.111 252.87 528.872 252.974 528.624 253.049C528.725 252.823 528.838 252.603 528.964 252.39C529.058 252.17 529.184 251.982 529.257 251.778C529.432 251.403 529.563 251.01 529.65 250.605C529.799 249.735 529.787 248.844 529.613 247.978Z" fill="#D18165"/>
<path d="M531.555 269.702C529.603 269.587 528.64 264.06 528.179 259.758L525.317 261.046L522.862 266.174C522.862 266.174 527.572 267.221 525.317 272.036C523.312 276.374 517.99 286.223 510.297 285.381C511.412 285.998 512.95 286.794 514.824 287.61C527.148 292.974 543.963 294.665 546.412 289.824C548.862 284.983 536.626 274.003 531.555 269.702Z" fill="#D18165"/>
<path d="M505.728 236.219C505.728 236.219 509.01 231.116 509.962 232.257C510.915 233.398 512.741 236.475 518.979 236.146C518.979 236.146 523.166 241.588 524.024 247.978C524.882 254.368 529.55 245.78 529.55 245.78C529.55 245.78 535.516 230.918 529.074 227.38C522.632 223.842 516.174 223.764 509.711 227.38C503.248 230.996 505.728 236.219 505.728 236.219Z" fill="black"/>
<path d="M506.403 257.618C511.637 257.859 512.228 253.84 512.228 253.84C510.128 254.503 507.899 254.656 505.728 254.285C505.728 254.285 507.267 256.032 506.403 257.618Z" fill="#BE3E5F"/>
<path d="M507.869 242.944C508.068 244.023 508.089 245.128 507.932 246.215C507.863 246.794 507.701 247.358 507.45 247.884C507.309 248.182 507.162 248.365 507.031 248.601C506.901 248.836 506.759 249.041 506.644 249.26C506.41 249.636 506.267 250.06 506.226 250.501C506.222 250.578 506.233 250.655 506.259 250.728C506.285 250.801 506.325 250.867 506.377 250.925C506.518 251.069 506.688 251.183 506.874 251.259C507.866 251.559 508.891 251.735 509.926 251.783C508.858 252.146 507.715 252.228 506.608 252.018C506.281 251.939 505.979 251.781 505.728 251.558C505.447 251.295 505.271 250.937 505.236 250.553C505.224 249.919 505.393 249.294 505.723 248.753C505.859 248.502 506.006 248.261 506.158 248.031C506.309 247.8 506.487 247.565 506.587 247.392C506.825 246.96 507.011 246.502 507.141 246.026C507.429 245.053 507.633 244.006 507.869 242.944Z" fill="#D18165"/>
<path d="M511.14 240.793C512.182 240.963 513.212 241.203 514.222 241.51C514.708 241.666 515.182 241.859 515.64 242.086C516.111 242.3 516.535 242.609 517.032 242.881C516.793 242.364 516.435 241.912 515.986 241.562C515.536 241.2 515.023 240.925 514.473 240.751C513.933 240.574 513.367 240.484 512.799 240.484C512.231 240.475 511.667 240.58 511.14 240.793Z" fill="black"/>
<path d="M505.786 239.778C505.325 239.589 504.838 239.475 504.342 239.437C504.247 239.699 504.164 239.961 504.08 240.222C504.591 240.235 505.1 240.288 505.603 240.379C506.126 240.453 506.608 240.62 507.173 240.751C506.793 240.323 506.318 239.989 505.786 239.778Z" fill="black"/>
<path d="M504.561 246.9C504.769 246.94 504.985 246.896 505.161 246.777C505.336 246.658 505.457 246.475 505.498 246.267L505.948 243.964C505.973 243.859 505.977 243.75 505.959 243.644C505.941 243.538 505.901 243.436 505.843 243.345C505.785 243.254 505.709 243.176 505.62 243.116C505.53 243.055 505.43 243.013 505.324 242.992C505.218 242.971 505.109 242.972 505.003 242.995C504.898 243.017 504.798 243.06 504.71 243.122C504.621 243.184 504.546 243.263 504.489 243.355C504.432 243.447 504.395 243.549 504.378 243.655L503.933 245.958C503.892 246.166 503.934 246.383 504.052 246.559C504.17 246.736 504.353 246.858 504.561 246.9Z" fill="black"/>
<path d="M512.626 247.392C512.835 247.432 513.051 247.388 513.227 247.269C513.404 247.151 513.526 246.967 513.568 246.759L514.018 244.456C514.049 244.252 514.001 244.043 513.882 243.874C513.763 243.705 513.584 243.588 513.381 243.548C513.178 243.508 512.968 243.548 512.794 243.66C512.62 243.771 512.496 243.946 512.448 244.147L511.998 246.45C511.958 246.658 512.001 246.873 512.119 247.05C512.236 247.226 512.418 247.349 512.626 247.392Z" fill="black"/>
<path d="M519.147 233.89C520.011 235.156 520.786 236.482 521.465 237.857C522.144 239.216 522.743 240.614 523.26 242.043C524.314 244.888 524.974 247.864 525.222 250.888C525.752 256.94 524.139 262.986 520.664 267.969C522.25 265.447 523.397 262.674 524.055 259.769C524.686 256.876 524.817 253.898 524.443 250.961C524.072 248.04 523.307 245.182 522.166 242.467C521.603 241.112 520.963 239.789 520.251 238.506C519.549 237.233 518.763 236.009 517.896 234.842L519.147 233.89Z" fill="black"/>
<path d="M456.969 329.027L451.563 329.241C451.563 329.241 450.386 328.31 448.795 327.096C445.781 324.793 441.269 321.486 440.343 321.538C438.925 321.627 436.46 322.658 442.593 327.378L442.546 327.42C442.342 327.577 441.395 328.2 438.972 328.346C436.183 328.514 426.789 329.158 425.261 329.728C424.434 330.037 422.576 332.528 436.507 332.041C436.616 332.035 436.726 332.053 436.827 332.094C436.929 332.134 437.02 332.197 437.095 332.276C437.17 332.356 437.226 332.452 437.26 332.556C437.294 332.66 437.305 332.77 437.292 332.878C437.245 333.14 437.057 333.365 436.554 333.402C435.293 333.475 424.402 333.663 424.591 335.626C424.727 337.06 427.579 336.709 437.125 336.291C437.125 336.291 438.642 336.678 437.433 337.458C437.015 337.725 426.224 338.735 425.695 339.593C425.166 340.451 423.78 341.843 439.966 340.074C439.966 340.074 440.254 340.237 438.841 341.058C437.344 341.937 432.917 343.11 431.787 344.758C430.656 346.407 433.943 345.104 442.253 342.309L453.913 340.828C461.622 341.911 490.468 344.376 497.632 336.934C504.347 329.964 507.958 305.037 507.958 305.037L491.541 304.482L484.664 323.087C484.439 323.695 484.053 324.232 483.549 324.64C483.044 325.048 482.439 325.312 481.796 325.405L455.959 329.137" fill="#EA9D7D"/>
<path d="M501.751 304.823L495.905 305.67C495.905 305.67 497.428 325.709 492.028 329.744C486.627 333.779 479.091 337.405 446.812 337.531C436.376 337.573 429.74 338.578 425.528 339.875C425.093 340.681 425.491 341.67 439.966 340.085C439.966 340.085 440.254 340.247 438.841 341.069C437.344 341.948 432.917 343.12 431.787 344.769C430.656 346.417 433.943 345.114 442.253 342.319L453.913 340.838C461.622 341.922 490.468 344.387 497.632 336.945C504.347 329.974 507.958 305.048 507.958 305.048L501.751 304.823Z" fill="#D18165"/>
<path d="M442.426 327.409C442.426 327.409 444.687 335.872 452.416 333.538" stroke="#2F170B" stroke-width="1.83984" stroke-miterlimit="10"/>
<path d="M596.37 412.493H543.576V388.132C543.576 387.115 543.98 386.139 544.699 385.42C545.419 384.7 546.394 384.296 547.412 384.296H592.544C593.561 384.296 594.537 384.7 595.257 385.42C595.976 386.139 596.38 387.115 596.38 388.132V412.493H596.37Z" fill="#FF5061"/>
<path d="M596.375 412.498V406.94L590.634 412.498H596.375Z" fill="#FC7E85"/>
<path d="M543.581 412.498V406.94L549.322 412.498H543.581Z" fill="#FC7E85"/>
<path d="M596.375 388.158V389.555H543.581V388.158C543.581 387.141 543.985 386.165 544.705 385.445C545.424 384.726 546.4 384.322 547.417 384.322H592.534C593.552 384.322 594.528 384.726 595.248 385.445C595.968 386.164 596.374 387.14 596.375 388.158Z" fill="#FC7E85"/>
<path d="M456.676 329.027V340.635" stroke="#2F170B" stroke-width="5.51953" stroke-linecap="round" stroke-linejoin="round"/>
<path d="M489.578 302.939L494.969 286.019C496.184 282.096 498.555 278.63 501.772 276.076C502.593 275.42 503.483 274.855 504.425 274.391C504.507 274.352 504.597 274.335 504.686 274.341C504.776 274.347 504.863 274.376 504.938 274.426C505.013 274.475 505.075 274.543 505.116 274.623C505.157 274.703 505.177 274.793 505.174 274.883L504.179 305.655H491.572C491.245 305.654 490.921 305.576 490.629 305.428C490.337 305.279 490.084 305.064 489.89 304.8C489.696 304.536 489.566 304.23 489.512 303.906C489.458 303.583 489.481 303.252 489.578 302.939Z" fill="#25BEEF"/>
<path d="M504.943 281.419L504.158 305.67H495.906C495.712 299.783 496.152 293.273 499.569 286.04C501.919 281.105 503.269 280.859 503.839 280.89C504.26 280.925 504.653 281.114 504.943 281.419Z" fill="#1A87C4"/>
<path d="M580.544 375.97C580.305 375.027 580.177 374.059 580.162 373.086C580.042 364.938 579.267 333.836 574.573 319.706C573.081 315.19 559.365 292.21 559.365 292.21L539.771 296.355L557.041 325.023C557.809 326.295 558.372 327.68 558.711 329.126L569.235 373.945C569.379 374.56 569.384 375.2 569.249 375.817C569.114 376.435 568.843 377.015 568.455 377.514C566.241 380.355 561.856 386.128 561.929 387.19C562.023 388.608 563.07 391.068 567.754 384.898C567.754 384.898 568.555 385.725 568.743 388.519C568.931 391.314 569.329 402.042 570.213 402.22C571.098 402.398 573.087 404.957 572.427 390.361C572.427 390.361 573.72 389.645 573.804 390.885C573.887 392.125 574.615 404.12 576.106 402.833C577.598 401.545 577.153 399.834 576.692 390.273C576.692 390.273 577.671 389.498 577.859 389.959C578.048 390.419 579.121 401.739 580.068 401.676C581.015 401.613 582.329 403.581 580.46 387.41C580.46 387.41 580.984 387.138 581.575 388.76C582.166 390.382 584.459 397.505 585.197 395.563C585.934 393.622 585.526 393.407 582.679 385.133L580.586 375.938L580.544 375.97Z" fill="#EA9D7D"/>
<path d="M539.771 296.35L544.392 295.371C547.846 299.752 552.138 302.939 557.732 311.124C562.086 317.498 564.907 323.987 566.158 326.735C569.591 334.25 568.895 338.081 571.182 356.628C572.558 367.759 573.244 373.327 573.966 376.237C573.966 376.237 579.142 397.097 576.614 402.262C576.497 402.502 576.315 402.705 576.091 402.848C574.599 404.136 573.877 392.157 573.788 390.901C573.699 389.645 572.412 390.377 572.412 390.377C573.071 404.973 571.077 402.414 570.198 402.236C569.319 402.058 568.916 391.372 568.727 388.551C568.539 385.756 567.738 384.929 567.738 384.929C563.054 391.1 562.008 388.64 561.913 387.222C561.84 386.175 566.226 380.387 568.439 377.545C568.827 377.046 569.099 376.467 569.234 375.849C569.368 375.231 569.364 374.592 569.219 373.976L558.695 329.137C558.356 327.69 557.793 326.306 557.026 325.034L539.771 296.35Z" fill="#D18165"/>
<path d="M505.017 341.336H545.575C546.21 341.336 546.838 341.199 547.416 340.935C547.993 340.67 548.507 340.284 548.921 339.802C549.336 339.32 549.641 338.755 549.817 338.145C549.993 337.534 550.035 336.893 549.94 336.265L540.368 273.093L531.639 269.786C528.117 277.254 516.132 278.719 512.673 271.22L505.184 274.067C503.893 274.382 502.753 275.138 501.96 276.204C501.167 277.27 500.771 278.58 500.841 279.907L500.919 282.262C501.544 301.234 502.165 320.207 502.782 339.18C502.782 339.331 502.824 340.095 505.017 341.336Z" fill="#25BEEF"/>
<path d="M566.838 304.728C567.069 304.569 567.266 304.365 567.417 304.128C567.567 303.891 567.669 303.627 567.715 303.35C567.762 303.073 567.752 302.79 567.687 302.517C567.621 302.244 567.502 301.987 567.335 301.761L552.577 281.267C552.577 281.267 547.344 274.527 540.363 273.093L536.375 293.89L550.479 315.347C550.53 315.426 550.597 315.495 550.676 315.548C550.755 315.601 550.844 315.638 550.937 315.656C551.031 315.674 551.127 315.673 551.219 315.653C551.312 315.633 551.4 315.595 551.478 315.54L566.838 304.728Z" fill="#25BEEF"/>
<path d="M550.479 315.321L536.469 294.037L536.5 293.833C536.559 293.444 536.718 293.077 536.962 292.769C537.205 292.46 537.525 292.22 537.889 292.072C538.253 291.924 538.649 291.874 539.039 291.926C539.429 291.977 539.798 292.13 540.111 292.367C542.78 294.398 546.198 297.899 549.327 301.112C552.598 304.462 556.099 308.057 557.732 311.124L551.452 315.514C551.297 315.617 551.108 315.654 550.926 315.617C550.743 315.581 550.583 315.475 550.479 315.321Z" fill="#1A87C4"/>
<path d="M502.777 339.179C505.854 338.091 513.851 338.054 525.966 334.239C537.338 330.654 539.63 327.744 540.661 325.667C543.094 320.768 541.504 314.556 540.849 312.008C539.677 307.418 539.342 305.67 536.987 299.856C536.197 297.904 535.94 293.178 536.987 292.791C538.207 292.341 541.655 297.6 545.183 304.911L549.934 336.264C550.029 336.892 549.988 337.534 549.812 338.144C549.636 338.755 549.33 339.32 548.916 339.802C548.502 340.283 547.988 340.669 547.411 340.934C546.833 341.199 546.205 341.336 545.57 341.335H505.017C504.437 341.336 503.881 341.111 503.464 340.709C503.047 340.307 502.802 339.758 502.782 339.179H502.777Z" fill="#1A87C4"/>
<path d="M561.076 384.322H567.388C567.692 384.934 567.838 385.612 567.811 386.295C567.811 387.567 566.116 388.838 566.116 388.838C566.116 388.838 562.678 389.498 561.877 389.121C561.076 388.744 561.076 384.322 561.076 384.322Z" fill="#FC7E85"/>
<path d="M535.422 287.636H525.06C524.482 287.636 524.014 288.105 524.014 288.683V291.341C524.014 291.919 524.482 292.388 525.06 292.388H535.422C536 292.388 536.469 291.919 536.469 291.341V288.683C536.469 288.105 536 287.636 535.422 287.636Z" fill="#E3EAF3"/>
<path d="M249.761 472.268C244.067 467.898 229.56 463.372 225.928 455.255C223.971 457.714 212.991 457.018 208.826 456.825C208.826 456.825 207.46 463.628 207.805 468.364C208.151 473.1 208.386 474.471 208.386 474.471L216.116 474.765L215.922 472.729C215.922 472.729 220.412 472.53 223.05 474.791C225.688 477.051 232.868 479.679 240.247 478.632C247.626 477.585 255.46 476.633 249.761 472.268Z" fill="#7C2F13"/>
<path d="M240.242 478.648C232.863 479.695 225.677 477.078 223.045 474.807C220.412 472.536 215.917 472.745 215.917 472.745L216.111 474.781L208.381 474.488C208.381 474.488 208.14 473.143 207.8 468.385C207.69 465.862 207.818 463.333 208.182 460.834C208.486 458.542 208.831 456.846 208.831 456.846C212.992 457.019 223.61 457.657 225.923 455.276C227.038 456.621 229.152 457.893 230.413 459.206C230.816 459.635 231.24 460.049 231.669 460.457C232.041 460.781 232.412 461.101 232.789 461.415C233.276 461.818 233.773 462.215 234.296 462.603C239.53 466.507 246.129 469.516 249.761 472.29C255.455 476.633 247.626 477.607 240.242 478.648Z" fill="#25BEEF"/>
<path d="M208.81 456.83C208.81 456.83 207.444 463.633 207.789 468.37C207.868 469.484 207.941 470.405 208.009 471.175C210.731 471.248 213.918 471.033 212.662 469.49C210.568 466.93 210.532 456.893 210.532 456.893L208.81 456.83Z" fill="#E3EAF3"/>
<path d="M250.928 473.31C250.571 472.927 250.181 472.576 249.761 472.263C247.364 470.421 243.674 468.485 239.927 466.256C236.947 467.099 234.294 468.832 232.323 471.222C230.596 473.389 230.455 476.926 229.989 477.502C231.899 479.506 251.31 477.136 251.681 475.142C251.681 475.142 251.681 475.095 251.681 475.068C251.641 474.413 251.374 473.792 250.928 473.31Z" fill="#E3EAF3"/>
<path d="M240.247 478.648C246.176 477.811 252.383 477.015 251.655 474.462C233.48 480.862 225.394 473.996 223.824 471.845C222.254 469.694 218.942 469.799 218.942 469.799C212.908 470.322 209.496 468.621 207.758 467.245C207.758 467.622 207.758 467.993 207.805 468.344C208.145 473.106 208.386 474.451 208.386 474.451L216.116 474.744L215.922 472.708C215.922 472.708 220.412 472.509 223.05 474.77C225.687 477.031 232.883 479.695 240.247 478.648Z" fill="#7C2F13"/>
<path d="M231.669 460.436C231.34 460.713 230.989 460.986 230.623 461.237C230.153 461.595 229.652 461.911 229.126 462.179C228.559 462.493 227.951 462.727 227.32 462.875C227.49 462.211 227.789 461.587 228.2 461.038C228.583 460.519 229.044 460.062 229.565 459.683C229.828 459.486 230.107 459.311 230.398 459.159C230.816 459.614 231.24 460.028 231.669 460.436Z" fill="#7C2F13"/>
<path d="M234.296 462.587C234.056 462.77 233.82 462.958 233.569 463.11C233.092 463.458 232.592 463.772 232.072 464.052C231.507 464.371 230.899 464.605 230.267 464.748C230.433 464.083 230.732 463.458 231.146 462.911C231.529 462.392 231.99 461.935 232.512 461.556C232.601 461.493 232.695 461.435 232.789 461.378C233.276 461.796 233.773 462.194 234.296 462.587Z" fill="#7C2F13"/>
<path d="M217.23 472.211C211.537 467.846 197.763 464.402 194.131 456.307C192.168 458.766 181.1 456.484 176.934 456.307C176.934 456.307 174.929 463.565 175.275 468.343C175.62 473.121 175.84 474.435 175.84 474.435L183.57 474.723L183.376 472.692C183.376 472.692 187.866 472.493 190.504 474.749C193.141 477.004 200.316 479.637 207.701 478.59C215.085 477.543 222.94 476.575 217.23 472.211Z" fill="#7C2F13"/>
<path d="M207.711 478.59C200.332 479.637 193.147 477.02 190.514 474.749C187.882 472.478 183.386 472.692 183.386 472.692L183.58 474.728L175.84 474.435C175.84 474.435 175.599 473.085 175.259 468.327C175.086 465.946 175.61 463.094 175.908 460.839C176.13 459.304 176.469 457.789 176.923 456.307C181.11 456.484 191.289 457.044 194.115 456.307C195.531 457.006 196.805 457.963 197.872 459.127C198.275 459.556 198.699 459.975 199.128 460.378C199.557 460.781 199.871 461.022 200.248 461.336C200.735 461.739 201.232 462.136 201.755 462.529C206.989 466.428 213.588 469.437 217.22 472.211C222.94 476.575 215.09 477.549 207.711 478.59Z" fill="#25BEEF"/>
<path d="M176.934 456.307C176.934 456.307 174.929 463.565 175.275 468.343C175.353 469.458 175.427 470.379 175.495 471.143C178.216 471.216 181.403 471.002 180.147 469.458C178.054 466.899 178.017 456.861 178.017 456.861C177.358 456.83 177.41 456.307 176.934 456.307Z" fill="#E3EAF3"/>
<path d="M218.398 473.258C218.041 472.874 217.651 472.524 217.231 472.211C214.834 470.374 211.144 468.438 207.397 466.203C204.416 467.049 201.764 468.783 199.793 471.175C198.066 473.336 197.925 476.874 197.459 477.455C199.369 479.459 218.78 477.088 219.151 475.095C219.151 475.095 219.151 475.047 219.151 475.026C219.114 474.367 218.847 473.741 218.398 473.258Z" fill="#E3EAF3"/>
<path d="M207.716 478.59C213.646 477.753 219.852 476.958 219.125 474.404C200.95 480.809 192.864 473.943 191.294 471.787C189.724 469.631 186.411 469.741 186.411 469.741C180.377 470.264 176.965 468.563 175.228 467.192C175.228 467.564 175.228 467.935 175.275 468.291C175.615 473.048 175.856 474.399 175.856 474.399L183.585 474.686L183.392 472.656C183.392 472.656 187.882 472.457 190.52 474.713C193.157 476.968 200.332 479.637 207.716 478.59Z" fill="#7C2F13"/>
<path d="M199.139 460.378C198.809 460.661 198.459 460.928 198.092 461.184C197.621 461.539 197.121 461.853 196.596 462.121C196.031 462.44 195.423 462.674 194.79 462.817C194.961 462.155 195.259 461.533 195.669 460.985C196.051 460.465 196.512 460.008 197.035 459.63C197.299 459.436 197.578 459.261 197.867 459.107C198.286 459.557 198.71 459.97 199.139 460.378Z" fill="#7C2F13"/>
<path d="M201.766 462.529C201.525 462.712 201.29 462.895 201.039 463.052C200.56 463.397 200.06 463.709 199.542 463.989C198.977 464.308 198.369 464.542 197.736 464.685C197.902 464.021 198.201 463.398 198.616 462.854C198.998 462.334 199.458 461.876 199.981 461.498C200.071 461.432 200.163 461.371 200.259 461.315C200.745 461.739 201.243 462.137 201.766 462.529Z" fill="#7C2F13"/>
<path d="M173.427 340.367C170.601 333.225 169.549 325.503 170.361 317.864C170.898 313.01 172.192 308.271 174.197 303.818C174.197 303.818 210.731 309.234 220.951 304.127C220.951 304.127 229.121 376.624 229.377 383.009C229.633 389.393 225.928 455.82 225.928 455.82C225.928 455.82 215.985 459.824 208.852 457.097C208.852 457.097 203.231 406.171 204.084 393.25L203.619 384.448C203.336 390.833 194.073 456.71 194.073 456.71C194.073 456.71 183.852 459.85 176.955 456.553C176.955 456.553 175.625 405.339 177.557 392.512L177.75 367.916L173.427 340.367Z" fill="#EF3E3B"/>
<path d="M202.807 360.804C204.173 345.104 206.994 330.053 207.915 330.152C208.622 330.225 207.915 338.034 207.659 355.953C207.47 370.569 207.763 380.382 208.182 394.271C208.983 421.385 210.071 426.032 211.233 429.784C214.278 439.394 219.286 448.267 225.939 455.841C222.589 457.348 217.157 459.086 211.092 457.746C210.338 457.578 209.593 457.368 208.862 457.118C208.862 457.118 203.242 406.193 204.095 393.271L202.279 369.533C202.342 367.131 202.483 364.509 202.807 360.804Z" fill="#C82833"/>
<path d="M170.361 317.886C170.898 313.032 172.192 308.292 174.197 303.839C174.197 303.839 210.731 309.256 220.946 304.148C221.339 307.126 192.864 307.717 183.198 325.552C180.801 329.98 181.382 379.979 180.801 393.853C179.666 420.951 180.419 425.666 181.325 429.486C183.672 439.275 188.025 448.471 194.11 456.49V456.537C193.403 456.794 192.613 457.061 191.749 457.291C189.002 457.872 184.276 458.547 180.001 457.584C179.734 457.516 179.477 457.448 179.195 457.37C178.504 457.161 177.825 456.918 177.159 456.642L176.892 456.501C176.892 456.448 176.955 454.931 176.866 452.241C176.594 439.639 175.976 403.048 177.567 392.513L177.761 367.916L177.237 364.41V364.363L173.48 340.394C170.635 333.254 169.564 325.53 170.361 317.886Z" fill="#C82833"/>
<path d="M199.432 311.636C191.31 311.636 180.592 310.977 172.522 308.088L172.873 307.099C186.275 311.903 207.229 310.448 210.689 310.166L210.563 306.173L211.61 306.141L211.767 311.118L211.28 311.165C211.17 311.176 206.193 311.636 199.432 311.636Z" fill="#7C2F13"/>
<path d="M211.275 311.165L211.181 310.119C214.606 309.789 218.002 309.201 221.339 308.36L221.616 309.365C218.219 310.224 214.762 310.826 211.275 311.165Z" fill="#7C2F13"/>
<path d="M208.355 330.435L207.476 329.864C211.139 324.244 209.726 310.92 209.715 310.789L210.762 310.674C210.814 311.234 212.217 324.5 208.355 330.435Z" fill="#7C2F13"/>
<path d="M176.395 330.66L176.138 329.644C182.638 327.991 190.64 317.247 190.718 317.137L191.561 317.759C191.226 318.215 183.256 328.917 176.395 330.66Z" fill="#7C2F13"/>
<path d="M208.632 309.773C210.652 309.773 210.657 306.633 208.632 306.633C206.607 306.633 206.612 309.773 208.632 309.773Z" fill="#7C2F13"/>
<path d="M187.008 456.862L185.961 456.815C185.961 456.37 187.987 412.101 189.101 390.221C190.588 361.301 184.145 325.217 184.083 324.856L185.129 324.673C185.197 325.034 191.655 361.233 190.164 390.278C189.033 412.148 187.029 456.417 187.008 456.862Z" fill="#7C2F13"/>
<path d="M192.712 206.677C192.712 206.677 194.021 222.534 200.296 229.41C206.57 236.287 200.437 206.153 200.437 206.153L192.712 206.677Z" fill="#000001"/>
<path d="M212.855 237.093C212.531 235.931 213.902 233.11 214.739 231.483C209.061 232.351 202.3 228.343 198.778 221.246C198.564 221.36 198.335 221.441 198.097 221.487C198.097 221.487 197.574 236.255 194.35 236.433C190.608 239.647 178.383 250.511 180.869 255.551C182.963 259.779 194.246 257.597 211.076 254.347C212.713 254.094 214.239 253.366 215.467 252.254C218.999 248.883 218.031 242.834 217.534 241.468C216.89 239.683 213.332 238.762 212.855 237.093Z" fill="#EA9D7D"/>
<path d="M200.583 238.773C198.354 233.937 203.038 232.911 203.038 232.911L203.006 232.843C206.104 234.937 209.564 235.842 212.672 235.235C212.819 235.209 212.96 235.172 213.101 235.136C213.548 233.862 214.096 232.627 214.739 231.441C209.061 232.315 202.624 227.929 199.102 220.828C199.017 221.021 198.875 221.183 198.696 221.294C198.517 221.406 198.308 221.46 198.097 221.45C198.097 221.45 197.998 224.198 197.621 227.333C197.129 231.477 196.166 236.329 194.345 236.428C189.269 240.735 177.028 251.694 179.482 256.55C181.937 261.407 198.746 259.69 211.071 254.342C212.95 253.525 214.483 252.73 215.598 252.113C207.905 252.96 202.588 243.111 200.583 238.773Z" fill="#D18165"/>
<path d="M205.953 193.389C199.463 194.656 195.486 202.919 196.402 212.512H196.349C194.575 212.857 193.529 215.128 194.015 217.625C194.502 220.121 196.328 221.811 198.097 221.482C198.299 221.473 198.496 221.422 198.676 221.332C198.857 221.242 199.016 221.114 199.144 220.958C202.744 228.217 209.359 232.529 215.121 231.425C222.265 230.033 224.793 221.215 222.689 210.418C220.585 199.622 213.096 192.023 205.953 193.389Z" fill="#EA9D7D"/>
<path d="M196.287 214.715C196.114 215.577 196.102 216.464 196.25 217.332C196.336 217.737 196.469 218.13 196.648 218.504C196.721 218.708 196.847 218.896 196.941 219.116C197.035 219.336 197.176 219.524 197.276 219.775C197.029 219.701 196.792 219.597 196.569 219.467C196.35 219.325 196.148 219.158 195.967 218.97C195.591 218.572 195.334 218.077 195.224 217.541C195.114 217.004 195.156 216.448 195.345 215.934C195.525 215.44 195.854 215.014 196.287 214.715Z" fill="#D18165"/>
<path d="M212.887 223.319C214.794 223.887 216.66 224.586 218.471 225.412C218.471 225.412 218.9 222.628 216.697 221.775C214.493 220.922 212.887 223.319 212.887 223.319Z" fill="#BE3E5F"/>
<path d="M218.026 209.743C218.262 210.79 218.466 211.837 218.753 212.847C218.883 213.321 219.07 213.778 219.308 214.207C219.408 214.385 219.591 214.626 219.732 214.851C219.873 215.076 220.03 215.317 220.172 215.568C220.499 216.11 220.666 216.735 220.653 217.368C220.62 217.752 220.446 218.109 220.166 218.373C219.916 218.6 219.611 218.758 219.282 218.834C218.174 219.045 217.031 218.964 215.964 218.598C217.001 218.553 218.028 218.377 219.02 218.075C219.207 217.998 219.376 217.884 219.518 217.74C219.621 217.624 219.673 217.471 219.664 217.316C219.622 216.877 219.479 216.454 219.245 216.081C219.13 215.861 218.999 215.641 218.863 215.421C218.727 215.202 218.586 214.998 218.439 214.699C218.191 214.174 218.029 213.612 217.958 213.035C217.803 211.941 217.826 210.83 218.026 209.743Z" fill="#D18165"/>
<path d="M209.087 208.111C210.125 208.292 211.174 208.404 212.227 208.446C212.738 208.459 213.249 208.432 213.756 208.367C214.279 208.315 214.771 208.179 215.326 208.074C214.925 208.483 214.434 208.791 213.892 208.974C213.349 209.166 212.777 209.259 212.201 209.246C211.632 209.232 211.069 209.13 210.532 208.943C210 208.763 209.51 208.48 209.087 208.111Z" fill="#000001"/>
<path d="M222.119 208.278C221.977 208.325 221.831 208.362 221.684 208.398C221.41 208.459 221.132 208.499 220.852 208.519C220.565 208.542 220.276 208.542 219.989 208.519C219.423 208.477 218.872 208.324 218.366 208.069C219.141 207.99 219.873 207.922 220.58 207.802C220.894 207.755 221.197 207.692 221.501 207.618C221.637 207.592 221.768 207.561 221.899 207.524C221.977 207.77 222.05 208.021 222.119 208.278Z" fill="#000001"/>
<path d="M221.333 213.7C221.23 213.72 221.123 213.72 221.02 213.699C220.917 213.679 220.818 213.638 220.731 213.579C220.643 213.52 220.568 213.444 220.51 213.356C220.452 213.269 220.411 213.17 220.391 213.066L219.941 210.764C219.913 210.561 219.964 210.355 220.084 210.188C220.203 210.022 220.381 209.907 220.583 209.868C220.784 209.829 220.992 209.869 221.165 209.979C221.338 210.089 221.462 210.261 221.511 210.46L221.961 212.763C222.001 212.97 221.958 213.185 221.84 213.361C221.723 213.536 221.54 213.658 221.333 213.7Z" fill="#000001"/>
<path d="M213.264 214.192C213.16 214.213 213.054 214.213 212.951 214.193C212.847 214.172 212.749 214.131 212.662 214.072C212.575 214.013 212.5 213.937 212.442 213.849C212.385 213.761 212.346 213.662 212.327 213.558L211.877 211.261C211.852 211.156 211.848 211.047 211.866 210.941C211.884 210.834 211.923 210.733 211.982 210.642C212.04 210.551 212.116 210.473 212.205 210.412C212.294 210.352 212.395 210.31 212.501 210.289C212.607 210.268 212.716 210.269 212.821 210.291C212.927 210.314 213.027 210.357 213.115 210.419C213.203 210.481 213.278 210.56 213.335 210.652C213.392 210.743 213.43 210.845 213.447 210.952L213.892 213.255C213.912 213.358 213.912 213.463 213.892 213.566C213.871 213.669 213.831 213.767 213.772 213.854C213.714 213.941 213.639 214.015 213.552 214.073C213.464 214.131 213.366 214.171 213.264 214.192Z" fill="#000001"/>
<path d="M207.481 216.018C207.481 216.018 220.397 215.202 223.374 216.018C223.374 216.018 224.468 229.358 215.927 231.257C207.387 233.157 202.41 226.547 202.41 226.547L207.481 216.018Z" fill="#69BAEF"/>
<path d="M198.056 221.529C198.723 221.926 199.355 222.38 199.945 222.884C200.531 223.378 201.092 223.902 201.625 224.454C202.159 224.999 202.664 225.572 203.137 226.171C203.628 226.771 204.064 227.414 204.44 228.091C203.772 227.699 203.139 227.247 202.551 226.741C201.38 225.759 200.311 224.661 199.359 223.465C198.867 222.86 198.431 222.212 198.056 221.529Z" fill="#69BAEF"/>
<path d="M198.343 212.956C199.423 213.148 200.489 213.409 201.536 213.736C202.582 214.055 203.629 214.401 204.623 214.783C205.618 215.165 206.638 215.589 207.627 216.049C208.626 216.51 209.595 217.034 210.526 217.619C209.447 217.427 208.381 217.167 207.334 216.84C206.287 216.52 205.241 216.175 204.246 215.793C203.252 215.411 202.232 214.982 201.243 214.526C200.244 214.065 199.276 213.54 198.343 212.956Z" fill="#69BAEF"/>
<path d="M214.698 217.588C215.288 217.233 215.928 216.969 216.597 216.803C217.258 216.624 217.938 216.521 218.623 216.494C219.315 216.459 220.009 216.521 220.684 216.678C221.374 216.824 222.017 217.137 222.558 217.588C221.862 217.52 221.223 217.499 220.585 217.489C219.947 217.478 219.303 217.525 218.664 217.541C217.372 217.578 216.084 217.667 214.698 217.588Z" fill="white"/>
<path d="M215.927 231.273C217.365 230.968 218.685 230.254 219.727 229.217C217.586 228.63 214.268 228.411 211.725 225.517C210.408 224.037 209.556 222.202 209.276 220.241C209.135 218.765 209.333 217.275 209.857 215.887C208.438 215.96 207.507 216.018 207.507 216.018L202.436 226.532C202.436 226.532 207.392 233.162 215.927 231.273Z" fill="#396E8E"/>
<path d="M221.067 204.908C221.067 204.908 216.88 200.041 203.247 202.568C203.247 202.568 205.393 207.069 203.441 208.095C201.489 209.121 201.023 209.398 201.871 212.093C202.718 214.788 204.278 217.562 202.017 216.714C199.756 215.866 195.957 209.471 194.759 214.359C193.597 219.095 196.329 220.639 196.067 221.33C196.051 221.364 196.028 221.395 195.999 221.419C195.97 221.443 195.936 221.461 195.899 221.471C195.025 221.738 191.577 216.322 190.755 211.209C189.646 204.301 192.995 195.87 199.353 192.505C201.116 191.606 203.035 191.051 205.005 190.872C216.236 189.349 228.896 195.875 228.493 200.166C228.362 201.548 226.818 203.259 221.067 204.908Z" fill="#000001"/>
<path d="M233.899 269.927L240.775 288.526C241 289.136 241.384 289.673 241.889 290.082C242.394 290.492 243 290.757 243.643 290.85L269.459 294.597C270.427 294.74 271.414 294.674 272.354 294.403C273.293 294.132 274.164 293.663 274.907 293.027C277.764 290.551 282.354 286.705 283.317 286.705C284.735 286.705 287.263 287.589 281.423 292.676C281.423 292.676 282.296 293.419 285.086 293.419C287.875 293.419 298.619 293.1 298.855 293.942C299.09 294.785 301.775 296.627 287.174 296.941C287.174 296.941 286.541 298.286 287.802 298.286C289.063 298.286 301.068 298.208 299.881 299.783C298.693 301.358 296.96 301.049 287.409 301.206C287.409 301.206 286.698 302.253 287.174 302.389C287.65 302.525 299.012 302.865 299.012 303.812C299.012 304.76 301.068 305.942 284.803 305.152C284.803 305.152 284.568 305.707 286.227 306.199C287.886 306.691 295.123 308.491 293.25 309.339C291.376 310.187 291.12 309.81 282.673 307.523L275.31 306.335C274.055 306.13 272.775 306.116 271.516 306.293C263.807 307.376 234.961 309.841 227.797 302.394C221.082 295.423 217.471 270.497 217.471 270.497L233.899 269.927Z" fill="#EA9D7D"/>
<path d="M299.022 303.792C299.022 302.844 287.655 302.525 287.184 302.368C286.713 302.211 287.42 301.186 287.42 301.186C294.71 301.065 297.447 301.217 298.86 300.599C295.39 299.527 288.875 300.793 277.576 301.976C257.051 304.132 251.053 302.824 248.688 302.227C242.178 300.589 235.976 298.836 232.109 293.435C227.399 286.862 229.372 279.2 229.539 270.073L217.502 270.476C217.502 270.476 221.113 295.403 227.828 302.373C234.987 309.81 263.781 307.361 271.521 306.278C272.789 306.099 274.077 306.111 275.341 306.314L282.705 307.502C291.151 309.789 291.387 310.182 293.281 309.318C295.176 308.455 287.917 306.633 286.258 306.178C284.599 305.723 284.835 305.131 284.835 305.131C301.079 305.922 299.022 304.739 299.022 303.792Z" fill="#D18165"/>
<path d="M281.422 292.629C281.422 292.629 281.067 301.384 273.012 300.787" stroke="#2F170B" stroke-width="1.83984" stroke-miterlimit="10"/>
<path d="M268.742 294.471V306.084" stroke="#2F170B" stroke-width="5.51953" stroke-linecap="round" stroke-linejoin="round"/>
<path d="M244.177 288.672C243.586 288.479 243.049 288.149 242.612 287.707C242.174 287.266 241.847 286.727 241.66 286.134L230.45 251.463C229.232 247.541 226.861 244.076 223.646 241.52C222.823 240.868 221.934 240.303 220.993 239.835C220.912 239.796 220.822 239.779 220.732 239.785C220.642 239.791 220.555 239.82 220.48 239.87C220.405 239.919 220.344 239.987 220.303 240.067C220.261 240.147 220.241 240.237 220.245 240.327L221.244 271.104L222.066 293.21C222.215 297.176 223.895 300.93 226.753 303.684C229.611 306.438 233.425 307.977 237.394 307.978H266.91L266.157 293.157C266.769 293.173 250.153 290.582 244.177 288.672Z" fill="#25BEEF"/>
<path d="M266.67 302.881C243.79 305.372 235.631 300.667 232.486 295.748C228.906 290.153 229.042 279.954 229.189 268.807C229.189 268.807 229.314 259.355 225.829 251.484C225.201 250.077 223.484 246.251 221.558 246.335C221.146 246.374 220.762 246.56 220.475 246.858L221.265 271.109L222.087 293.215C222.236 297.181 223.916 300.935 226.774 303.689C229.632 306.443 233.446 307.982 237.415 307.983H266.931L266.67 302.881Z" fill="#1A87C4"/>
<path d="M220.407 306.785H173.951C173.743 306.785 173.538 306.74 173.351 306.652C173.163 306.564 172.997 306.436 172.864 306.277C172.732 306.117 172.636 305.93 172.584 305.73C172.532 305.529 172.525 305.319 172.564 305.115L185.061 238.542L194.921 236.355C198.443 243.828 209.291 244.163 212.751 236.669L220.24 239.516C221.531 239.829 222.673 240.584 223.466 241.651C224.26 242.718 224.655 244.029 224.583 245.356L224.505 247.711C223.884 266.684 223.263 285.656 222.642 304.629C222.636 304.781 222.595 305.545 220.407 306.785Z" fill="#25BEEF"/>
<path d="M144.874 341.419C145.114 340.476 145.242 339.509 145.256 338.536C145.377 330.388 146.151 299.286 150.846 285.156C152.337 280.645 166.054 257.665 166.054 257.665L185.647 261.805L168.377 290.478C167.611 291.751 167.048 293.135 166.708 294.581L156.184 339.399C156.039 340.015 156.034 340.655 156.169 341.272C156.304 341.89 156.575 342.469 156.963 342.968C159.177 345.81 163.563 351.583 163.489 352.645C163.395 354.058 162.348 356.523 157.665 350.353C157.665 350.353 156.864 351.18 156.675 353.974C156.487 356.769 156.089 367.497 155.205 367.675C154.32 367.853 152.332 370.407 152.996 355.816C152.996 355.816 151.699 355.099 151.615 356.34C151.531 357.58 150.809 369.58 149.312 368.293C147.815 367.005 148.266 365.294 148.726 355.733C148.726 355.733 147.747 354.953 147.559 355.419C147.371 355.884 146.298 367.199 145.351 367.136C144.403 367.073 143.09 369.041 144.963 352.87C144.963 352.87 144.44 352.598 143.843 354.22C143.247 355.842 140.965 362.965 140.222 361.023C139.479 359.082 139.892 358.867 142.739 350.588L144.859 341.398L144.874 341.419Z" fill="#EA9D7D"/>
<path d="M185.647 261.794L181.026 260.821C177.572 265.201 173.281 268.383 167.686 276.568C163.332 282.947 160.512 289.437 159.261 292.179C155.828 299.699 156.524 303.53 154.237 322.072C152.86 333.208 152.175 338.777 151.453 341.686C151.453 341.686 146.277 362.546 148.805 367.712C148.922 367.951 149.103 368.154 149.328 368.298C150.825 369.585 151.547 357.606 151.631 356.345C151.714 355.084 153.012 355.821 153.012 355.821C152.348 370.412 154.341 367.858 155.221 367.68C156.1 367.502 156.503 356.816 156.691 353.995C156.88 351.2 157.68 350.374 157.68 350.374C162.364 356.544 163.411 354.079 163.505 352.666C163.578 351.619 159.193 345.831 156.979 342.989C156.591 342.49 156.32 341.911 156.185 341.293C156.05 340.676 156.055 340.036 156.199 339.42L166.724 294.597C167.064 293.151 167.627 291.767 168.393 290.494L185.647 261.794Z" fill="#D18165"/>
<path d="M145.319 338.138C144.991 338.14 144.675 338.016 144.436 337.792C144.196 337.569 144.052 337.261 144.032 336.934C143.634 330.654 144.555 301.599 148.108 287.082C150.725 276.468 169.445 248.988 169.445 248.988C169.445 248.988 178.059 239.976 185.061 238.521L189.049 259.319L168.9 292.608C168.707 292.901 160.674 329.283 158.753 336.777C158.657 337.169 158.432 337.516 158.114 337.763C157.795 338.01 157.403 338.142 157 338.138H145.319Z" fill="#25BEEF"/>
<path d="M174.94 280.77L188.95 259.481L188.918 259.282C188.859 258.893 188.7 258.527 188.457 258.218C188.213 257.909 187.894 257.669 187.53 257.522C187.165 257.374 186.769 257.323 186.379 257.375C185.99 257.427 185.62 257.579 185.307 257.817C182.638 259.847 179.221 263.348 176.091 266.556C172.82 269.906 169.319 273.506 167.687 276.568L173.967 280.964C174.122 281.066 174.311 281.103 174.493 281.067C174.675 281.03 174.836 280.924 174.94 280.77Z" fill="#1A87C4"/>
<path d="M222.642 304.629C219.565 303.54 211.568 303.504 199.453 299.683C188.081 296.104 185.789 293.194 184.758 291.111C182.324 286.218 183.915 280.006 184.569 277.452C185.742 272.868 186.076 271.12 188.431 265.3C189.222 263.348 189.478 258.623 188.431 258.235C187.212 257.79 182.413 263.285 178.886 270.596L172.606 305.074C172.56 305.279 172.562 305.493 172.61 305.698C172.658 305.903 172.751 306.095 172.884 306.259C173.016 306.424 173.183 306.556 173.373 306.647C173.563 306.738 173.771 306.785 173.982 306.785H220.386C220.966 306.787 221.523 306.562 221.941 306.16C222.358 305.757 222.602 305.208 222.621 304.629H222.642Z" fill="#1A87C4"/>
<path d="M157 338.138C157.396 338.138 157.782 338.007 158.096 337.765C158.409 337.522 158.633 337.182 158.732 336.798C160.653 329.304 168.675 292.922 168.88 292.629L181.963 270.973L183.324 264.369L167.624 276.567C167.624 276.567 161.302 284.344 159.606 294.471C157.91 304.597 152.075 338.101 152.07 338.138H157Z" fill="#1A87C4"/>
<path d="M529.221 327.87H253.995V481.248H529.221V327.87Z" fill="#CC7829"/>
<path d="M529.216 327.87H467.672V481.248H529.216V327.87Z" fill="#A04833"/>
<path d="M546.779 313.128H236.437V327.87H546.779V313.128Z" fill="#895237"/>
<path d="M546.779 313.128H236.437V327.87H546.779V313.128Z" fill="#A04833"/>
<path d="M546.773 313.128H450.402V327.87H546.773V313.128Z" fill="#843A2C"/>
<path d="M421.095 365.194H297.588V402.351H421.095V365.194Z" fill="#E3EAF3"/>
<path d="M463.862 232.922H368.5C367.315 232.922 366.354 233.882 366.354 235.067V295.277C366.354 296.462 367.315 297.423 368.5 297.423H463.862C465.047 297.423 466.007 296.462 466.007 295.277V235.067C466.007 233.882 465.047 232.922 463.862 232.922Z" fill="#9D9F9F"/>
<path d="M465.296 232.922H455.949C455.559 232.922 455.242 233.238 455.242 233.628V296.716C455.242 297.106 455.559 297.422 455.949 297.422H465.296C465.686 297.422 466.002 297.106 466.002 296.716V233.628C466.002 233.238 465.686 232.922 465.296 232.922Z" fill="#454851"/>
<path d="M408.31 282.293H424.052C424.239 282.293 424.425 282.33 424.598 282.402C424.772 282.474 424.929 282.579 425.062 282.711C425.195 282.844 425.3 283.002 425.372 283.175C425.443 283.348 425.48 283.534 425.48 283.722V306.11H406.881V283.727C406.88 283.539 406.917 283.352 406.988 283.179C407.06 283.005 407.165 282.846 407.298 282.713C407.43 282.58 407.588 282.474 407.762 282.402C407.936 282.33 408.122 282.293 408.31 282.293Z" fill="#E3EAF3"/>
<path d="M420.456 282.293H424.68C424.888 282.296 425.088 282.38 425.236 282.527C425.383 282.675 425.467 282.874 425.47 283.083V306.11H419.656V283.083C419.659 282.873 419.744 282.672 419.894 282.524C420.044 282.376 420.246 282.293 420.456 282.293Z" fill="#ABBCCA"/>
<path d="M393.751 306.11H438.606C438.887 306.11 439.166 306.166 439.427 306.273C439.687 306.381 439.924 306.539 440.123 306.739C440.322 306.938 440.48 307.174 440.588 307.435C440.696 307.695 440.751 307.974 440.751 308.256V313.107H391.605V308.256C391.605 307.974 391.661 307.695 391.768 307.435C391.876 307.174 392.034 306.938 392.233 306.739C392.433 306.539 392.669 306.381 392.93 306.273C393.19 306.166 393.469 306.11 393.751 306.11Z" fill="#9D9F9F"/>
<path d="M434.592 306.11H439.94C440.154 306.11 440.359 306.195 440.51 306.346C440.661 306.497 440.746 306.702 440.746 306.916V313.123H433.786V306.937C433.783 306.829 433.802 306.722 433.841 306.622C433.88 306.522 433.939 306.431 434.014 306.354C434.089 306.276 434.179 306.215 434.278 306.173C434.377 306.132 434.484 306.11 434.592 306.11Z" fill="#454851"/>
<path d="M421.707 262.856H410.644C409.364 262.856 408.326 263.893 408.326 265.172C408.326 266.451 409.364 267.488 410.644 267.488H421.707C422.988 267.488 424.026 266.451 424.026 265.172C424.026 263.893 422.988 262.856 421.707 262.856Z" fill="#E3EAF3"/>
</g>
</g>
<defs>
<filter id="filter0_i_10_1851" x="31.625" y="58.7495" width="564.755" height="426.505" filterUnits="userSpaceOnUse" color-interpolation-filters="sRGB">
<feFlood flood-opacity="0" result="BackgroundImageFix"/>
<feBlend mode="normal" in="SourceGraphic" in2="BackgroundImageFix" result="shape"/>
<feColorMatrix in="SourceAlpha" type="matrix" values="0 0 0 0 0 0 0 0 0 0 0 0 0 0 0 0 0 0 127 0" result="hardAlpha"/>
<feOffset dy="4"/>
<feGaussianBlur stdDeviation="2"/>
<feComposite in2="hardAlpha" operator="arithmetic" k2="-1" k3="1"/>
<feColorMatrix type="matrix" values="0 0 0 0 0 0 0 0 0 0 0 0 0 0 0 0 0 0 0.25 0"/>
<feBlend mode="normal" in2="shape" result="effect1_innerShadow_10_1851"/>
</filter>
<clipPath id="clip0_10_1851">
<rect width="628" height="505" fill="white" transform="translate(0 0.5)"/>
</clipPath>
</defs>
</svg>
