<svg width="628" height="472" viewBox="0 0 628 472" fill="none" xmlns="http://www.w3.org/2000/svg">
<g filter="url(#filter0_i_10_743)">
<path d="M421.608 33.6846C437.109 38.1905 506.388 60.3222 535.93 119.956C577.409 203.627 507.194 293.446 487.935 318.085C443.787 374.573 325.717 479.873 208.187 437.415C114.06 403.399 75.4228 288.265 93.5354 206.719C123.376 72.3013 298.619 -2.07479 421.608 33.6846Z" fill="#EFF5F9"/>
<path d="M517.66 249.941H485.794C485.216 249.941 484.748 250.41 484.748 250.988V264.035C484.748 264.613 485.216 265.081 485.794 265.081H517.66C518.238 265.081 518.707 264.613 518.707 264.035V250.988C518.707 250.41 518.238 249.941 517.66 249.941Z" stroke="#C9EFFB" stroke-width="1.83984" stroke-miterlimit="10"/>
<path d="M517.66 280.164H485.794C485.216 280.164 484.748 280.632 484.748 281.21V294.257C484.748 294.835 485.216 295.304 485.794 295.304H517.66C518.238 295.304 518.707 294.835 518.707 294.257V281.21C518.707 280.632 518.238 280.164 517.66 280.164Z" stroke="#C9EFFB" stroke-width="1.83984" stroke-miterlimit="10"/>
<path d="M534.642 265.081H502.777C502.199 265.081 501.73 265.55 501.73 266.128V279.175C501.73 279.753 502.199 280.221 502.777 280.221H534.642C535.22 280.221 535.689 279.753 535.689 279.175V266.128C535.689 265.55 535.22 265.081 534.642 265.081Z" fill="#C9EFFB"/>
<path d="M500.683 265.081H468.818C468.24 265.081 467.771 265.55 467.771 266.128V279.175C467.771 279.753 468.24 280.221 468.818 280.221H500.683C501.261 280.221 501.73 279.753 501.73 279.175V266.128C501.73 265.55 501.261 265.081 500.683 265.081Z" fill="#C9EFFB"/>
<path d="M145.162 324.773H113.296C112.718 324.773 112.25 325.242 112.25 325.82V338.866C112.25 339.444 112.718 339.913 113.296 339.913H145.162C145.74 339.913 146.209 339.444 146.209 338.866V325.82C146.209 325.242 145.74 324.773 145.162 324.773Z" stroke="#C9EFFB" stroke-width="1.83984" stroke-miterlimit="10"/>
<path d="M162.139 355.001H130.273C129.695 355.001 129.227 355.469 129.227 356.047V369.094C129.227 369.672 129.695 370.141 130.273 370.141H162.139C162.717 370.141 163.186 369.672 163.186 369.094V356.047C163.186 355.469 162.717 355.001 162.139 355.001Z" stroke="#C9EFFB" stroke-width="1.83984" stroke-miterlimit="10"/>
<path d="M169.199 339.913H137.333C136.755 339.913 136.286 340.382 136.286 340.96V354.006C136.286 354.585 136.755 355.053 137.333 355.053H169.199C169.777 355.053 170.245 354.585 170.245 354.006V340.96C170.245 340.382 169.777 339.913 169.199 339.913Z" fill="#C9EFFB"/>
<path d="M135.24 339.913H103.374C102.796 339.913 102.327 340.382 102.327 340.96V354.006C102.327 354.585 102.796 355.053 103.374 355.053H135.24C135.818 355.053 136.286 354.585 136.286 354.006V340.96C136.286 340.382 135.818 339.913 135.24 339.913Z" fill="#C9EFFB"/>
<path d="M342.668 123.064H310.802C310.224 123.064 309.756 123.533 309.756 124.111V137.158C309.756 137.736 310.224 138.204 310.802 138.204H342.668C343.246 138.204 343.715 137.736 343.715 137.158V124.111C343.715 123.533 343.246 123.064 342.668 123.064Z" fill="#C9EFFB"/>
<path d="M354.14 153.345H322.274C321.696 153.345 321.227 153.813 321.227 154.391V167.438C321.227 168.016 321.696 168.485 322.274 168.485H354.14C354.718 168.485 355.186 168.016 355.186 167.438V154.391C355.186 153.813 354.718 153.345 354.14 153.345Z" fill="#C9EFFB"/>
<path d="M366.7 138.205H334.834C334.256 138.205 333.787 138.673 333.787 139.251V152.298C333.787 152.876 334.256 153.345 334.834 153.345H366.7C367.278 153.345 367.746 152.876 367.746 152.298V139.251C367.746 138.673 367.278 138.205 366.7 138.205Z" stroke="#C9EFFB" stroke-width="1.83984" stroke-miterlimit="10"/>
<path d="M332.746 138.205H300.88C300.302 138.205 299.833 138.673 299.833 139.251V152.298C299.833 152.876 300.302 153.345 300.88 153.345H332.746C333.324 153.345 333.792 152.876 333.792 152.298V139.251C333.792 138.673 333.324 138.205 332.746 138.205Z" stroke="#C9EFFB" stroke-width="1.83984" stroke-miterlimit="10"/>
<path d="M320.74 57.0045H82.6028V240.129H320.74V57.0045Z" fill="#C9EFFB"/>
<path d="M320.74 181.165C314.152 179.36 302.874 177.408 282.296 175.246C224.264 169.16 213.154 174.105 193.372 163.942C169.298 151.571 157.309 129.612 153.431 122.494C138.851 95.7467 141.823 73.5155 139.05 57.02H82.6028V240.129H320.719L320.74 181.165Z" fill="#A8E5F9"/>
<path d="M322.222 53.6864H81.6033C81.2088 53.6864 80.8182 53.7641 80.4537 53.9151C80.0893 54.066 79.7581 54.2873 79.4792 54.5662C79.2003 54.8452 78.979 55.1763 78.828 55.5408C78.6771 55.9052 78.5994 56.2959 78.5994 56.6903V240.579C78.5994 240.974 78.6771 241.364 78.828 241.729C78.979 242.093 79.2003 242.424 79.4792 242.703C79.7581 242.982 80.0893 243.204 80.4537 243.354C80.8182 243.505 81.2088 243.583 81.6033 243.583H322.222C323.018 243.583 323.782 243.267 324.346 242.703C324.909 242.14 325.225 241.376 325.225 240.579V56.6903C325.225 56.2959 325.148 55.9052 324.997 55.5408C324.846 55.1763 324.625 54.8452 324.346 54.5662C324.067 54.2873 323.736 54.066 323.371 53.9151C323.007 53.7641 322.616 53.6864 322.222 53.6864ZM315.863 233.593C315.863 233.958 315.791 234.319 315.651 234.656C315.512 234.993 315.307 235.3 315.049 235.558C314.791 235.816 314.485 236.02 314.148 236.16C313.81 236.3 313.449 236.372 313.084 236.372H90.7407C90.376 236.372 90.0149 236.3 89.6781 236.16C89.3412 236.02 89.0352 235.815 88.7776 235.557C88.5199 235.299 88.3157 234.993 88.1767 234.656C88.0376 234.319 87.9663 233.957 87.967 233.593V63.6716C87.967 62.936 88.2593 62.2305 88.7794 61.7103C89.2996 61.1902 90.0051 60.8979 90.7407 60.8979H313.084C313.449 60.8972 313.81 60.9685 314.147 61.1076C314.484 61.2466 314.791 61.4508 315.049 61.7085C315.307 61.9661 315.512 62.2721 315.651 62.609C315.791 62.9458 315.863 63.3069 315.863 63.6716V233.593Z" fill="#87DBF6"/>
<path d="M241.681 60.694H239.064V236.372H241.681V60.694Z" fill="#87DBF6"/>
<path d="M164.761 60.694H162.144V236.372H164.761V60.694Z" fill="#87DBF6"/>
<path d="M315.863 185.786H87.967V188.403H315.863V185.786Z" fill="#87DBF6"/>
<path d="M315.863 108.867H87.967V111.483H315.863V108.867Z" fill="#87DBF6"/>
<path d="M91.5833 414.132L91.0599 413.714C91.5833 409.836 93.2318 398.014 95.3408 383.198C100.501 347.046 108.487 293.258 110.12 294.828C112.349 296.974 112.396 324.171 109.827 356.105C109.581 359.245 109.303 362.385 109 365.567C108.693 368.895 108.401 372.074 108.126 375.102C106.943 377.975 105.687 380.916 104.363 383.884C95.5763 403.629 91.5833 414.132 91.5833 414.132Z" fill="#7BCE34"/>
<path d="M94.8384 408.93C94.8384 408.93 97.1149 397.94 102.688 377.054C108.262 356.168 111.261 336.716 109.68 334.873C108.958 334.01 103.521 349.04 97.9523 365.263C95.456 382.34 93.2423 398.265 91.9653 407.318L94.8384 408.93Z" fill="#3C8F2D"/>
<path d="M95.77 439.053L96.4137 438.875C97.4133 435.087 100.459 423.531 104.201 409.045C113.354 373.689 126.704 320.968 124.574 321.79C121.685 322.915 111.177 347.999 101.26 378.462C100.29 381.434 99.3304 384.451 98.3814 387.51C97.3941 390.703 96.4399 393.75 95.5188 396.653C95.5188 399.756 95.5188 402.933 95.613 406.204C96.1311 427.828 95.77 439.053 95.77 439.053Z" fill="#3C8F2D"/>
<path d="M40.4537 352.285C41.3209 351.8 42.2175 351.37 43.1384 350.997C44.0543 350.61 44.991 350.275 45.9383 349.951C47.8467 349.347 49.7995 348.894 51.7787 348.595C55.8545 347.95 60.0094 347.991 64.0718 348.716C66.1775 349.095 68.2382 349.691 70.2209 350.495C71.2226 350.913 72.2009 351.385 73.1516 351.908L73.8633 352.306C74.0988 352.447 74.3239 352.599 74.5541 352.745C75.0094 353.049 75.4857 353.326 75.9253 353.651C77.6998 354.93 79.344 356.382 80.8341 357.984L81.9174 359.208C82.0012 359.313 82.1006 359.413 82.1791 359.512L82.4094 359.81L82.8804 360.407L84.7539 362.783C85.9052 364.442 87.1194 366.054 88.1242 367.802L88.8987 369.094C89.0243 369.314 89.1604 369.529 89.2807 369.743L89.6366 370.413L91.0601 373.113C91.9131 374.929 92.7871 376.73 93.5197 378.588L94.1006 379.969L94.624 381.366L95.1473 382.764L95.4142 383.465L95.6497 384.171C95.9689 385.119 96.33 386.045 96.6964 386.982C97.0627 387.919 97.3872 388.861 97.743 389.797C98.0989 390.734 98.3763 391.702 98.6484 392.665C98.9205 393.628 99.1037 394.612 99.2816 395.596C99.3601 396.119 99.4229 396.59 99.4753 397.087C99.5276 397.585 99.5904 398.087 99.6323 398.584C99.6898 399.589 99.7422 400.588 99.7265 401.604C99.7174 402.616 99.6563 403.628 99.5433 404.634C99.437 405.658 99.2533 406.673 98.9938 407.669L92.7766 407.894C92.0963 406.136 91.5991 404.393 91.1124 402.661L90.7513 401.363C90.6414 400.929 90.521 400.494 90.4216 400.06C90.1878 399.195 89.9733 398.322 89.7779 397.443C89.5581 396.58 89.3802 395.711 89.2284 394.827C89.0766 393.942 88.9039 393.068 88.7626 392.21C88.6213 391.352 88.4225 390.451 88.2393 389.593C88.0561 388.735 87.7735 387.866 87.5066 387.008L87.2973 386.369L87.067 385.741L86.596 384.485C86.439 384.067 86.282 383.648 86.1146 383.235L85.5912 382.01C84.9004 380.362 84.0579 378.792 83.2572 377.201L81.9331 374.888L81.6034 374.312C81.4883 374.123 81.3627 373.94 81.2476 373.752L80.4783 372.59L79.7718 371.465C79.5415 371.088 79.2484 370.743 79.0182 370.376L77.5057 368.199L75.8677 366.106L75.4543 365.583L75.2502 365.326C75.1821 365.237 75.1141 365.174 75.0461 365.096L74.2349 364.206C73.968 363.908 73.6592 363.652 73.3766 363.369L72.9475 362.956C72.801 362.819 72.644 362.699 72.4922 362.568C72.1782 362.317 71.8904 362.045 71.5711 361.799L70.6134 361.087C70.2994 360.841 69.954 360.637 69.6296 360.407C69.4621 360.297 69.2999 360.182 69.1062 360.077L68.5829 359.768C67.9078 359.334 67.1908 358.963 66.4896 358.56C65.0216 357.796 63.51 357.12 61.9627 356.534C58.6797 355.319 55.2762 354.457 51.8101 353.965C50.0203 353.687 48.1938 353.483 46.3308 353.342C44.4677 353.201 42.5732 353.101 40.6631 353.065L40.4537 352.285Z" fill="#3C8F2D"/>
<path d="M92.5776 407.412L92.5515 406.706C92.5515 406.261 92.5201 405.811 92.4939 405.366L92.3735 404.032C92.2375 402.252 91.9392 400.494 91.6775 398.736L91.1542 396.119L91.0286 395.47C90.9815 395.25 90.9187 395.041 90.8663 394.826L90.5366 393.523L90.2226 392.236C90.1284 391.801 89.9662 391.388 89.8511 390.964L89.1079 388.421L88.213 385.93L87.988 385.307L87.8729 384.998C87.8362 384.893 87.7891 384.81 87.7525 384.715L87.2658 383.616C87.1088 383.245 86.8942 382.905 86.7425 382.57L86.4651 382.046C86.3709 381.869 86.2558 381.706 86.1563 381.523C85.9418 381.188 85.7481 380.838 85.5283 380.508L84.8428 379.524C84.623 379.194 84.3613 378.891 84.1258 378.571C84.0054 378.414 83.8851 378.252 83.7595 378.095L83.6182 377.933C84.2985 379.257 84.9841 380.586 85.5597 381.968L86.0831 383.193C86.2505 383.606 86.4075 384.025 86.5645 384.443L87.0355 385.699L87.2658 386.327L87.4751 386.966C87.742 387.824 87.9985 388.677 88.2078 389.551C88.4171 390.425 88.5689 391.309 88.7311 392.168C88.8934 393.026 89.0137 393.937 89.1969 394.784C89.3801 395.632 89.5266 396.532 89.7464 397.401C89.9662 398.27 90.1546 399.138 90.3901 400.018C90.4895 400.452 90.6099 400.886 90.7198 401.321L91.0809 402.619C91.5257 404.225 91.9863 405.811 92.5776 407.412Z" fill="#7BCE34"/>
<path d="M66.5157 358.576C67.2222 358.979 67.9392 359.35 68.609 359.784L69.1324 360.093C69.2998 360.198 69.4621 360.313 69.6557 360.423C69.9802 360.653 70.3256 360.857 70.6396 361.103L71.5973 361.815L71.6339 361.846C75.4581 362.554 79.1461 363.863 82.5611 365.724C85.4073 367.252 87.9761 369.247 90.1599 371.627L90.4687 371.968L89.6627 370.44L89.3069 369.77C89.1865 369.555 89.0504 369.341 88.9248 369.121L88.1503 367.828C87.1455 366.08 85.9314 364.468 84.78 362.809L82.9065 360.433L82.4355 359.837L82.2052 359.539C82.1267 359.439 82.0273 359.34 81.9436 359.235L80.8603 358.01C79.3702 356.408 77.7259 354.957 75.9514 353.677C75.5118 353.347 75.0356 353.075 74.5803 352.772C74.35 352.625 74.125 352.473 73.8895 352.332L73.1777 351.934C72.227 351.411 71.2487 350.939 70.2471 350.521C68.2644 349.717 66.2036 349.121 64.0979 348.742C60.0355 348.018 55.8806 347.977 51.8048 348.622C49.8256 348.92 47.8728 349.374 45.9644 349.977C45.0172 350.275 44.0804 350.61 43.1646 351.024C42.2436 351.396 41.347 351.826 40.4799 352.311L40.6997 353.091C42.6098 353.128 44.5095 353.211 46.3674 353.368C48.2252 353.525 50.0307 353.714 51.8467 353.991C55.3187 354.488 58.7275 355.354 62.015 356.576C63.5528 357.155 65.0556 357.822 66.5157 358.576Z" fill="#7BCE34"/>
<path d="M153.337 345.513C152.407 345.156 151.457 344.859 150.49 344.623C149.527 344.377 148.553 344.184 147.575 344.021C145.598 343.703 143.6 343.537 141.598 343.524C137.472 343.474 133.366 344.116 129.452 345.424C127.423 346.1 125.47 346.987 123.627 348.072C122.695 348.63 121.795 349.24 120.932 349.898L120.283 350.422C120.074 350.589 119.869 350.772 119.66 350.945C119.252 351.311 118.828 351.652 118.436 352.039C116.866 353.565 115.45 355.24 114.207 357.042L113.312 358.408C113.244 358.523 113.16 358.638 113.098 358.748L112.909 359.078L112.532 359.732L111.02 362.348C110.125 364.149 109.152 365.923 108.403 367.796L107.822 369.188C107.728 369.424 107.629 369.654 107.54 369.89L107.289 370.596L106.278 373.438C105.698 375.353 105.096 377.264 104.64 379.195L104.264 380.649L103.939 382.11L103.615 383.57L103.458 384.297L103.322 385.035C103.144 386.014 102.919 386.987 102.715 387.96C102.51 388.934 102.306 389.918 102.092 390.896C101.877 391.875 101.741 392.869 101.61 393.864C101.48 394.858 101.443 395.858 101.406 396.857C101.406 397.38 101.406 397.862 101.406 398.364C101.406 398.867 101.438 399.364 101.469 399.866C101.558 400.866 101.647 401.865 101.809 402.865C101.965 403.866 102.173 404.858 102.432 405.838C102.685 406.836 103.014 407.814 103.416 408.763L109.596 408.083C110.015 406.246 110.256 404.451 110.486 402.661L110.654 401.321C110.701 400.876 110.758 400.431 110.795 399.987C110.9 399.097 110.988 398.213 111.057 397.323C111.125 396.433 111.198 395.549 111.224 394.654C111.25 393.759 111.287 392.875 111.297 391.974C111.308 391.074 111.381 390.185 111.439 389.29C111.496 388.395 111.653 387.51 111.794 386.626L111.904 385.967L112.046 385.307L112.328 383.999C112.422 383.559 112.522 383.125 112.627 382.69L112.977 381.398C113.422 379.666 114.024 377.991 114.594 376.306L115.568 373.825L115.814 373.202C115.897 372.998 115.997 372.799 116.086 372.601L116.609 371.386L117.132 370.172C117.3 369.764 117.53 369.387 117.719 368.984L118.901 366.614L120.22 364.321L120.555 363.751L120.717 363.463C120.775 363.369 120.832 363.296 120.89 363.207L121.565 362.212C121.78 361.877 122.052 361.579 122.287 361.255L122.654 360.784C122.779 360.632 122.92 360.485 123.051 360.334C123.323 360.041 123.575 359.732 123.847 359.444L124.695 358.601C124.967 358.314 125.281 358.078 125.569 357.785C125.72 357.654 125.862 357.513 126.013 357.382C126.165 357.251 126.327 357.136 126.479 357.005C127.086 356.482 127.74 356.006 128.384 355.509C129.724 354.536 131.122 353.647 132.571 352.845C135.676 351.157 138.953 349.808 142.347 348.82C144.079 348.297 145.858 347.821 147.674 347.407C149.49 346.994 151.337 346.628 153.248 346.314L153.337 345.513Z" fill="#7BCE34"/>
<path d="M125.663 357.785L125.731 357.727C123.978 358.25 122.268 358.91 120.618 359.7C118.688 360.622 116.859 361.741 115.159 363.039C114.303 363.707 113.483 364.422 112.705 365.18L112.124 365.75C111.936 365.949 111.758 366.153 111.569 366.357C111.213 366.765 110.831 367.158 110.491 367.587C109.118 369.291 107.915 371.126 106.901 373.066L106.179 374.532C106.121 374.652 106.053 374.783 106.006 374.898L105.86 375.249L105.567 375.945L105.509 376.075C105.206 377.122 104.918 378.169 104.672 379.215L104.295 380.67L103.971 382.13L103.646 383.59L103.489 384.318L103.353 385.056C103.175 386.034 102.95 387.008 102.746 387.981C102.542 388.955 102.338 389.938 102.123 390.917C101.909 391.896 101.773 392.89 101.642 393.884C101.511 394.879 101.474 395.878 101.438 396.878C101.438 397.401 101.438 397.883 101.438 398.385C101.438 398.887 101.469 399.385 101.5 399.887C101.589 400.887 101.678 401.886 101.841 402.886C101.997 403.887 102.205 404.879 102.463 405.858C102.716 406.857 103.045 407.835 103.447 408.784L108.293 408.26V408.145C108.225 407.25 108.162 406.355 108.11 405.461C108.058 404.566 108.11 403.671 108.136 402.776L108.168 402.106L108.225 401.436L108.346 400.102C108.387 399.657 108.429 399.212 108.482 398.767L108.675 397.443C108.906 395.669 109.303 393.931 109.659 392.21L110.324 389.63L110.491 388.986C110.549 388.771 110.622 388.562 110.685 388.348L111.083 387.081L111.465 385.809C111.585 385.385 111.763 384.977 111.904 384.559L112.789 382.062L112.982 381.607L113.024 381.45C113.469 379.718 114.071 378.043 114.641 376.358L115.615 373.877L115.861 373.255C115.944 373.051 116.044 372.852 116.133 372.653L116.656 371.439L117.179 370.224C117.347 369.816 117.577 369.44 117.766 369.037L118.948 366.666L120.267 364.374L120.602 363.803L120.764 363.515C120.822 363.421 120.879 363.348 120.937 363.259L121.612 362.265C121.827 361.93 122.099 361.631 122.334 361.307L122.701 360.836C122.826 360.684 122.968 360.538 123.098 360.386C123.371 360.093 123.622 359.784 123.894 359.496L124.742 358.654C125.077 358.313 125.375 358.062 125.663 357.785Z" fill="#3C8F2D"/>
<path d="M108.853 410.014L108.183 409.935C106.613 406.361 101.731 395.439 95.7125 381.759C81.0016 348.334 59.3774 298.439 61.5964 298.91C64.6212 299.554 79.0234 322.627 93.7081 351.102C95.135 353.893 96.5655 356.717 97.9994 359.575C99.4927 362.565 100.923 365.417 102.291 368.131C102.814 371.193 103.29 374.359 103.73 377.551C106.682 398.992 108.853 410.014 108.853 410.014Z" fill="#7BCE34"/>
<path d="M108.853 403.885C108.853 403.885 104.975 393.345 98.7059 372.663C92.4363 351.981 84.6805 333.879 82.3674 333.151C81.2789 332.806 84.602 348.449 88.4328 365.159C95.3356 380.979 101.846 395.685 105.562 404.037L108.853 403.885Z" fill="#3C8F2D"/>
<path d="M108.853 410.013L108.183 409.935L97.8319 408.768C97.8319 408.768 96.7852 396.344 95.7124 381.759C94.9431 371.407 94.1424 359.957 93.708 351.102C93.2475 342.022 93.148 335.669 93.797 335.993C95.6443 336.914 99.3966 350.835 102.291 368.131C102.814 371.193 103.29 374.359 103.73 377.551C106.681 398.992 108.853 410.013 108.853 410.013Z" fill="#7BCE34"/>
<path d="M168.942 399.463C165.844 396.893 162.804 394.544 160.004 392.136C158.612 390.927 157.262 389.729 156.048 388.473C154.878 387.318 153.802 386.072 152.829 384.747C152.403 384.16 152.006 383.552 151.641 382.926C151.564 382.776 151.481 382.629 151.39 382.486C151.306 382.34 151.243 382.193 151.17 382.052L150.49 380.712C149.937 379.707 149.314 378.742 148.627 377.823C147.924 376.9 147.16 376.026 146.34 375.207C144.681 373.584 142.824 372.177 140.813 371.02C138.788 369.839 136.615 368.935 134.35 368.33C133.178 368.019 131.98 367.818 130.771 367.728C129.506 367.629 128.235 367.678 126.982 367.875C125.664 368.075 124.38 368.457 123.167 369.01C122.005 369.557 120.908 370.231 119.896 371.02C118.941 371.742 118.05 372.544 117.232 373.417C116.443 374.25 115.71 375.134 115.039 376.065C113.758 377.857 112.657 379.771 111.753 381.78C110.096 385.653 108.961 389.728 108.377 393.9C108.22 394.915 108.063 395.931 107.932 396.946L107.728 398.464C107.671 398.987 107.624 399.479 107.55 399.986C107.31 402.006 107.079 404.021 106.682 406.036L116.374 406.371C116.15 404.548 116.122 402.705 116.29 400.876C116.441 399.069 116.706 397.274 117.085 395.501C117.462 393.738 117.923 392.011 118.451 390.336C118.98 388.661 119.556 387.013 120.21 385.443C120.534 384.658 120.864 383.873 121.256 383.14C121.649 382.408 121.999 381.665 122.413 380.974C122.81 380.295 123.243 379.638 123.711 379.006C124.147 378.411 124.632 377.852 125.16 377.337C125.635 376.871 126.162 376.462 126.73 376.117C127.244 375.804 127.804 375.575 128.389 375.437C129.038 375.292 129.703 375.231 130.368 375.254C131.085 375.282 131.798 375.389 132.492 375.573C133.966 375.987 135.34 376.7 136.527 377.666C137.736 378.649 138.794 379.804 139.667 381.094C140.112 381.738 140.515 382.402 140.902 383.077C141.29 383.753 141.635 384.454 141.986 385.171L142.232 385.694L142.289 385.825C142.289 385.872 142.326 385.903 142.368 385.987L142.587 386.416C142.739 386.699 142.88 386.992 143.037 387.264C143.194 387.536 143.367 387.788 143.561 388.065C144.223 389.073 144.98 390.016 145.822 390.88C147.385 392.48 149.143 393.876 151.055 395.036C151.976 395.596 152.897 396.119 153.844 396.606C154.792 397.092 155.739 397.49 156.702 397.867C158.612 398.617 160.579 399.216 162.584 399.657C163.584 399.871 164.588 400.054 165.598 400.18C166.62 400.319 167.65 400.394 168.681 400.405L168.942 399.463Z" fill="#7BCE34"/>
<path d="M107.728 398.448L107.932 396.93C108.063 395.915 108.22 394.9 108.377 393.885C108.961 389.713 110.096 385.637 111.753 381.764C112.657 379.755 113.758 377.841 115.039 376.049C115.71 375.119 116.443 374.234 117.232 373.401C118.051 372.534 118.942 371.737 119.896 371.02C120.454 370.595 121.038 370.203 121.644 369.848C133.466 370.513 137.38 376.212 138.673 379.791C138.02 379.003 137.286 378.284 136.485 377.646C135.298 376.679 133.924 375.967 132.45 375.552C131.756 375.368 131.044 375.261 130.326 375.233C129.661 375.21 128.996 375.272 128.348 375.416C127.762 375.554 127.202 375.784 126.689 376.097C126.12 376.441 125.593 376.851 125.119 377.316C124.59 377.832 124.105 378.39 123.669 378.985C123.201 379.617 122.768 380.274 122.371 380.953C121.958 381.644 121.576 382.366 121.214 383.12C120.853 383.873 120.508 384.637 120.168 385.422C119.514 386.992 118.948 388.636 118.409 390.316C117.87 391.995 117.42 393.717 117.044 395.481C116.679 397.253 116.427 399.046 116.29 400.85C116.122 402.68 116.15 404.522 116.374 406.345L106.682 406.01C107.079 403.995 107.31 401.981 107.55 399.961C107.624 399.463 107.671 398.956 107.728 398.448Z" fill="#3C8F2D"/>
<path d="M31.625 399.463C34.7231 396.893 37.7689 394.544 40.5635 392.136C41.9556 390.927 43.3058 389.729 44.5199 388.473C45.6922 387.32 46.7686 386.074 47.7384 384.747C48.1667 384.161 48.5633 383.553 48.9264 382.926C49.0066 382.776 49.0904 382.629 49.1776 382.486C49.2666 382.339 49.3241 382.193 49.3974 382.052L50.0777 380.712C50.6344 379.708 51.2586 378.743 51.946 377.823C52.6501 376.9 53.416 376.026 54.2382 375.206C55.8938 373.583 57.7491 372.176 59.7594 371.02C61.7847 369.84 63.9582 368.935 66.2226 368.33C67.3963 368.018 68.5964 367.817 69.8074 367.728C71.0718 367.629 72.3434 367.678 73.5963 367.875C74.9127 368.075 76.1948 368.457 77.4062 369.01C78.5656 369.546 79.6625 370.207 80.677 370.983C81.6304 371.706 82.5215 372.508 83.3408 373.38C84.1266 374.214 84.8573 375.099 85.5283 376.028C86.8098 377.82 87.9107 379.734 88.8149 381.743C90.4711 385.616 91.6062 389.692 92.1904 393.863C92.3474 394.879 92.5044 395.894 92.6352 396.909L92.8393 398.427C92.9021 398.95 92.944 399.442 93.0172 399.95C93.2632 401.97 93.4882 403.985 93.886 405.999L84.1938 406.334C84.41 404.514 84.431 402.675 84.2566 400.85C84.106 399.043 83.8403 397.248 83.4612 395.475C83.093 393.731 82.6371 392.008 82.0953 390.31C81.5719 388.63 80.991 386.987 80.3369 385.417C80.0124 384.632 79.6827 383.847 79.2902 383.114C78.8977 382.381 78.5471 381.638 78.1336 380.947C77.7388 380.267 77.3055 379.61 76.8358 378.98C76.401 378.384 75.9179 377.826 75.3914 377.31C74.9226 376.849 74.405 376.44 73.8475 376.091C73.3319 375.778 72.7703 375.549 72.1833 375.411C71.5343 375.266 70.8696 375.204 70.2051 375.227C69.4873 375.256 68.7748 375.363 68.0804 375.547C66.6064 375.961 65.2331 376.673 64.0455 377.64C62.8364 378.622 61.7784 379.777 60.9055 381.068C60.4607 381.711 60.0577 382.376 59.6704 383.051C59.2832 383.726 58.9378 384.428 58.5924 385.145L58.3464 385.668L58.2836 385.799L58.2051 385.961L57.9853 386.39C57.8388 386.673 57.6922 386.966 57.5352 387.238C57.3782 387.51 57.2108 387.761 57.0433 388.039C56.3793 389.047 55.6205 389.99 54.7773 390.854C53.2142 392.453 51.4559 393.849 49.5439 395.009C48.6281 395.569 47.7018 396.093 46.7546 396.579C45.8073 397.066 44.8601 397.464 43.8972 397.841C41.9866 398.591 40.0197 399.19 38.0149 399.63C37.0153 399.845 36.0158 400.028 35.0005 400.154C33.9793 400.275 32.9516 400.332 31.9233 400.326L31.625 399.463Z" fill="#7BCE34"/>
<path d="M92.8392 398.448L92.6351 396.93C92.5043 395.915 92.3473 394.9 92.1903 393.885C91.6061 389.713 90.4711 385.637 88.8148 381.764C87.9107 379.755 86.8098 377.841 85.5283 376.049C84.8573 375.12 84.1266 374.236 83.3407 373.401C82.5214 372.529 81.6304 371.727 80.677 371.004C80.1157 370.58 79.5303 370.189 78.9238 369.832C67.1017 370.497 63.1872 376.196 61.8998 379.775C62.55 378.986 63.2814 378.267 64.0821 377.63C65.2696 376.663 66.643 375.951 68.117 375.536C68.8114 375.353 69.5239 375.246 70.2417 375.217C70.9062 375.194 71.5709 375.256 72.2199 375.4C72.8069 375.539 73.3684 375.768 73.8841 376.081C74.4415 376.43 74.9592 376.839 75.4279 377.3C75.9545 377.816 76.4376 378.374 76.8723 378.97C77.3421 379.6 77.7754 380.257 78.1702 380.937C78.5836 381.628 78.9657 382.35 79.3268 383.104C79.6879 383.858 80.0333 384.622 80.3734 385.407C81.0276 386.977 81.5928 388.62 82.1318 390.3C82.6737 391.997 83.1296 393.721 83.4977 395.465C83.865 397.242 84.1185 399.041 84.2566 400.85C84.4248 402.68 84.3967 404.522 84.1728 406.345L93.865 406.01C93.4672 403.995 93.2422 401.981 92.9962 399.96C92.9439 399.463 92.902 398.956 92.8392 398.448Z" fill="#3C8F2D"/>
<path d="M117.227 447.254H87.92C86.0911 447.253 84.3231 446.596 82.9374 445.402C81.5517 444.209 80.6401 442.558 80.3683 440.749L75.203 406.34C74.8419 403.953 92.384 405.816 103.123 405.733C113.239 405.633 129.776 404.686 129.598 405.884L124.789 440.749C124.517 442.559 123.604 444.212 122.216 445.406C120.828 446.6 119.057 447.255 117.227 447.254Z" fill="#ABBCCA"/>
<path d="M102.39 405.743C91.6513 405.848 74.8313 403.953 75.1767 406.34L80.3421 440.749C80.6145 442.562 81.5299 444.217 82.9211 445.411C84.3123 446.605 86.0865 447.259 87.9199 447.254H99.517C96.4687 443.893 94.7626 439.529 94.7232 434.992C94.7232 434.055 94.8332 428.016 99.2239 423.201C101.841 420.323 106.09 418.853 114.584 415.906C118.666 414.493 121.91 413.776 125.448 410.788C126.934 409.596 128.279 408.239 129.457 406.743L129.577 405.884C129.787 404.691 112.517 405.644 102.39 405.743Z" fill="#91A6B5"/>
<path d="M491.85 159.86H432.713C432.287 159.859 431.879 159.689 431.578 159.388C431.277 159.087 431.108 158.679 431.106 158.254V94.2552C431.106 94.0442 431.148 93.8353 431.229 93.6404C431.309 93.4454 431.428 93.2683 431.577 93.1191C431.726 92.97 431.903 92.8516 432.098 92.7709C432.293 92.6901 432.502 92.6486 432.713 92.6486H502.803C503.014 92.6479 503.223 92.689 503.419 92.7695C503.614 92.85 503.791 92.9683 503.941 93.1176C504.09 93.2669 504.208 93.4443 504.289 93.6396C504.369 93.8348 504.41 94.044 504.41 94.2552V147.777L491.85 159.86Z" fill="#A2AEE6"/>
<path d="M479.797 107.417H469.393V117.821H479.797V107.417Z" fill="#C0D6F2"/>
<path d="M494.226 107.417H483.822V117.821H494.226V107.417Z" fill="#C0D6F2"/>
<path d="M479.797 120.26H469.393V130.664H479.797V120.26Z" fill="#C0D6F2"/>
<path d="M494.226 120.26H483.822V130.664H494.226V120.26Z" fill="#C0D6F2"/>
<path d="M479.797 133.107H469.393V143.511H479.797V133.107Z" fill="#C0D6F2"/>
<path d="M494.226 133.107H483.822V143.511H494.226V133.107Z" fill="#C0D6F2"/>
<path d="M450.81 133.107H440.406V143.511H450.81V133.107Z" fill="#C0D6F2"/>
<path d="M450.81 145.939H440.406V156.343H450.81V145.939Z" fill="#C0D6F2"/>
<path d="M450.81 120.26H440.406V130.664H450.81V120.26Z" fill="#C0D6F2"/>
<path d="M464.945 133.107H454.541V143.511H464.945V133.107Z" fill="#C0D6F2"/>
<path d="M464.945 120.26H454.541V130.664H464.945V120.26Z" fill="#C0D6F2"/>
<path d="M502.803 159.86C503.229 159.86 503.638 159.691 503.939 159.39C504.24 159.088 504.41 158.68 504.41 158.254V147.787L491.85 159.871L502.803 159.86Z" fill="#A2AEE6"/>
<path d="M443.687 100.179C443.529 100.179 443.372 100.148 443.225 100.087C443.079 100.027 442.946 99.9374 442.834 99.825C442.722 99.7127 442.634 99.5794 442.574 99.4328C442.513 99.2861 442.483 99.129 442.484 98.9705V87.4153C442.484 87.0961 442.61 86.79 442.836 86.5642C443.062 86.3385 443.368 86.2117 443.687 86.2117C444.006 86.2117 444.313 86.3385 444.538 86.5642C444.764 86.79 444.891 87.0961 444.891 87.4153V98.9705C444.892 99.129 444.861 99.2861 444.801 99.4328C444.741 99.5794 444.652 99.7127 444.54 99.825C444.428 99.9374 444.295 100.027 444.149 100.087C444.003 100.148 443.846 100.179 443.687 100.179Z" fill="#EA8826"/>
<path d="M435.659 100.179C435.501 100.179 435.344 100.148 435.198 100.087C435.051 100.027 434.918 99.9374 434.806 99.825C434.695 99.7127 434.606 99.5794 434.546 99.4328C434.486 99.2861 434.455 99.129 434.456 98.9705V87.4153C434.456 87.0961 434.583 86.79 434.808 86.5642C435.034 86.3385 435.34 86.2117 435.659 86.2117C435.979 86.2117 436.285 86.3385 436.511 86.5642C436.736 86.79 436.863 87.0961 436.863 87.4153V98.9705C436.864 99.129 436.833 99.2861 436.773 99.4328C436.713 99.5794 436.624 99.7127 436.512 99.825C436.401 99.9374 436.268 100.027 436.121 100.087C435.975 100.148 435.818 100.179 435.659 100.179Z" fill="#EA8826"/>
<path d="M451.715 100.179C451.557 100.179 451.4 100.148 451.253 100.087C451.107 100.027 450.974 99.9374 450.862 99.825C450.75 99.7127 450.662 99.5794 450.602 99.4328C450.541 99.2861 450.511 99.129 450.511 98.9705V87.4153C450.511 87.0961 450.638 86.79 450.864 86.5642C451.09 86.3385 451.396 86.2117 451.715 86.2117C452.034 86.2117 452.341 86.3385 452.566 86.5642C452.792 86.79 452.919 87.0961 452.919 87.4153V98.9705C452.92 99.129 452.889 99.2861 452.829 99.4328C452.769 99.5794 452.68 99.7127 452.568 99.825C452.456 99.9374 452.323 100.027 452.177 100.087C452.031 100.148 451.874 100.179 451.715 100.179Z" fill="#EA8826"/>
<path d="M459.743 100.179C459.585 100.179 459.428 100.148 459.281 100.087C459.135 100.027 459.002 99.9374 458.89 99.825C458.778 99.7127 458.69 99.5794 458.63 99.4328C458.569 99.2861 458.539 99.129 458.539 98.9705V87.4153C458.539 87.0961 458.666 86.79 458.892 86.5642C459.118 86.3385 459.424 86.2117 459.743 86.2117C460.062 86.2117 460.368 86.3385 460.594 86.5642C460.82 86.79 460.947 87.0961 460.947 87.4153V98.9705C460.947 99.129 460.917 99.2861 460.857 99.4328C460.796 99.5794 460.708 99.7127 460.596 99.825C460.484 99.9374 460.351 100.027 460.205 100.087C460.059 100.148 459.902 100.179 459.743 100.179Z" fill="#EA8826"/>
<path d="M467.771 100.179C467.613 100.179 467.456 100.148 467.309 100.087C467.163 100.027 467.03 99.9374 466.918 99.825C466.806 99.7127 466.718 99.5794 466.658 99.4328C466.597 99.2861 466.567 99.129 466.567 98.9705V87.4153C466.567 87.0961 466.694 86.79 466.92 86.5642C467.146 86.3385 467.452 86.2117 467.771 86.2117C468.09 86.2117 468.396 86.3385 468.622 86.5642C468.848 86.79 468.975 87.0961 468.975 87.4153V98.9705C468.975 99.129 468.945 99.2861 468.885 99.4328C468.824 99.5794 468.736 99.7127 468.624 99.825C468.512 99.9374 468.379 100.027 468.233 100.087C468.086 100.148 467.93 100.179 467.771 100.179Z" fill="#EA8826"/>
<path d="M475.799 100.18C475.64 100.18 475.483 100.149 475.336 100.089C475.189 100.028 475.055 99.9394 474.943 99.827C474.83 99.7146 474.741 99.581 474.681 99.4341C474.62 99.2871 474.589 99.1296 474.59 98.9706V87.4154C474.61 87.1092 474.746 86.8222 474.97 86.6124C475.194 86.4027 475.49 86.286 475.796 86.286C476.103 86.286 476.399 86.4027 476.623 86.6124C476.847 86.8222 476.982 87.1092 477.003 87.4154V98.9706C477.003 99.1291 476.973 99.2862 476.913 99.4328C476.852 99.5795 476.764 99.7128 476.652 99.8251C476.54 99.9374 476.407 100.027 476.261 100.087C476.114 100.148 475.958 100.18 475.799 100.18Z" fill="#EA8826"/>
<path d="M483.822 100.18C483.663 100.18 483.506 100.148 483.36 100.087C483.213 100.027 483.081 99.9374 482.969 99.8251C482.857 99.7128 482.768 99.5795 482.708 99.4328C482.648 99.2862 482.617 99.1291 482.618 98.9706V87.4154C482.638 87.1092 482.774 86.8222 482.998 86.6124C483.222 86.4027 483.517 86.286 483.824 86.286C484.131 86.286 484.427 86.4027 484.651 86.6124C484.875 86.8222 485.01 87.1092 485.031 87.4154V98.9706C485.031 99.1296 485.001 99.2871 484.94 99.4341C484.879 99.581 484.79 99.7146 484.678 99.827C484.566 99.9394 484.432 100.028 484.285 100.089C484.138 100.149 483.981 100.18 483.822 100.18Z" fill="#EA8826"/>
<path d="M491.85 100.179C491.691 100.179 491.534 100.148 491.388 100.087C491.241 100.027 491.109 99.9374 490.997 99.825C490.885 99.7127 490.796 99.5794 490.736 99.4328C490.676 99.2861 490.645 99.129 490.646 98.9705V87.4153C490.646 87.0961 490.773 86.79 490.999 86.5642C491.224 86.3385 491.53 86.2117 491.85 86.2117C492.169 86.2117 492.475 86.3385 492.701 86.5642C492.927 86.79 493.053 87.0961 493.053 87.4153V98.9705C493.054 99.129 493.023 99.2861 492.963 99.4328C492.903 99.5794 492.815 99.7127 492.703 99.825C492.591 99.9374 492.458 100.027 492.312 100.087C492.165 100.148 492.008 100.179 491.85 100.179Z" fill="#EA8826"/>
<path d="M499.877 100.179C499.719 100.179 499.562 100.148 499.416 100.087C499.269 100.027 499.136 99.9374 499.025 99.825C498.913 99.7127 498.824 99.5794 498.764 99.4328C498.704 99.2861 498.673 99.129 498.674 98.9705V87.4153C498.674 87.0961 498.801 86.79 499.026 86.5642C499.252 86.3385 499.558 86.2117 499.877 86.2117C500.197 86.2117 500.503 86.3385 500.729 86.5642C500.954 86.79 501.081 87.0961 501.081 87.4153V98.9705C501.082 99.129 501.051 99.2861 500.991 99.4328C500.931 99.5794 500.842 99.7127 500.73 99.825C500.619 99.9374 500.486 100.027 500.339 100.087C500.193 100.148 500.036 100.179 499.877 100.179Z" fill="#EA8826"/>
<path d="M504.352 147.719L491.797 147.834L491.907 159.918L504.352 147.719Z" fill="#C0D6F2"/>
<path d="M456.718 133.217C457.92 134.785 459.02 136.428 460.01 138.137C460.533 138.984 460.999 139.843 461.46 140.717C461.92 141.591 462.36 142.475 462.742 143.396C462.119 142.622 461.554 141.826 461.004 140.984C460.455 140.141 459.958 139.325 459.434 138.477C458.419 136.783 457.512 135.026 456.718 133.217Z" fill="#AF2F2F"/>
<path d="M462.763 133.217C461.968 135.02 461.055 136.768 460.031 138.451C459.508 139.298 458.984 140.141 458.461 140.957C457.938 141.774 457.352 142.595 456.724 143.37C457.106 142.449 457.55 141.564 458.011 140.69C458.471 139.817 458.958 138.958 459.455 138.11C460.454 136.411 461.558 134.777 462.763 133.217Z" fill="#AF2F2F"/>
<path d="M532.586 340.384L564.132 439.65L495.173 340.384L466.41 439.65L532.586 340.384Z" stroke="#59A4CE" stroke-width="3.67969" stroke-linecap="round" stroke-linejoin="round"/>
<path d="M561.034 442.413H567.225C567.933 442.413 568.507 441.839 568.507 441.131V439.545C568.507 438.837 567.933 438.263 567.225 438.263H561.034C560.326 438.263 559.752 438.837 559.752 439.545V441.131C559.752 441.839 560.326 442.413 561.034 442.413Z" fill="#80CBE8"/>
<path d="M463.317 442.413H469.508C470.217 442.413 470.791 441.839 470.791 441.131V439.545C470.791 438.837 470.217 438.263 469.508 438.263H463.317C462.609 438.263 462.035 438.837 462.035 439.545V441.131C462.035 441.839 462.609 442.413 463.317 442.413Z" fill="#80CBE8"/>
<path d="M483.309 369.848H545.161C546.029 369.848 546.731 369.145 546.731 368.278V366.425C546.731 365.558 546.029 364.855 545.161 364.855H483.309C482.442 364.855 481.739 365.558 481.739 366.425V368.278C481.739 369.145 482.442 369.848 483.309 369.848Z" fill="#80CBE8"/>
<path d="M582.569 249.214C582.522 248.34 582.24 244.666 580.031 242.761C575.164 238.575 562.337 244.29 554.414 250.611C552.41 252.213 535.004 266.542 535.574 286.596C535.747 292.714 538.039 314.903 536.888 315.798C536.574 316.039 536.244 316.269 536.244 316.269C533.627 318.111 530.205 319.665 514.117 320.649C495.026 321.816 485.988 320.466 470.791 323.873C464.39 325.312 458.089 326.919 455.808 331.943C454.86 334.036 454.185 337.6 455.808 340.238C459.314 345.916 470.079 341.698 489.688 342.08C493.529 342.158 490.928 342.279 527.258 345.309C531.895 345.696 538.112 346.151 545.465 343.697C547.114 343.142 553.838 340.902 558.601 336.087C565.242 329.399 563.279 322.669 566.205 304.515C569.622 283.304 571.904 269.096 578.419 260.497C579.33 259.294 582.852 254.866 582.569 249.214Z" fill="#C9EFFB"/>
<path d="M501.442 338.636C510.166 339.295 517.524 340.556 528.179 338.175C533.533 336.977 542.466 334.978 549.636 328.494C553.472 325.013 556.565 320.445 562.772 295.524C568.785 271.419 569.245 262.224 577.985 254.039C579.437 252.626 580.98 251.312 582.606 250.104C582.501 255.337 579.314 259.34 578.419 260.492C571.904 269.09 569.622 283.299 566.205 304.509C563.279 322.664 565.242 329.394 558.601 336.082C553.817 340.897 547.087 343.136 545.465 343.691C538.138 346.146 531.895 345.69 527.253 345.303C490.929 342.273 493.529 342.163 489.688 342.074C471.089 341.713 460.46 345.471 456.42 341.027C465.709 338.139 486.03 337.469 501.442 338.636Z" fill="#80CBE8"/>
<path d="M550.154 304.059C550.154 304.059 561.332 326.715 540.488 337.589C519.644 348.464 506.655 352.389 506.063 356.921C505.472 361.453 509.386 367.493 507.576 385.616C505.765 403.739 502.74 425.19 502.74 425.19C502.74 425.19 486.731 427.603 484.313 425.19C481.896 422.778 484.915 392.43 482.22 365.159C482.22 365.159 477.086 352.075 483.879 343.932L491.206 335.873C491.206 335.873 437.962 346.34 445.54 338.013C454.274 328.442 480.347 319.042 502.133 308.115L503.269 304.059H550.154Z" fill="#25BEEF"/>
<path d="M550.154 304.059C550.154 304.059 561.332 326.715 540.488 337.589C519.644 348.464 506.655 352.389 506.063 356.921C505.472 361.453 509.386 367.493 507.576 385.616C505.765 403.739 502.74 425.19 502.74 425.19C502.74 425.19 486.731 427.603 484.313 425.19C481.896 422.778 484.915 392.43 482.22 365.159C482.22 365.159 477.086 352.075 483.879 343.932L489.636 338.495L503.3 304.059H550.154Z" fill="#25BEEF"/>
<path d="M465.4 442.397C470.231 438.069 481.713 432.632 484.329 425.18C486.339 427.189 497.721 425.86 501.516 425.352C501.516 425.352 503.358 431.203 503.447 435.448C503.536 439.692 503.447 440.885 503.447 440.885L496.403 441.796V439.98C496.403 439.98 492.273 440.184 490.06 442.397C487.846 444.611 481.498 447.531 474.653 447.233C467.808 446.935 460.565 446.725 465.4 442.397Z" fill="#D18165"/>
<path d="M474.663 447.233C481.508 447.531 487.851 444.616 490.065 442.397C492.279 440.178 496.408 439.98 496.408 439.98V441.796L503.447 440.885C503.447 440.885 503.546 439.681 503.447 435.448C503.329 433.212 502.992 430.992 502.442 428.822C501.96 426.823 501.5 425.358 501.5 425.358C497.711 425.881 486.323 427.184 484.319 425.18C483.765 426.655 482.963 428.025 481.948 429.23C481.624 429.644 481.273 430.047 480.901 430.439L479.959 431.381C479.546 431.774 479.127 432.171 478.682 432.554C474.218 436.442 468.457 439.645 465.374 442.397C460.57 446.725 467.818 446.929 474.663 447.233Z" fill="#FFC065"/>
<path d="M474.663 447.233C469.163 446.987 463.417 446.809 463.862 444.506C481.048 448.63 487.851 441.89 489.102 439.88C490.353 437.871 493.388 437.667 493.388 437.667C498.956 437.604 501.934 435.835 503.405 434.474C503.431 434.809 503.452 435.134 503.457 435.448C503.562 439.681 503.457 440.885 503.457 440.885L496.413 441.796V439.98C496.413 439.98 492.284 440.184 490.07 442.397C487.857 444.611 481.508 447.531 474.663 447.233Z" fill="#7C2F13"/>
<path d="M480.943 430.439C481.268 430.659 481.613 430.868 481.959 431.062C482.422 431.336 482.907 431.572 483.408 431.769C483.957 432.008 484.537 432.17 485.13 432.25C484.92 431.666 484.592 431.132 484.167 430.68C483.768 430.251 483.305 429.886 482.796 429.597C482.536 429.454 482.267 429.33 481.99 429.225C481.639 429.633 481.289 430.047 480.943 430.439Z" fill="#7C2F13"/>
<path d="M478.709 432.553C478.944 432.7 479.18 432.841 479.426 432.972C479.892 433.24 480.377 433.476 480.875 433.678C481.421 433.912 481.997 434.067 482.587 434.139C482.378 433.554 482.05 433.02 481.624 432.569C481.222 432.143 480.76 431.778 480.252 431.486C480.169 431.439 480.08 431.397 479.986 431.355C479.572 431.774 479.153 432.171 478.709 432.553Z" fill="#7C2F13"/>
<path d="M502.73 425.19L501.5 425.358L499.6 425.593H499.563L497.69 425.803L497.088 425.86C496.225 425.944 495.372 426.012 494.518 426.08L493.425 426.148H493.226L492.179 426.2L491.049 426.232C490.677 426.232 490.311 426.232 489.95 426.232C488.675 426.247 487.401 426.142 486.145 425.918C493.435 419.271 496.664 412.882 498.255 408.397C503.551 393.482 500.505 372.533 499.767 367.467C498.967 361.956 498.072 358.382 499.945 354.09C502.4 348.48 507.272 346.523 516.378 342.09C524.673 338.061 532.078 334.455 537.557 330.174C541.331 327.217 542.791 322.052 540.781 317.698C539.488 314.882 536.919 312.569 532.036 312.208C523.646 311.487 515.57 308.676 508.544 304.033H550.217V304.081V304.122L550.259 304.217V304.248L550.332 304.415C550.342 304.434 550.35 304.453 550.358 304.473L550.426 304.63L550.458 304.709C550.489 304.771 550.515 304.839 550.547 304.913V304.97L550.667 305.269L550.698 305.357C550.735 305.436 550.766 305.52 550.798 305.609L550.845 305.729L550.955 306.017C550.955 306.054 550.981 306.085 550.991 306.122C551.044 306.252 551.091 306.394 551.143 306.535L551.175 306.624L551.3 306.985C551.3 307.037 551.332 307.09 551.352 307.142C551.373 307.194 551.426 307.378 551.468 307.498L551.515 307.639L551.672 308.163C551.675 308.187 551.675 308.211 551.672 308.236C551.717 308.389 551.764 308.546 551.813 308.707L551.86 308.89C551.902 309.026 551.939 309.162 551.975 309.303L552.022 309.487C552.075 309.685 552.127 309.884 552.174 310.094C552.226 310.298 552.274 310.507 552.321 310.722C552.321 310.784 552.321 310.852 552.362 310.915C552.399 311.072 552.431 311.229 552.462 311.392C552.462 311.46 552.462 311.533 552.504 311.601L552.614 312.187V312.286C552.656 312.517 552.692 312.747 552.724 312.982L552.755 313.187C552.781 313.359 552.802 313.537 552.828 313.71C552.828 313.788 552.828 313.867 552.828 313.945C552.828 314.139 552.875 314.333 552.896 314.526V314.689L552.959 315.437C552.959 315.505 552.959 315.568 552.959 315.636L552.991 316.211C552.991 316.3 552.991 316.384 552.991 316.468C552.991 316.661 552.991 316.86 552.991 317.054C552.991 317.122 552.991 317.19 552.991 317.263C552.991 317.525 552.991 317.787 552.991 318.048C552.991 318.106 552.991 318.163 552.991 318.221C552.991 318.43 552.991 318.645 552.991 318.854V319.116C552.991 319.315 552.975 319.514 552.943 319.713C552.943 319.791 552.943 319.869 552.943 319.948C552.943 320.215 552.886 320.471 552.849 320.759V320.88C552.818 321.115 552.781 321.345 552.739 321.586L552.692 321.842C552.656 322.041 552.619 322.24 552.577 322.439C552.577 322.523 552.54 322.612 552.525 322.695C552.462 322.968 552.399 323.219 552.326 323.512C551.916 325.073 551.322 326.581 550.557 328.002C550.421 328.259 550.274 328.525 550.123 328.771L549.96 329.049C549.772 329.347 549.573 329.64 549.369 329.938L549.217 330.158C548.785 330.763 548.321 331.343 547.825 331.896L547.632 332.11C547.375 332.393 547.108 332.675 546.826 332.953C545.194 334.533 543.363 335.893 541.378 336.998L540.425 337.522C538.472 338.537 536.587 339.496 534.773 340.4C533.564 341.002 532.392 341.583 531.246 342.137L529.613 343.022L526.389 344.56L523.375 345.979C517.566 348.705 513.06 350.783 510.098 352.62C509.428 353.025 508.783 353.47 508.167 353.954C507.831 354.219 507.513 354.506 507.215 354.812C506.61 355.367 506.2 356.101 506.042 356.906C505.972 357.5 505.96 358.099 506.006 358.696C506.11 360.098 506.461 361.715 506.838 363.777C506.89 364.044 506.942 364.3 506.99 364.604C507.037 364.908 507.078 365.127 507.12 365.363C507.162 365.598 507.209 365.886 507.251 366.153C507.923 370.506 508.169 374.914 507.984 379.315C507.984 379.802 507.947 380.304 507.921 380.812C507.843 382.308 507.722 383.899 507.555 385.6C507.487 386.28 507.413 386.961 507.345 387.646V387.84C507.204 389.211 507.052 390.598 506.901 391.99V392.158L506.665 394.251C506.571 395.12 506.471 395.988 506.372 396.868C506.273 397.71 506.173 398.542 506.079 399.374V399.5C505.948 400.62 505.812 401.735 505.681 402.828C505.618 403.352 505.55 403.875 505.488 404.398V404.545C505.43 405.032 505.372 405.518 505.31 405.994V406.183C505.184 407.191 505.06 408.177 504.938 409.14V409.318C504.812 410.301 504.69 411.257 504.572 412.185C504.08 415.995 503.645 419.245 503.337 421.537C503.337 421.679 503.295 421.82 503.279 421.956C503.263 422.092 503.242 422.223 503.222 422.354C503.049 423.62 502.928 424.5 502.871 424.913C502.74 425.096 502.73 425.19 502.73 425.19Z" fill="#1A87C4"/>
<path d="M502.164 331.671C481.32 342.546 468.331 346.476 467.729 351.003C467.127 355.529 471.052 361.579 469.242 379.702C467.431 397.825 464.406 419.271 464.406 419.271C464.406 419.271 448.397 421.689 445.979 419.271C443.562 416.854 446.581 386.516 443.886 359.245C443.886 359.245 438.752 346.162 445.545 338.013L452.835 332.184" fill="#25BEEF"/>
<path d="M427.077 436.484C431.907 432.151 443.389 426.713 446.005 419.266C448.015 421.271 459.398 419.947 463.192 419.439C463.192 419.439 465.034 425.306 465.133 429.534C465.233 433.763 465.133 434.971 465.133 434.971L458.089 435.877V434.066C458.089 434.066 453.96 434.265 451.746 436.484C449.533 438.703 443.185 441.618 436.34 441.314C429.494 441.011 422.241 440.812 427.077 436.484Z" fill="#D18165"/>
<path d="M436.345 441.314C443.19 441.618 449.533 438.698 451.746 436.484C453.96 434.27 458.089 434.066 458.089 434.066V435.877L465.139 434.971C465.139 434.971 465.238 433.763 465.139 429.534C465.021 427.298 464.684 425.079 464.134 422.909C463.652 420.91 463.192 419.439 463.192 419.439C459.403 419.962 448.015 421.271 446.011 419.266C445.456 420.741 444.654 422.111 443.64 423.317C443.316 423.73 442.965 424.133 442.593 424.526L441.651 425.468C441.238 425.86 440.819 426.253 440.374 426.64C435.937 430.523 430.18 433.731 427.077 436.484C422.246 440.812 429.494 441.016 436.345 441.314Z" fill="#FFC065"/>
<path d="M436.34 441.314C430.839 441.074 425.093 440.896 425.538 438.593C442.724 442.717 449.528 435.976 450.778 433.967C452.029 431.957 455.064 431.748 455.064 431.748C460.633 431.69 463.61 429.916 465.081 428.561C465.081 428.89 465.128 429.22 465.133 429.534C465.238 433.763 465.133 434.972 465.133 434.972L458.089 435.877V434.066C458.089 434.066 453.96 434.265 451.746 436.484C449.533 438.703 443.185 441.618 436.34 441.314Z" fill="#7C2F13"/>
<path d="M442.604 424.526C442.928 424.745 443.274 424.955 443.619 425.148C444.082 425.423 444.567 425.657 445.069 425.85C445.614 426.085 446.19 426.242 446.78 426.315C446.568 425.732 446.241 425.198 445.817 424.745C445.416 424.32 444.954 423.956 444.446 423.667C444.189 423.52 443.919 423.396 443.64 423.296C443.316 423.73 442.965 424.133 442.604 424.526Z" fill="#7C2F13"/>
<path d="M440.385 426.64C440.62 426.781 440.856 426.928 441.102 427.059C441.569 427.326 442.053 427.562 442.551 427.765C443.098 427.996 443.674 428.151 444.263 428.226C444.054 427.649 443.726 427.123 443.3 426.682C442.901 426.253 442.438 425.888 441.929 425.599C441.845 425.552 441.756 425.51 441.662 425.468C441.248 425.86 440.83 426.253 440.385 426.64Z" fill="#7C2F13"/>
<path d="M502.164 331.671C500.214 332.693 498.33 333.654 496.512 334.554C495.304 335.156 494.131 335.732 492.985 336.292L491.3 337.108C490.191 337.631 489.118 338.155 488.076 338.641C487.035 339.128 486.03 339.61 485.062 340.06C479.253 342.786 474.747 344.869 471.785 346.706C471.115 347.111 470.47 347.557 469.854 348.041C469.517 348.304 469.199 348.591 468.901 348.899C468.297 349.453 467.886 350.187 467.729 350.992C467.656 351.588 467.644 352.189 467.692 352.787C467.797 354.19 468.148 355.807 468.525 357.863C468.577 358.136 468.629 358.387 468.676 358.696C468.723 359.004 468.765 359.193 468.807 359.449C468.849 359.706 468.896 359.973 468.938 360.245C469.61 364.596 469.855 369.002 469.671 373.401C469.671 373.893 469.634 374.39 469.608 374.903C469.529 376.4 469.409 377.991 469.242 379.692C469.174 380.367 469.1 381.052 469.032 381.738V381.926C468.891 383.303 468.739 384.69 468.587 386.076V386.249L468.352 388.342C468.258 389.211 468.158 390.075 468.059 390.959C467.959 391.796 467.86 392.634 467.766 393.461V393.591C467.635 394.711 467.499 395.821 467.368 396.915C467.305 397.438 467.237 397.961 467.174 398.485V398.636C467.117 399.123 467.059 399.605 466.996 400.086V400.274C466.871 401.279 466.745 402.268 466.625 403.231V403.409C466.499 404.393 466.379 405.351 466.259 406.272C465.767 410.087 465.332 413.337 465.023 415.629C465.023 415.77 464.982 415.912 464.966 416.048C464.95 416.184 464.929 416.315 464.908 416.445C464.736 417.707 464.615 418.591 464.558 418.999C464.532 419.172 464.521 419.261 464.521 419.261C464.113 419.324 463.699 419.381 463.291 419.434C462.658 419.523 462.025 419.601 461.392 419.674H461.355L459.481 419.878L458.88 419.941C458.016 420.025 457.163 420.093 456.31 420.156L455.216 420.229H455.017L453.971 420.276L452.84 420.313C452.469 420.313 452.102 420.313 451.741 420.313C450.466 420.328 449.192 420.223 447.937 419.999C455.227 413.353 458.456 406.963 460.047 402.478C465.343 387.557 462.297 366.614 461.559 361.548C460.758 356.037 459.863 352.457 461.737 348.166C463.27 344.665 465.746 342.582 469.587 340.436C474.517 337.726 479.852 335.828 485.386 334.816L502.164 331.671Z" fill="#1A87C4"/>
<path d="M486.088 426.101L488.28 423.856L488.411 423.987L486.088 426.101Z" fill="white"/>
<path d="M492.153 419.167C493.342 417.525 494.412 415.801 495.356 414.007L496.015 414.368C494.984 416.147 493.824 417.849 492.546 419.46L492.153 419.167Z" fill="white"/>
<path d="M497.69 408.423C498.324 406.512 498.83 404.561 499.202 402.582L500.401 402.828C499.957 404.845 499.373 406.828 498.653 408.763L497.69 408.423Z" fill="white"/>
<path d="M500.061 396.585C500.256 394.572 500.373 392.553 500.411 390.53L501.981 390.582C501.887 392.639 501.73 394.69 501.458 396.737L500.061 396.585Z" fill="white"/>
<path d="M500.369 384.454L500.008 378.389L501.814 378.258L502.065 384.417L500.369 384.454Z" fill="white"/>
<path d="M499.38 372.344C499.087 370.335 498.857 368.325 498.512 366.321L500.464 366.022C500.767 368.048 500.987 370.089 501.259 372.119L499.38 372.344Z" fill="white"/>
<path d="M497.768 360.114C497.738 359.023 497.822 357.932 498.02 356.859C498.228 355.777 498.56 354.724 499.009 353.719L500.882 354.556C500.493 355.413 500.203 356.312 500.019 357.235C499.843 358.168 499.768 359.117 499.794 360.067L497.768 360.114Z" fill="white"/>
<path d="M502.923 348.517C504.57 347.185 506.356 346.035 508.251 345.089L509.224 346.931C507.475 347.814 505.82 348.871 504.284 350.087L502.923 348.517Z" fill="white"/>
<path d="M513.788 342.362L519.288 339.704L520.183 341.52L514.677 344.21L513.788 342.362Z" fill="white"/>
<path d="M524.751 336.993L530.105 334.125L531.058 335.768L525.662 338.751L524.751 336.993Z" fill="white"/>
<path d="M535.218 330.922L536.432 330.038C536.827 329.761 537.204 329.46 537.563 329.138C538.261 328.509 538.867 327.785 539.363 326.987L540.823 327.866C540.263 328.818 539.571 329.685 538.766 330.441C538.371 330.807 537.954 331.148 537.516 331.461L536.27 332.403L535.218 330.922Z" fill="white"/>
<path d="M540.834 321.617C540.775 319.723 540.127 317.894 538.981 316.384L540.09 315.494C541.475 317.225 542.281 319.346 542.393 321.56L540.834 321.617Z" fill="white"/>
<path d="M534.276 313.37C533.806 313.244 533.329 313.144 532.847 313.071C532.361 312.998 531.874 312.962 531.356 312.888L528.284 312.48L528.441 311.465L531.45 311.763C531.942 311.821 532.497 311.836 533.02 311.904C533.548 311.966 534.073 312.059 534.59 312.182L534.276 313.37Z" fill="white"/>
<path d="M522.287 310.999C520.327 310.381 518.404 309.649 516.53 308.806L516.724 308.356C518.604 309.105 520.526 309.745 522.48 310.272L522.287 310.999Z" fill="white"/>
<path d="M511.103 305.959C510.208 305.436 509.329 304.839 508.486 304.217C509.36 304.787 510.271 305.305 511.192 305.787L511.103 305.959Z" fill="white"/>
<path d="M528.692 194.16C528.692 194.16 540.206 189.151 544.649 199.053C549.092 208.954 555.911 240.747 567.529 242.516C567.529 242.516 561.123 246.461 554.78 238.7C548.438 230.939 544.199 223.717 543.021 220.154C543.692 226.749 546.155 233.034 550.144 238.329C556.821 247.226 566.445 263.873 554.126 266.788C554.126 266.788 560.527 264.025 554.158 256.091C547.789 248.157 516.137 221.347 528.975 200.785C531.487 196.75 528.692 194.16 528.692 194.16Z" fill="black"/>
<path d="M519.947 192.658C526.437 193.919 530.414 202.182 529.503 211.775H529.55C531.325 212.12 532.371 214.392 531.89 216.888C531.408 219.384 529.577 221.075 527.803 220.75C527.567 220.701 527.339 220.618 527.127 220.504C523.522 227.768 516.53 231.813 510.773 230.688C503.63 229.296 501.097 220.478 503.206 209.682C505.315 198.885 512.804 191.26 519.947 192.658Z" fill="#EA9D7D"/>
<path d="M513.045 236.356C513.374 235.194 511.998 232.373 511.161 230.746C516.844 231.614 523.605 227.606 527.127 220.509C527.339 220.623 527.567 220.706 527.803 220.755C527.803 220.755 528.352 235.518 531.555 235.702C535.297 238.91 547.522 249.774 545.031 254.819C542.937 259.042 531.654 256.865 514.824 253.61C513.187 253.356 511.661 252.628 510.433 251.517C506.906 248.152 507.869 242.097 508.34 240.731C509.01 238.951 512.574 238.025 513.045 236.356Z" fill="#EA9D7D"/>
<path d="M528.279 226.632C527.907 223.492 527.803 220.755 527.803 220.755C527.567 220.706 527.339 220.623 527.127 220.509C523.605 227.626 516.844 231.614 511.161 230.766C511.807 231.951 512.355 233.187 512.799 234.461L513.233 234.561C518.356 235.539 524.458 232.441 528.279 226.632Z" fill="#D18165"/>
<path d="M529.613 213.978C530.05 214.277 530.381 214.708 530.555 215.208C530.75 215.721 530.791 216.279 530.676 216.815C530.567 217.351 530.309 217.846 529.932 218.243C529.756 218.434 529.556 218.602 529.336 218.741C529.111 218.87 528.872 218.974 528.624 219.049C528.725 218.823 528.838 218.603 528.964 218.39C529.059 218.17 529.184 217.982 529.257 217.778C529.432 217.403 529.563 217.01 529.65 216.605C529.799 215.735 529.787 214.844 529.613 213.978Z" fill="#D18165"/>
<path d="M531.555 235.702C529.603 235.587 528.64 230.06 528.179 225.758L525.317 227.046L522.862 232.174C522.862 232.174 527.572 233.221 525.317 238.036C523.312 242.374 517.99 252.223 510.297 251.381C511.412 251.998 512.95 252.794 514.824 253.61C527.148 258.974 543.963 260.665 546.412 255.824C548.861 250.983 536.626 240.003 531.555 235.702Z" fill="#D18165"/>
<path d="M505.728 202.219C505.728 202.219 509.01 197.116 509.962 198.257C510.915 199.398 512.741 202.475 518.979 202.146C518.979 202.146 523.166 207.588 524.024 213.978C524.882 220.368 529.55 211.78 529.55 211.78C529.55 211.78 535.516 196.918 529.074 193.38C522.632 189.842 516.174 189.764 509.711 193.38C503.248 196.996 505.728 202.219 505.728 202.219Z" fill="black"/>
<path d="M506.403 223.618C511.637 223.859 512.228 219.84 512.228 219.84C510.128 220.503 507.899 220.656 505.728 220.285C505.728 220.285 507.267 222.032 506.403 223.618Z" fill="#BE3E5F"/>
<path d="M507.869 208.944C508.068 210.023 508.089 211.128 507.931 212.215C507.863 212.794 507.701 213.358 507.45 213.884C507.309 214.182 507.162 214.365 507.031 214.601C506.901 214.836 506.759 215.041 506.644 215.26C506.41 215.636 506.267 216.06 506.225 216.501C506.222 216.578 506.233 216.655 506.259 216.728C506.285 216.801 506.325 216.867 506.377 216.925C506.518 217.069 506.687 217.183 506.874 217.259C507.866 217.559 508.891 217.735 509.925 217.783C508.858 218.146 507.715 218.228 506.607 218.018C506.281 217.939 505.979 217.781 505.728 217.558C505.446 217.295 505.271 216.937 505.236 216.553C505.224 215.919 505.393 215.294 505.723 214.753C505.859 214.502 506.006 214.261 506.157 214.031C506.309 213.8 506.487 213.565 506.587 213.392C506.825 212.96 507.011 212.502 507.141 212.026C507.429 211.053 507.633 210.006 507.869 208.944Z" fill="#D18165"/>
<path d="M511.14 206.793C512.182 206.963 513.212 207.203 514.222 207.51C514.708 207.666 515.182 207.859 515.64 208.086C516.111 208.3 516.535 208.609 517.032 208.881C516.793 208.364 516.435 207.912 515.986 207.562C515.536 207.2 515.023 206.925 514.473 206.751C513.933 206.574 513.367 206.484 512.799 206.484C512.231 206.475 511.667 206.58 511.14 206.793Z" fill="black"/>
<path d="M505.786 205.778C505.325 205.589 504.838 205.475 504.342 205.437C504.247 205.699 504.164 205.961 504.08 206.222C504.591 206.235 505.1 206.288 505.603 206.379C506.126 206.453 506.608 206.62 507.173 206.751C506.793 206.323 506.318 205.989 505.786 205.778Z" fill="black"/>
<path d="M504.561 212.9C504.769 212.94 504.985 212.896 505.161 212.777C505.336 212.658 505.457 212.475 505.498 212.267L505.948 209.964C505.973 209.859 505.977 209.75 505.959 209.644C505.941 209.538 505.901 209.436 505.843 209.345C505.785 209.254 505.709 209.176 505.62 209.116C505.53 209.055 505.43 209.013 505.324 208.992C505.218 208.971 505.109 208.972 505.003 208.995C504.898 209.017 504.798 209.06 504.71 209.122C504.621 209.184 504.546 209.263 504.489 209.355C504.432 209.447 504.395 209.549 504.378 209.655L503.933 211.958C503.892 212.166 503.934 212.383 504.052 212.559C504.17 212.736 504.353 212.858 504.561 212.9Z" fill="black"/>
<path d="M512.626 213.392C512.835 213.432 513.051 213.388 513.227 213.269C513.404 213.151 513.526 212.967 513.568 212.759L514.018 210.456C514.05 210.252 514.001 210.043 513.882 209.874C513.764 209.705 513.584 209.588 513.381 209.548C513.178 209.508 512.968 209.548 512.794 209.66C512.62 209.771 512.496 209.946 512.448 210.147L511.998 212.45C511.958 212.658 512.001 212.873 512.119 213.05C512.236 213.226 512.418 213.349 512.626 213.392Z" fill="black"/>
<path d="M519.147 199.89C520.011 201.156 520.786 202.482 521.465 203.857C522.144 205.216 522.743 206.614 523.26 208.043C524.314 210.888 524.974 213.864 525.222 216.888C525.752 222.94 524.139 228.986 520.664 233.969C522.25 231.447 523.397 228.674 524.055 225.769C524.686 222.876 524.817 219.898 524.443 216.961C524.072 214.04 523.307 211.182 522.166 208.467C521.603 207.112 520.963 205.789 520.251 204.506C519.549 203.233 518.763 202.009 517.896 200.842L519.147 199.89Z" fill="black"/>
<path d="M456.969 295.027L451.563 295.241C451.563 295.241 450.386 294.31 448.795 293.096C445.781 290.793 441.269 287.486 440.343 287.538C438.925 287.627 436.46 288.658 442.593 293.378L442.546 293.42C442.342 293.577 441.395 294.2 438.972 294.346C436.183 294.514 426.789 295.158 425.261 295.728C424.434 296.037 422.576 298.528 436.507 298.041C436.616 298.035 436.726 298.053 436.827 298.094C436.929 298.134 437.02 298.197 437.095 298.276C437.17 298.356 437.226 298.452 437.26 298.556C437.294 298.66 437.305 298.77 437.292 298.878C437.245 299.14 437.057 299.365 436.554 299.402C435.293 299.475 424.402 299.663 424.591 301.626C424.727 303.06 427.579 302.709 437.125 302.291C437.125 302.291 438.642 302.678 437.433 303.458C437.015 303.725 426.224 304.735 425.695 305.593C425.166 306.451 423.78 307.843 439.966 306.074C439.966 306.074 440.254 306.237 438.841 307.058C437.344 307.937 432.917 309.11 431.787 310.758C430.656 312.407 433.943 311.104 442.253 308.309L453.913 306.828C461.622 307.911 490.468 310.376 497.632 302.934C504.347 295.964 507.958 271.037 507.958 271.037L491.541 270.482L484.664 289.087C484.439 289.695 484.053 290.232 483.549 290.64C483.044 291.048 482.439 291.312 481.796 291.405L455.959 295.137" fill="#EA9D7D"/>
<path d="M501.751 270.823L495.905 271.67C495.905 271.67 497.428 291.709 492.028 295.744C486.627 299.779 479.091 303.405 446.812 303.531C436.376 303.573 429.74 304.578 425.528 305.875C425.093 306.681 425.491 307.67 439.966 306.085C439.966 306.085 440.254 306.247 438.841 307.069C437.344 307.948 432.917 309.12 431.787 310.769C430.656 312.417 433.943 311.114 442.253 308.319L453.913 306.838C461.622 307.922 490.468 310.387 497.632 302.945C504.347 295.974 507.958 271.048 507.958 271.048L501.751 270.823Z" fill="#D18165"/>
<path d="M442.426 293.409C442.426 293.409 444.687 301.872 452.416 299.538" stroke="#2F170B" stroke-width="1.83984" stroke-miterlimit="10"/>
<path d="M596.37 378.493H543.576V354.132C543.576 353.115 543.98 352.139 544.699 351.42C545.419 350.7 546.394 350.296 547.412 350.296H592.544C593.561 350.296 594.537 350.7 595.257 351.42C595.976 352.139 596.38 353.115 596.38 354.132V378.493H596.37Z" fill="#FF5061"/>
<path d="M596.375 378.498V372.94L590.634 378.498H596.375Z" fill="#FC7E85"/>
<path d="M543.581 378.498V372.94L549.322 378.498H543.581Z" fill="#FC7E85"/>
<path d="M596.375 354.158V355.555H543.581V354.158C543.581 353.141 543.985 352.165 544.705 351.445C545.424 350.726 546.4 350.322 547.417 350.322H592.534C593.552 350.322 594.528 350.726 595.248 351.445C595.968 352.164 596.374 353.14 596.375 354.158Z" fill="#FC7E85"/>
<path d="M456.676 295.027V306.635" stroke="#2F170B" stroke-width="5.51953" stroke-linecap="round" stroke-linejoin="round"/>
<path d="M489.578 268.939L494.969 252.019C496.184 248.096 498.555 244.63 501.772 242.076C502.593 241.42 503.483 240.855 504.425 240.391C504.507 240.352 504.597 240.335 504.686 240.341C504.776 240.347 504.863 240.376 504.938 240.426C505.013 240.475 505.075 240.543 505.116 240.623C505.157 240.703 505.177 240.793 505.174 240.883L504.179 271.655H491.572C491.245 271.654 490.921 271.576 490.629 271.428C490.337 271.279 490.084 271.064 489.89 270.8C489.696 270.536 489.566 270.23 489.512 269.906C489.458 269.583 489.481 269.252 489.578 268.939Z" fill="#25BEEF"/>
<path d="M504.943 247.419L504.158 271.67H495.905C495.712 265.783 496.151 259.273 499.569 252.04C501.919 247.105 503.269 246.859 503.839 246.89C504.26 246.925 504.652 247.114 504.943 247.419Z" fill="#1A87C4"/>
<path d="M580.544 341.97C580.305 341.027 580.177 340.059 580.162 339.086C580.042 330.938 579.267 299.836 574.573 285.706C573.081 281.19 559.365 258.21 559.365 258.21L539.771 262.355L557.041 291.023C557.809 292.295 558.372 293.68 558.711 295.126L569.235 339.945C569.379 340.56 569.384 341.2 569.249 341.817C569.114 342.435 568.843 343.015 568.455 343.514C566.241 346.355 561.856 352.128 561.929 353.19C562.023 354.608 563.07 357.068 567.754 350.898C567.754 350.898 568.555 351.725 568.743 354.519C568.931 357.314 569.329 368.042 570.213 368.22C571.098 368.398 573.087 370.957 572.427 356.361C572.427 356.361 573.72 355.645 573.804 356.885C573.887 358.125 574.615 370.12 576.106 368.833C577.598 367.545 577.153 365.834 576.692 356.273C576.692 356.273 577.671 355.498 577.859 355.959C578.048 356.419 579.121 367.739 580.068 367.676C581.015 367.613 582.329 369.581 580.46 353.41C580.46 353.41 580.984 353.138 581.575 354.76C582.166 356.382 584.459 363.505 585.197 361.563C585.934 359.622 585.526 359.407 582.679 351.133L580.586 341.938L580.544 341.97Z" fill="#EA9D7D"/>
<path d="M539.771 262.35L544.392 261.371C547.846 265.752 552.138 268.939 557.732 277.124C562.086 283.498 564.907 289.987 566.158 292.735C569.591 300.25 568.895 304.081 571.182 322.628C572.558 333.759 573.244 339.327 573.966 342.237C573.966 342.237 579.142 363.097 576.614 368.262C576.497 368.502 576.315 368.705 576.091 368.848C574.599 370.136 573.877 358.157 573.788 356.901C573.699 355.645 572.412 356.377 572.412 356.377C573.071 370.973 571.077 368.414 570.198 368.236C569.319 368.058 568.916 357.372 568.727 354.551C568.539 351.756 567.738 350.929 567.738 350.929C563.054 357.1 562.008 354.64 561.913 353.222C561.84 352.175 566.226 346.387 568.439 343.545C568.827 343.046 569.099 342.467 569.234 341.849C569.368 341.231 569.364 340.592 569.219 339.976L558.695 295.137C558.356 293.69 557.793 292.306 557.026 291.034L539.771 262.35Z" fill="#D18165"/>
<path d="M505.017 307.336H545.575C546.21 307.336 546.838 307.199 547.416 306.935C547.993 306.67 548.507 306.284 548.921 305.802C549.336 305.32 549.641 304.755 549.817 304.145C549.993 303.534 550.035 302.893 549.94 302.265L540.368 239.093L531.639 235.786C528.117 243.254 516.132 244.719 512.673 237.22L505.184 240.067C503.893 240.382 502.753 241.138 501.96 242.204C501.167 243.27 500.771 244.58 500.84 245.907L500.919 248.262C501.543 267.234 502.164 286.207 502.782 305.18C502.782 305.331 502.824 306.095 505.017 307.336Z" fill="#25BEEF"/>
<path d="M566.838 270.728C567.069 270.569 567.266 270.365 567.417 270.128C567.568 269.891 567.669 269.627 567.716 269.35C567.762 269.073 567.752 268.79 567.687 268.517C567.622 268.244 567.502 267.987 567.335 267.761L552.577 247.267C552.577 247.267 547.344 240.527 540.363 239.093L536.375 259.89L550.479 281.347C550.53 281.426 550.598 281.495 550.676 281.548C550.755 281.601 550.844 281.638 550.937 281.656C551.031 281.674 551.127 281.673 551.22 281.653C551.313 281.633 551.401 281.595 551.478 281.54L566.838 270.728Z" fill="#25BEEF"/>
<path d="M550.479 281.321L536.469 260.037L536.5 259.833C536.559 259.444 536.718 259.077 536.962 258.769C537.205 258.46 537.525 258.22 537.889 258.072C538.253 257.924 538.649 257.874 539.039 257.926C539.429 257.977 539.798 258.13 540.111 258.367C542.78 260.398 546.198 263.899 549.327 267.112C552.598 270.462 556.099 274.057 557.732 277.124L551.452 281.514C551.297 281.617 551.108 281.654 550.926 281.617C550.743 281.581 550.583 281.475 550.479 281.321Z" fill="#1A87C4"/>
<path d="M502.777 305.179C505.854 304.091 513.851 304.054 525.966 300.239C537.338 296.654 539.63 293.744 540.661 291.667C543.094 286.768 541.504 280.556 540.849 278.008C539.677 273.418 539.342 271.67 536.987 265.856C536.197 263.904 535.94 259.178 536.987 258.791C538.207 258.341 541.655 263.6 545.183 270.911L549.934 302.264C550.029 302.892 549.988 303.534 549.812 304.144C549.636 304.755 549.33 305.32 548.916 305.802C548.502 306.283 547.988 306.669 547.411 306.934C546.833 307.199 546.205 307.336 545.57 307.335H505.017C504.437 307.336 503.881 307.111 503.464 306.709C503.047 306.307 502.802 305.758 502.782 305.179H502.777Z" fill="#1A87C4"/>
<path d="M561.076 350.322H567.388C567.692 350.934 567.838 351.612 567.811 352.295C567.811 353.567 566.116 354.838 566.116 354.838C566.116 354.838 562.678 355.498 561.877 355.121C561.076 354.744 561.076 350.322 561.076 350.322Z" fill="#FC7E85"/>
<path d="M535.422 253.636H525.06C524.482 253.636 524.014 254.105 524.014 254.683V257.341C524.014 257.919 524.482 258.388 525.06 258.388H535.422C536 258.388 536.469 257.919 536.469 257.341V254.683C536.469 254.105 536 253.636 535.422 253.636Z" fill="#E3EAF3"/>
<path d="M249.761 438.268C244.067 433.898 229.56 429.372 225.928 421.255C223.971 423.714 212.991 423.018 208.826 422.825C208.826 422.825 207.46 429.628 207.805 434.364C208.151 439.1 208.386 440.471 208.386 440.471L216.116 440.765L215.922 438.729C215.922 438.729 220.412 438.53 223.05 440.791C225.688 443.051 232.868 445.679 240.247 444.632C247.626 443.585 255.46 442.633 249.761 438.268Z" fill="#7C2F13"/>
<path d="M240.241 444.648C232.862 445.695 225.677 443.078 223.045 440.807C220.412 438.536 215.917 438.745 215.917 438.745L216.11 440.781L208.381 440.488C208.381 440.488 208.14 439.143 207.8 434.385C207.69 431.862 207.817 429.333 208.182 426.834C208.486 424.542 208.831 422.846 208.831 422.846C212.991 423.019 223.61 423.657 225.923 421.276C227.038 422.621 229.152 423.893 230.413 425.206C230.816 425.635 231.24 426.049 231.669 426.457C232.041 426.781 232.412 427.101 232.789 427.415C233.276 427.818 233.773 428.215 234.296 428.603C239.53 432.507 246.129 435.516 249.761 438.29C255.455 442.633 247.626 443.607 240.241 444.648Z" fill="#25BEEF"/>
<path d="M208.81 422.83C208.81 422.83 207.444 429.633 207.789 434.37C207.868 435.484 207.941 436.405 208.009 437.175C210.731 437.248 213.918 437.033 212.662 435.49C210.568 432.93 210.532 422.893 210.532 422.893L208.81 422.83Z" fill="#E3EAF3"/>
<path d="M250.928 439.31C250.571 438.927 250.181 438.576 249.761 438.263C247.364 436.421 243.675 434.485 239.927 432.256C236.947 433.099 234.294 434.832 232.323 437.222C230.596 439.389 230.455 442.926 229.989 443.502C231.9 445.506 251.31 443.136 251.682 441.142C251.682 441.142 251.682 441.095 251.682 441.068C251.641 440.413 251.374 439.792 250.928 439.31Z" fill="#E3EAF3"/>
<path d="M240.247 444.648C246.176 443.811 252.383 443.015 251.655 440.462C233.48 446.862 225.394 439.996 223.824 437.845C222.254 435.694 218.942 435.799 218.942 435.799C212.908 436.322 209.496 434.621 207.758 433.245C207.758 433.622 207.758 433.993 207.805 434.344C208.145 439.106 208.386 440.451 208.386 440.451L216.116 440.744L215.922 438.708C215.922 438.708 220.412 438.509 223.05 440.77C225.687 443.031 232.883 445.695 240.247 444.648Z" fill="#7C2F13"/>
<path d="M231.669 426.436C231.34 426.713 230.989 426.986 230.623 427.237C230.153 427.595 229.652 427.911 229.126 428.179C228.559 428.493 227.951 428.727 227.32 428.875C227.49 428.211 227.789 427.587 228.2 427.038C228.583 426.519 229.044 426.062 229.565 425.683C229.828 425.486 230.107 425.311 230.398 425.159C230.816 425.614 231.24 426.028 231.669 426.436Z" fill="#7C2F13"/>
<path d="M234.296 428.587C234.056 428.77 233.82 428.958 233.569 429.11C233.092 429.458 232.592 429.772 232.072 430.052C231.508 430.371 230.899 430.605 230.267 430.748C230.433 430.083 230.732 429.458 231.146 428.911C231.53 428.392 231.99 427.935 232.512 427.556C232.601 427.493 232.695 427.435 232.789 427.378C233.276 427.796 233.773 428.194 234.296 428.587Z" fill="#7C2F13"/>
<path d="M217.23 438.211C211.537 433.846 197.763 430.402 194.131 422.307C192.168 424.766 181.1 422.484 176.934 422.307C176.934 422.307 174.929 429.565 175.275 434.343C175.62 439.121 175.84 440.435 175.84 440.435L183.57 440.723L183.376 438.692C183.376 438.692 187.866 438.493 190.504 440.749C193.141 443.004 200.316 445.637 207.701 444.59C215.085 443.543 222.94 442.575 217.23 438.211Z" fill="#7C2F13"/>
<path d="M207.711 444.59C200.332 445.637 193.147 443.02 190.514 440.749C187.882 438.478 183.386 438.692 183.386 438.692L183.58 440.728L175.84 440.435C175.84 440.435 175.599 439.085 175.259 434.327C175.086 431.946 175.61 429.094 175.908 426.839C176.13 425.304 176.469 423.789 176.923 422.307C181.11 422.484 191.289 423.044 194.115 422.307C195.531 423.006 196.805 423.963 197.872 425.127C198.275 425.556 198.699 425.975 199.128 426.378C199.557 426.781 199.871 427.022 200.248 427.336C200.735 427.739 201.232 428.136 201.755 428.529C206.989 432.428 213.588 435.437 217.22 438.211C222.94 442.575 215.09 443.549 207.711 444.59Z" fill="#25BEEF"/>
<path d="M176.934 422.307C176.934 422.307 174.929 429.565 175.275 434.343C175.353 435.458 175.427 436.379 175.495 437.143C178.216 437.216 181.403 437.002 180.147 435.458C178.054 432.899 178.017 422.861 178.017 422.861C177.358 422.83 177.41 422.307 176.934 422.307Z" fill="#E3EAF3"/>
<path d="M218.397 439.258C218.041 438.874 217.65 438.524 217.23 438.211C214.834 436.374 211.144 434.438 207.397 432.203C204.416 433.049 201.764 434.783 199.793 437.175C198.066 439.336 197.925 442.874 197.459 443.455C199.369 445.459 218.779 443.088 219.151 441.095C219.151 441.095 219.151 441.047 219.151 441.026C219.114 440.367 218.847 439.741 218.397 439.258Z" fill="#E3EAF3"/>
<path d="M207.716 444.59C213.646 443.753 219.852 442.958 219.125 440.404C200.949 446.809 192.864 439.943 191.294 437.787C189.724 435.631 186.411 435.741 186.411 435.741C180.377 436.264 176.965 434.563 175.228 433.192C175.228 433.564 175.228 433.935 175.275 434.291C175.615 439.048 175.856 440.399 175.856 440.399L183.585 440.686L183.392 438.656C183.392 438.656 187.882 438.457 190.519 440.713C193.157 442.968 200.332 445.637 207.716 444.59Z" fill="#7C2F13"/>
<path d="M199.139 426.378C198.809 426.661 198.458 426.928 198.092 427.184C197.621 427.539 197.12 427.853 196.595 428.121C196.031 428.44 195.422 428.674 194.79 428.817C194.961 428.155 195.259 427.533 195.669 426.985C196.051 426.465 196.512 426.008 197.035 425.63C197.299 425.436 197.577 425.261 197.867 425.107C198.286 425.557 198.71 425.97 199.139 426.378Z" fill="#7C2F13"/>
<path d="M201.766 428.529C201.525 428.712 201.29 428.895 201.039 429.052C200.56 429.397 200.06 429.709 199.542 429.989C198.977 430.308 198.369 430.542 197.736 430.685C197.902 430.021 198.201 429.398 198.616 428.854C198.998 428.334 199.458 427.876 199.981 427.498C200.071 427.432 200.163 427.371 200.259 427.315C200.745 427.739 201.243 428.137 201.766 428.529Z" fill="#7C2F13"/>
<path d="M173.427 306.367C170.601 299.225 169.549 291.503 170.361 283.864C170.898 279.01 172.192 274.271 174.197 269.818C174.197 269.818 210.731 275.234 220.951 270.127C220.951 270.127 229.121 342.624 229.377 349.009C229.633 355.393 225.928 421.82 225.928 421.82C225.928 421.82 215.985 425.824 208.852 423.097C208.852 423.097 203.231 372.171 204.084 359.25L203.619 350.448C203.336 356.833 194.073 422.71 194.073 422.71C194.073 422.71 183.852 425.85 176.955 422.553C176.955 422.553 175.625 371.339 177.557 358.512L177.75 333.916L173.427 306.367Z" fill="#EF3E3B"/>
<path d="M202.807 326.804C204.173 311.104 206.994 296.053 207.915 296.152C208.622 296.225 207.915 304.034 207.659 321.953C207.47 336.569 207.763 346.382 208.182 360.271C208.983 387.385 210.071 392.032 211.233 395.784C214.278 405.394 219.286 414.267 225.939 421.841C222.589 423.348 217.157 425.086 211.092 423.746C210.338 423.578 209.593 423.368 208.862 423.118C208.862 423.118 203.242 372.193 204.095 359.271L202.279 335.533C202.342 333.131 202.483 330.509 202.807 326.804Z" fill="#C82833"/>
<path d="M170.361 283.886C170.898 279.032 172.192 274.292 174.197 269.839C174.197 269.839 210.731 275.256 220.946 270.148C221.339 273.126 192.864 273.717 183.198 291.552C180.801 295.98 181.382 345.979 180.801 359.853C179.666 386.951 180.419 391.666 181.325 395.486C183.672 405.275 188.025 414.471 194.11 422.49V422.537C193.403 422.794 192.613 423.061 191.749 423.291C189.002 423.872 184.276 424.547 180.001 423.584C179.734 423.516 179.477 423.448 179.195 423.37C178.504 423.161 177.825 422.918 177.159 422.642L176.892 422.501C176.892 422.448 176.955 420.931 176.866 418.241C176.594 405.639 175.976 369.048 177.567 358.513L177.761 333.916L177.237 330.41V330.363L173.48 306.394C170.635 299.254 169.564 291.53 170.361 283.886Z" fill="#C82833"/>
<path d="M199.432 277.636C191.31 277.636 180.592 276.977 172.522 274.088L172.873 273.099C186.275 277.903 207.23 276.448 210.689 276.166L210.563 272.173L211.61 272.141L211.767 277.118L211.28 277.165C211.17 277.176 206.193 277.636 199.432 277.636Z" fill="#7C2F13"/>
<path d="M211.275 277.165L211.181 276.119C214.606 275.789 218.002 275.201 221.339 274.36L221.616 275.365C218.219 276.224 214.762 276.826 211.275 277.165Z" fill="#7C2F13"/>
<path d="M208.355 296.435L207.476 295.864C211.139 290.244 209.726 276.92 209.715 276.789L210.762 276.674C210.814 277.234 212.217 290.5 208.355 296.435Z" fill="#7C2F13"/>
<path d="M176.395 296.66L176.138 295.644C182.638 293.991 190.64 283.247 190.718 283.137L191.561 283.759C191.226 284.215 183.256 294.917 176.395 296.66Z" fill="#7C2F13"/>
<path d="M208.632 275.773C210.652 275.773 210.657 272.633 208.632 272.633C206.607 272.633 206.612 275.773 208.632 275.773Z" fill="#7C2F13"/>
<path d="M187.008 422.862L185.961 422.815C185.961 422.37 187.987 378.101 189.101 356.221C190.588 327.301 184.145 291.217 184.083 290.856L185.129 290.673C185.197 291.034 191.655 327.233 190.164 356.278C189.033 378.148 187.029 422.417 187.008 422.862Z" fill="#7C2F13"/>
<path d="M192.712 172.677C192.712 172.677 194.021 188.534 200.295 195.41C206.57 202.287 200.437 172.153 200.437 172.153L192.712 172.677Z" fill="#000001"/>
<path d="M212.855 203.093C212.531 201.931 213.902 199.11 214.739 197.483C209.061 198.351 202.3 194.343 198.778 187.246C198.564 187.36 198.335 187.441 198.097 187.487C198.097 187.487 197.574 202.255 194.35 202.433C190.608 205.647 178.383 216.511 180.869 221.551C182.963 225.779 194.246 223.597 211.076 220.347C212.713 220.094 214.239 219.366 215.467 218.254C218.999 214.883 218.031 208.834 217.534 207.468C216.89 205.683 213.332 204.762 212.855 203.093Z" fill="#EA9D7D"/>
<path d="M200.583 204.773C198.354 199.937 203.038 198.911 203.038 198.911L203.006 198.843C206.104 200.937 209.564 201.842 212.672 201.235C212.819 201.209 212.96 201.172 213.101 201.136C213.548 199.862 214.096 198.627 214.739 197.441C209.061 198.315 202.624 193.929 199.102 186.828C199.017 187.021 198.875 187.183 198.696 187.294C198.517 187.406 198.308 187.46 198.097 187.45C198.097 187.45 197.998 190.198 197.621 193.333C197.129 197.477 196.166 202.329 194.345 202.428C189.269 206.735 177.028 217.694 179.482 222.55C181.937 227.407 198.746 225.69 211.071 220.342C212.95 219.525 214.483 218.73 215.598 218.113C207.905 218.96 202.588 209.111 200.583 204.773Z" fill="#D18165"/>
<path d="M205.953 159.389C199.463 160.656 195.486 168.919 196.402 178.512H196.349C194.575 178.857 193.529 181.128 194.015 183.625C194.502 186.121 196.329 187.811 198.097 187.482C198.299 187.473 198.496 187.422 198.677 187.332C198.857 187.242 199.016 187.114 199.144 186.958C202.745 194.217 209.36 198.529 215.121 197.425C222.265 196.033 224.793 187.215 222.689 176.418C220.585 165.622 213.096 158.023 205.953 159.389Z" fill="#EA9D7D"/>
<path d="M196.287 180.715C196.115 181.577 196.102 182.464 196.25 183.332C196.336 183.737 196.469 184.13 196.648 184.504C196.721 184.708 196.847 184.896 196.941 185.116C197.035 185.336 197.176 185.524 197.276 185.775C197.029 185.701 196.792 185.597 196.569 185.467C196.35 185.325 196.148 185.158 195.967 184.97C195.591 184.572 195.334 184.077 195.224 183.541C195.114 183.004 195.156 182.448 195.345 181.934C195.525 181.44 195.854 181.014 196.287 180.715Z" fill="#D18165"/>
<path d="M212.887 189.319C214.794 189.887 216.66 190.586 218.471 191.412C218.471 191.412 218.9 188.628 216.697 187.775C214.493 186.922 212.887 189.319 212.887 189.319Z" fill="#BE3E5F"/>
<path d="M218.026 175.743C218.261 176.79 218.466 177.837 218.753 178.847C218.883 179.321 219.07 179.778 219.308 180.207C219.408 180.385 219.591 180.626 219.732 180.851C219.873 181.076 220.03 181.317 220.172 181.568C220.499 182.11 220.666 182.735 220.653 183.368C220.619 183.752 220.446 184.109 220.166 184.373C219.916 184.6 219.611 184.758 219.282 184.834C218.174 185.045 217.031 184.964 215.964 184.598C217.001 184.553 218.028 184.377 219.02 184.075C219.207 183.998 219.376 183.884 219.517 183.74C219.621 183.624 219.673 183.471 219.664 183.316C219.622 182.877 219.479 182.454 219.245 182.081C219.13 181.861 218.999 181.641 218.863 181.421C218.727 181.202 218.586 180.998 218.439 180.699C218.191 180.174 218.029 179.612 217.958 179.035C217.803 177.941 217.826 176.83 218.026 175.743Z" fill="#D18165"/>
<path d="M209.087 174.111C210.125 174.292 211.174 174.404 212.227 174.446C212.738 174.459 213.249 174.432 213.756 174.367C214.279 174.315 214.771 174.179 215.326 174.074C214.925 174.483 214.434 174.791 213.892 174.974C213.349 175.166 212.777 175.259 212.201 175.246C211.632 175.232 211.069 175.13 210.532 174.943C210 174.763 209.51 174.48 209.087 174.111Z" fill="#000001"/>
<path d="M222.118 174.278C221.977 174.325 221.831 174.362 221.684 174.398C221.41 174.459 221.132 174.499 220.852 174.519C220.565 174.542 220.276 174.542 219.988 174.519C219.423 174.477 218.872 174.324 218.366 174.069C219.141 173.99 219.873 173.922 220.58 173.802C220.894 173.755 221.197 173.692 221.501 173.618C221.637 173.592 221.768 173.561 221.899 173.524C221.977 173.77 222.05 174.021 222.118 174.278Z" fill="#000001"/>
<path d="M221.333 179.7C221.23 179.72 221.123 179.72 221.02 179.699C220.917 179.679 220.818 179.638 220.731 179.579C220.643 179.52 220.568 179.444 220.51 179.356C220.452 179.269 220.411 179.17 220.391 179.066L219.941 176.764C219.913 176.561 219.964 176.355 220.084 176.188C220.203 176.022 220.381 175.907 220.583 175.868C220.784 175.829 220.992 175.869 221.165 175.979C221.338 176.089 221.462 176.261 221.511 176.46L221.961 178.763C222.001 178.97 221.958 179.185 221.84 179.361C221.723 179.536 221.54 179.658 221.333 179.7Z" fill="#000001"/>
<path d="M213.264 180.192C213.16 180.213 213.054 180.213 212.951 180.193C212.847 180.172 212.749 180.131 212.662 180.072C212.575 180.013 212.5 179.937 212.442 179.849C212.385 179.761 212.346 179.662 212.327 179.558L211.877 177.261C211.852 177.156 211.848 177.047 211.866 176.941C211.884 176.834 211.923 176.733 211.982 176.642C212.04 176.551 212.116 176.473 212.205 176.412C212.294 176.352 212.395 176.31 212.501 176.289C212.607 176.268 212.716 176.269 212.821 176.291C212.927 176.314 213.027 176.357 213.115 176.419C213.203 176.481 213.278 176.56 213.335 176.652C213.392 176.743 213.43 176.845 213.447 176.952L213.892 179.255C213.912 179.358 213.912 179.463 213.892 179.566C213.871 179.669 213.831 179.767 213.772 179.854C213.714 179.941 213.639 180.015 213.552 180.073C213.464 180.131 213.366 180.171 213.264 180.192Z" fill="#000001"/>
<path d="M207.481 182.018C207.481 182.018 220.397 181.202 223.374 182.018C223.374 182.018 224.468 195.358 215.927 197.257C207.387 199.157 202.41 192.547 202.41 192.547L207.481 182.018Z" fill="#69BAEF"/>
<path d="M198.056 187.529C198.722 187.926 199.354 188.38 199.945 188.884C200.531 189.378 201.092 189.902 201.625 190.454C202.159 190.999 202.664 191.572 203.137 192.171C203.628 192.771 204.064 193.414 204.44 194.091C203.771 193.699 203.139 193.247 202.551 192.741C201.38 191.759 200.31 190.661 199.359 189.465C198.867 188.86 198.431 188.212 198.056 187.529Z" fill="#69BAEF"/>
<path d="M198.343 178.956C199.423 179.148 200.489 179.409 201.536 179.736C202.582 180.055 203.629 180.401 204.623 180.783C205.618 181.165 206.638 181.589 207.627 182.049C208.626 182.51 209.595 183.034 210.527 183.619C209.447 183.427 208.381 183.167 207.334 182.84C206.288 182.52 205.241 182.175 204.247 181.793C203.252 181.411 202.232 180.982 201.243 180.526C200.244 180.065 199.276 179.54 198.343 178.956Z" fill="#69BAEF"/>
<path d="M214.698 183.588C215.288 183.233 215.928 182.969 216.597 182.803C217.258 182.624 217.938 182.521 218.623 182.494C219.315 182.459 220.009 182.521 220.684 182.678C221.374 182.824 222.017 183.137 222.558 183.588C221.862 183.52 221.223 183.499 220.585 183.489C219.947 183.478 219.303 183.525 218.664 183.541C217.372 183.578 216.084 183.667 214.698 183.588Z" fill="white"/>
<path d="M215.927 197.273C217.365 196.968 218.685 196.254 219.727 195.217C217.586 194.63 214.268 194.411 211.725 191.517C210.408 190.037 209.556 188.202 209.276 186.241C209.135 184.765 209.333 183.275 209.857 181.887C208.438 181.96 207.507 182.018 207.507 182.018L202.436 192.532C202.436 192.532 207.392 199.162 215.927 197.273Z" fill="#396E8E"/>
<path d="M221.066 170.908C221.066 170.908 216.88 166.041 203.247 168.568C203.247 168.568 205.393 173.069 203.441 174.095C201.489 175.121 201.023 175.398 201.871 178.093C202.718 180.788 204.278 183.562 202.017 182.714C199.756 181.866 195.957 175.471 194.758 180.359C193.597 185.095 196.328 186.639 196.067 187.33C196.051 187.364 196.027 187.395 195.999 187.419C195.97 187.443 195.936 187.461 195.899 187.471C195.025 187.738 191.577 182.322 190.755 177.209C189.646 170.301 192.995 161.87 199.353 158.505C201.116 157.606 203.035 157.051 205.005 156.872C216.236 155.349 228.895 161.875 228.493 166.166C228.362 167.548 226.818 169.259 221.066 170.908Z" fill="#000001"/>
<path d="M233.899 235.927L240.775 254.526C240.999 255.136 241.384 255.673 241.889 256.082C242.394 256.492 243 256.757 243.643 256.85L269.459 260.597C270.427 260.74 271.414 260.674 272.353 260.403C273.293 260.132 274.164 259.663 274.907 259.027C277.764 256.551 282.354 252.705 283.317 252.705C284.735 252.705 287.263 253.589 281.422 258.676C281.422 258.676 282.296 259.419 285.086 259.419C287.875 259.419 298.619 259.1 298.855 259.942C299.09 260.785 301.775 262.627 287.174 262.941C287.174 262.941 286.541 264.286 287.802 264.286C289.063 264.286 301.068 264.208 299.88 265.783C298.692 267.358 296.96 267.049 287.409 267.206C287.409 267.206 286.698 268.253 287.174 268.389C287.65 268.525 299.012 268.865 299.012 269.812C299.012 270.76 301.068 271.942 284.803 271.152C284.803 271.152 284.568 271.707 286.227 272.199C287.886 272.691 295.123 274.491 293.25 275.339C291.376 276.187 291.12 275.81 282.673 273.523L275.31 272.335C274.054 272.13 272.775 272.116 271.516 272.293C263.807 273.376 234.961 275.841 227.796 268.394C221.082 261.423 217.471 236.497 217.471 236.497L233.899 235.927Z" fill="#EA9D7D"/>
<path d="M299.022 269.792C299.022 268.844 287.655 268.525 287.184 268.368C286.713 268.211 287.42 267.186 287.42 267.186C294.71 267.065 297.447 267.217 298.86 266.599C295.39 265.527 288.875 266.793 277.576 267.976C257.051 270.132 251.053 268.824 248.688 268.227C242.178 266.589 235.976 264.836 232.109 259.435C227.399 252.862 229.372 245.2 229.539 236.073L217.503 236.476C217.503 236.476 221.114 261.403 227.828 268.373C234.987 275.81 263.781 273.361 271.521 272.278C272.789 272.099 274.077 272.111 275.341 272.314L282.705 273.502C291.151 275.789 291.387 276.182 293.281 275.318C295.176 274.455 287.917 272.633 286.258 272.178C284.599 271.723 284.835 271.131 284.835 271.131C301.079 271.922 299.022 270.739 299.022 269.792Z" fill="#D18165"/>
<path d="M281.422 258.629C281.422 258.629 281.067 267.384 273.012 266.787" stroke="#2F170B" stroke-width="1.83984" stroke-miterlimit="10"/>
<path d="M268.742 260.471V272.084" stroke="#2F170B" stroke-width="5.51953" stroke-linecap="round" stroke-linejoin="round"/>
<path d="M244.177 254.672C243.586 254.479 243.049 254.149 242.612 253.707C242.174 253.266 241.847 252.727 241.66 252.134L230.45 217.463C229.232 213.541 226.861 210.076 223.646 207.52C222.823 206.868 221.934 206.303 220.993 205.835C220.912 205.796 220.822 205.779 220.732 205.785C220.642 205.791 220.555 205.82 220.48 205.87C220.405 205.919 220.344 205.987 220.303 206.067C220.261 206.147 220.241 206.237 220.245 206.327L221.244 237.104L222.066 259.21C222.215 263.176 223.895 266.93 226.753 269.684C229.611 272.438 233.425 273.977 237.394 273.978H266.91L266.157 259.157C266.769 259.173 250.153 256.582 244.177 254.672Z" fill="#25BEEF"/>
<path d="M266.67 268.881C243.79 271.372 235.631 266.667 232.486 261.748C228.906 256.153 229.042 245.954 229.189 234.807C229.189 234.807 229.314 225.355 225.829 217.484C225.201 216.077 223.484 212.251 221.558 212.335C221.146 212.374 220.762 212.56 220.475 212.858L221.265 237.109L222.087 259.215C222.236 263.181 223.916 266.935 226.774 269.689C229.632 272.443 233.446 273.982 237.415 273.983H266.931L266.67 268.881Z" fill="#1A87C4"/>
<path d="M220.407 272.785H173.951C173.743 272.785 173.538 272.74 173.351 272.652C173.163 272.564 172.997 272.436 172.864 272.277C172.732 272.117 172.636 271.93 172.584 271.73C172.532 271.529 172.525 271.319 172.564 271.115L185.061 204.542L194.921 202.355C198.443 209.828 209.291 210.163 212.751 202.669L220.24 205.516C221.531 205.829 222.673 206.584 223.466 207.651C224.26 208.718 224.655 210.029 224.583 211.356L224.505 213.711C223.884 232.684 223.263 251.656 222.642 270.629C222.636 270.781 222.595 271.545 220.407 272.785Z" fill="#25BEEF"/>
<path d="M144.874 307.419C145.114 306.476 145.242 305.509 145.256 304.536C145.377 296.388 146.151 265.286 150.846 251.156C152.337 246.645 166.054 223.665 166.054 223.665L185.647 227.805L168.377 256.478C167.611 257.751 167.048 259.135 166.708 260.581L156.184 305.399C156.039 306.015 156.034 306.655 156.169 307.272C156.304 307.89 156.575 308.469 156.963 308.968C159.177 311.81 163.563 317.583 163.489 318.645C163.395 320.058 162.348 322.523 157.665 316.353C157.665 316.353 156.864 317.18 156.675 319.974C156.487 322.769 156.089 333.497 155.205 333.675C154.32 333.853 152.332 336.407 152.996 321.816C152.996 321.816 151.699 321.099 151.615 322.34C151.531 323.58 150.809 335.58 149.312 334.293C147.815 333.005 148.266 331.294 148.726 321.733C148.726 321.733 147.747 320.953 147.559 321.419C147.371 321.884 146.298 333.199 145.351 333.136C144.403 333.073 143.09 335.041 144.963 318.87C144.963 318.87 144.44 318.598 143.843 320.22C143.247 321.842 140.965 328.965 140.222 327.023C139.479 325.082 139.892 324.867 142.739 316.588L144.859 307.398L144.874 307.419Z" fill="#EA9D7D"/>
<path d="M185.647 227.794L181.026 226.821C177.572 231.201 173.281 234.383 167.686 242.568C163.332 248.947 160.512 255.437 159.261 258.179C155.828 265.699 156.524 269.53 154.237 288.072C152.86 299.208 152.175 304.777 151.453 307.686C151.453 307.686 146.277 328.546 148.805 333.712C148.922 333.951 149.103 334.154 149.328 334.298C150.825 335.585 151.547 323.606 151.631 322.345C151.714 321.084 153.012 321.821 153.012 321.821C152.348 336.412 154.341 333.858 155.221 333.68C156.1 333.502 156.503 322.816 156.691 319.995C156.88 317.2 157.68 316.374 157.68 316.374C162.364 322.544 163.411 320.079 163.505 318.666C163.578 317.619 159.193 311.831 156.979 308.989C156.591 308.49 156.32 307.911 156.185 307.293C156.05 306.676 156.055 306.036 156.199 305.42L166.724 260.597C167.064 259.151 167.627 257.767 168.393 256.494L185.647 227.794Z" fill="#D18165"/>
<path d="M145.319 304.138C144.991 304.14 144.675 304.016 144.436 303.792C144.196 303.569 144.052 303.261 144.032 302.934C143.634 296.654 144.555 267.599 148.108 253.082C150.725 242.468 169.445 214.988 169.445 214.988C169.445 214.988 178.059 205.976 185.061 204.521L189.049 225.319L168.9 258.608C168.707 258.901 160.674 295.283 158.753 302.777C158.657 303.169 158.432 303.516 158.114 303.763C157.795 304.01 157.403 304.142 157 304.138H145.319Z" fill="#25BEEF"/>
<path d="M174.94 246.77L188.949 225.481L188.918 225.282C188.859 224.893 188.7 224.527 188.457 224.218C188.213 223.909 187.894 223.669 187.53 223.522C187.165 223.374 186.769 223.323 186.379 223.375C185.99 223.427 185.62 223.579 185.307 223.817C182.638 225.847 179.221 229.348 176.091 232.556C172.82 235.906 169.319 239.506 167.686 242.568L173.966 246.964C174.122 247.066 174.311 247.103 174.493 247.067C174.675 247.03 174.836 246.924 174.94 246.77Z" fill="#1A87C4"/>
<path d="M222.642 270.629C219.564 269.54 211.568 269.504 199.453 265.683C188.081 262.104 185.789 259.194 184.758 257.111C182.324 252.218 183.915 246.006 184.569 243.452C185.741 238.868 186.076 237.12 188.431 231.3C189.222 229.348 189.478 224.623 188.431 224.235C187.212 223.79 182.413 229.285 178.886 236.596L172.606 271.074C172.56 271.279 172.562 271.493 172.61 271.698C172.658 271.903 172.751 272.095 172.883 272.259C173.016 272.424 173.183 272.556 173.373 272.647C173.563 272.738 173.771 272.785 173.982 272.785H220.386C220.966 272.787 221.523 272.562 221.941 272.16C222.358 271.757 222.602 271.208 222.621 270.629H222.642Z" fill="#1A87C4"/>
<path d="M157 304.138C157.397 304.138 157.782 304.007 158.096 303.765C158.409 303.522 158.633 303.182 158.732 302.798C160.653 295.304 168.676 258.922 168.88 258.629L181.963 236.973L183.324 230.369L167.624 242.567C167.624 242.567 161.302 250.344 159.606 260.471C157.911 270.597 152.075 304.101 152.07 304.138H157Z" fill="#1A87C4"/>
<path d="M529.221 293.87H253.995V447.248H529.221V293.87Z" fill="#CC7829"/>
<path d="M529.216 293.87H467.672V447.248H529.216V293.87Z" fill="#A04833"/>
<path d="M546.779 279.128H236.437V293.87H546.779V279.128Z" fill="#895237"/>
<path d="M546.779 279.128H236.437V293.87H546.779V279.128Z" fill="#A04833"/>
<path d="M546.773 279.128H450.402V293.87H546.773V279.128Z" fill="#843A2C"/>
<path d="M421.095 331.194H297.588V368.351H421.095V331.194Z" fill="#E3EAF3"/>
<path d="M463.862 198.922H368.5C367.315 198.922 366.354 199.882 366.354 201.067V261.277C366.354 262.462 367.315 263.423 368.5 263.423H463.862C465.047 263.423 466.007 262.462 466.007 261.277V201.067C466.007 199.882 465.047 198.922 463.862 198.922Z" fill="#9D9F9F"/>
<path d="M465.296 198.922H455.949C455.559 198.922 455.242 199.238 455.242 199.628V262.716C455.242 263.106 455.559 263.422 455.949 263.422H465.296C465.686 263.422 466.002 263.106 466.002 262.716V199.628C466.002 199.238 465.686 198.922 465.296 198.922Z" fill="#454851"/>
<path d="M408.31 248.293H424.052C424.239 248.293 424.425 248.33 424.599 248.402C424.772 248.474 424.929 248.579 425.062 248.711C425.195 248.844 425.3 249.002 425.372 249.175C425.444 249.348 425.481 249.534 425.481 249.722V272.11H406.881V249.727C406.881 249.539 406.917 249.352 406.988 249.179C407.06 249.005 407.165 248.846 407.298 248.713C407.431 248.58 407.588 248.474 407.762 248.402C407.936 248.33 408.122 248.293 408.31 248.293Z" fill="#E3EAF3"/>
<path d="M420.456 248.293H424.68C424.888 248.296 425.088 248.38 425.236 248.527C425.383 248.675 425.467 248.874 425.47 249.083V272.11H419.656V249.083C419.659 248.873 419.744 248.672 419.894 248.524C420.044 248.376 420.246 248.293 420.456 248.293Z" fill="#ABBCCA"/>
<path d="M393.751 272.11H438.606C438.887 272.11 439.166 272.166 439.427 272.273C439.687 272.381 439.924 272.539 440.123 272.739C440.322 272.938 440.48 273.174 440.588 273.435C440.696 273.695 440.751 273.974 440.751 274.256V279.107H391.605V274.256C391.605 273.974 391.661 273.695 391.768 273.435C391.876 273.174 392.034 272.938 392.234 272.739C392.433 272.539 392.669 272.381 392.93 272.273C393.19 272.166 393.469 272.11 393.751 272.11Z" fill="#9D9F9F"/>
<path d="M434.592 272.11H439.94C440.154 272.11 440.359 272.195 440.51 272.346C440.661 272.497 440.746 272.702 440.746 272.916V279.123H433.786V272.937C433.783 272.829 433.802 272.722 433.841 272.622C433.88 272.522 433.939 272.431 434.014 272.354C434.089 272.276 434.179 272.215 434.278 272.173C434.377 272.132 434.484 272.11 434.592 272.11Z" fill="#454851"/>
<path d="M421.707 228.856H410.644C409.364 228.856 408.326 229.893 408.326 231.172C408.326 232.451 409.364 233.488 410.644 233.488H421.707C422.988 233.488 424.026 232.451 424.026 231.172C424.026 229.893 422.988 228.856 421.707 228.856Z" fill="#E3EAF3"/>
</g>
<defs>
<filter id="filter0_i_10_743" x="31.625" y="24.7495" width="564.755" height="426.505" filterUnits="userSpaceOnUse" color-interpolation-filters="sRGB">
<feFlood flood-opacity="0" result="BackgroundImageFix"/>
<feBlend mode="normal" in="SourceGraphic" in2="BackgroundImageFix" result="shape"/>
<feColorMatrix in="SourceAlpha" type="matrix" values="0 0 0 0 0 0 0 0 0 0 0 0 0 0 0 0 0 0 127 0" result="hardAlpha"/>
<feOffset dy="4"/>
<feGaussianBlur stdDeviation="2"/>
<feComposite in2="hardAlpha" operator="arithmetic" k2="-1" k3="1"/>
<feColorMatrix type="matrix" values="0 0 0 0 0 0 0 0 0 0 0 0 0 0 0 0 0 0 0.25 0"/>
<feBlend mode="normal" in2="shape" result="effect1_innerShadow_10_743"/>
</filter>
</defs>
</svg>
