<svg width="34" height="8" viewBox="0 0 34 8" fill="none" xmlns="http://www.w3.org/2000/svg">
<path d="M16.8936 7.7791C18.8838 7.7791 20.4971 6.16574 20.4971 4.17556C20.4971 2.18538 18.8838 0.572021 16.8936 0.572021C14.9034 0.572021 13.29 2.18538 13.29 4.17556C13.29 6.16574 14.9034 7.7791 16.8936 7.7791Z" fill="black"/>
<path d="M29.5059 7.7791C31.4961 7.7791 33.1094 6.16574 33.1094 4.17556C33.1094 2.18538 31.4961 0.572021 29.5059 0.572021C27.5157 0.572021 25.9023 2.18538 25.9023 4.17556C25.9023 6.16574 27.5157 7.7791 29.5059 7.7791Z" fill="black"/>
<path d="M4.28078 7.7791C6.27096 7.7791 7.88432 6.16574 7.88432 4.17556C7.88432 2.18538 6.27096 0.572021 4.28078 0.572021C2.29061 0.572021 0.677246 2.18538 0.677246 4.17556C0.677246 6.16574 2.29061 7.7791 4.28078 7.7791Z" fill="black"/>
</svg>
