<svg width="133" height="133" viewBox="0 0 133 133" fill="none" xmlns="http://www.w3.org/2000/svg">
<path d="M124 66C124 70.9714 117.924 75.059 116.709 79.5886C115.493 84.1181 118.642 90.9124 116.267 95C113.891 99.0876 106.49 99.6952 103.12 103.12C99.7505 106.545 99.1981 113.836 95 116.211C90.8019 118.587 84.2838 115.438 79.5886 116.709C74.8933 117.979 70.9162 124 66 124C61.0838 124 56.9962 117.924 52.4114 116.709C47.8267 115.493 41.3638 118.642 37 116.211C32.6362 113.781 32.3048 106.49 28.88 103.12C25.4552 99.7505 18.1638 99.1429 15.7333 95C13.3029 90.8571 16.5619 84.339 15.2914 79.5886C14.021 74.8381 8 70.9714 8 66C8 61.0286 14.0762 56.941 15.2914 52.4114C16.5067 47.8819 13.3581 41.3638 15.7333 37C18.1086 32.6362 25.4552 32.3048 28.88 28.88C32.3048 25.4552 32.8571 18.1638 37 15.7333C41.1429 13.3029 47.661 16.5619 52.4114 15.2914C57.1619 14.021 61.0286 8 66 8C70.9714 8 75.059 14.0762 79.5886 15.2914C84.1181 16.5067 90.6362 13.3581 95 15.7333C99.3638 18.1086 99.6952 25.4552 103.12 28.88C106.545 32.3048 113.836 32.8571 116.267 37C118.697 41.1429 115.438 47.661 116.709 52.4114C117.979 57.1619 124 61.0286 124 66Z" stroke="url(#paint0_linear_10_1205)" stroke-width="8" stroke-miterlimit="10" stroke-linecap="square"/>
<path d="M40.0662 92.934V45.3311" stroke="url(#paint1_linear_10_1205)" stroke-width="8" stroke-miterlimit="10"/>
<path d="M40 82.3562H45.5263L56.0815 87.8949V87.8949C56.9981 88.4667 57.4564 88.7525 57.8969 88.9988C63.9055 92.3571 71.1784 92.5575 77.3628 89.5353C77.8163 89.3137 78.2896 89.0535 79.2363 88.5331L80.3973 87.8949C82.4949 87.8952 81.95 86.7999 83.6025 85.505C85.255 84.2102 87.1902 80.75 89.5157 80.75L92.7209 67.8447C92.9246 67.1056 93.0177 66.3403 92.9972 65.5738C92.9972 63.0766 92.0074 60.6816 90.2456 58.9158C88.4837 57.15 86.0942 56.158 83.6025 56.158H72.2736L75.9762 48.7361C77.0251 46.6779 77.5742 44.4006 77.5789 42.0896C77.5862 41.1612 77.41 40.2405 77.0606 39.3807C76.7111 38.5209 76.1953 37.7389 75.5429 37.0798C74.8904 36.4207 74.1142 35.8977 73.2591 35.5407C72.404 35.1837 71.4868 35 70.5605 35C69.4857 35.0191 68.4294 35.2834 67.4719 35.7728C66.5143 36.2623 65.6806 36.964 65.0342 37.8248L50.9421 55.9364H40.3868" stroke="url(#paint2_linear_10_1205)" stroke-width="8" stroke-miterlimit="10" stroke-linecap="round"/>
<defs>
<linearGradient id="paint0_linear_10_1205" x1="66" y1="8" x2="66" y2="124" gradientUnits="userSpaceOnUse">
<stop stop-color="#A86060"/>
<stop offset="0.328125" stop-color="#512E2E" stop-opacity="0.483776"/>
<stop offset="0.588542" stop-color="#462828" stop-opacity="0.416667"/>
<stop offset="0.9999" stop-color="#4B59D6"/>
<stop offset="1" stop-opacity="0"/>
</linearGradient>
<linearGradient id="paint1_linear_10_1205" x1="40.5662" y1="45.3311" x2="40.5662" y2="92.934" gradientUnits="userSpaceOnUse">
<stop stop-color="#A86060"/>
<stop offset="0.328125" stop-color="#512E2E" stop-opacity="0.483776"/>
<stop offset="0.588542" stop-color="#462828" stop-opacity="0.416667"/>
<stop offset="0.9999" stop-color="#4B59D6"/>
<stop offset="1" stop-opacity="0"/>
</linearGradient>
<linearGradient id="paint2_linear_10_1205" x1="66.5" y1="35" x2="66.5" y2="95" gradientUnits="userSpaceOnUse">
<stop stop-color="#A86060"/>
<stop offset="0.328125" stop-color="#512E2E" stop-opacity="0.483776"/>
<stop offset="0.588542" stop-color="#462828" stop-opacity="0.416667"/>
<stop offset="0.9999" stop-color="#4B59D6"/>
<stop offset="1" stop-opacity="0"/>
</linearGradient>
</defs>
</svg>
