<svg width="19" height="19" viewBox="0 0 19 19" fill="none" xmlns="http://www.w3.org/2000/svg">
<g clip-path="url(#clip0_10_2692)">
<path d="M3.80737 8.56873V5.47789C3.80774 5.34957 3.85887 5.22662 3.9496 5.13588C4.04034 5.04515 4.16329 4.99402 4.29161 4.99365H13.7473C13.8756 4.99402 13.9986 5.04515 14.0893 5.13588C14.18 5.22662 14.2312 5.34957 14.2315 5.47789V6.87171M14.2315 11.4406V13.8101C14.2312 13.9384 14.18 14.0614 14.0893 14.1521C13.9986 14.2429 13.8756 14.294 13.7473 14.2944H4.29161C4.16329 14.294 4.04034 14.2429 3.9496 14.1521C3.85887 14.0614 3.80774 13.9384 3.80737 13.8101V12.0932" stroke="#3D6CB4" stroke-width="0.0352371" stroke-miterlimit="10" stroke-linecap="round" stroke-linejoin="round"/>
<path opacity="0.3" d="M3.80737 5.97252V5.49192C3.80774 5.35988 3.86035 5.23336 3.95371 5.13999C4.04708 5.04663 4.1736 4.99402 4.30564 4.99365H13.7335C13.8656 4.99402 13.9921 5.04663 14.0854 5.13999C14.1788 5.23336 14.2314 5.35988 14.2318 5.49192V5.97252H3.80737Z" fill="black"/>
<path d="M3.80737 5.97252V5.49192C3.80774 5.35988 3.86035 5.23336 3.95371 5.13999C4.04708 5.04663 4.1736 4.99402 4.30564 4.99365H13.7335C13.8656 4.99402 13.9921 5.04663 14.0854 5.13999C14.1788 5.23336 14.2314 5.35988 14.2318 5.49192V5.97252H3.80737Z" stroke="#3D6CB4" stroke-width="0.0352371" stroke-miterlimit="10" stroke-linecap="round" stroke-linejoin="round"/>
<path d="M4.44241 5.59404C4.5033 5.59404 4.55266 5.54468 4.55266 5.48379C4.55266 5.4229 4.5033 5.37354 4.44241 5.37354C4.38151 5.37354 4.33215 5.4229 4.33215 5.48379C4.33215 5.54468 4.38151 5.59404 4.44241 5.59404Z" fill="#3D6CB4"/>
<path d="M4.88296 5.59404C4.94385 5.59404 4.99321 5.54468 4.99321 5.48379C4.99321 5.4229 4.94385 5.37354 4.88296 5.37354C4.82207 5.37354 4.77271 5.4229 4.77271 5.48379C4.77271 5.54468 4.82207 5.59404 4.88296 5.59404Z" fill="#3D6CB4"/>
<path opacity="0.3" d="M13.424 8.00701H4.61483C4.5346 8.00675 4.45773 7.97476 4.401 7.91803C4.34427 7.86129 4.31228 7.78442 4.31201 7.70419V7.04794C4.31228 6.96771 4.34427 6.89084 4.401 6.8341C4.45773 6.77737 4.5346 6.74538 4.61483 6.74512H13.4239C13.5041 6.74538 13.581 6.77737 13.6377 6.8341C13.6945 6.89084 13.7265 6.96771 13.7267 7.04794V7.70419C13.7265 7.78441 13.6945 7.86128 13.6378 7.91802C13.5811 7.97475 13.5043 8.00675 13.424 8.00701ZM13.424 10.1771H4.61483C4.5346 10.1768 4.45773 10.1449 4.401 10.0881C4.34427 10.0314 4.31228 9.95453 4.31201 9.87429V9.21804C4.31228 9.13781 4.34427 9.06094 4.401 9.00421C4.45773 8.94747 4.5346 8.91548 4.61483 8.91522H13.4239C13.5042 8.91545 13.581 8.94743 13.6378 9.00417C13.6945 9.06091 13.7265 9.1378 13.7267 9.21804V9.87429C13.7265 9.95452 13.6946 10.0314 13.6379 10.0882C13.5811 10.1449 13.5043 10.1769 13.424 10.1771ZM13.424 12.3473H4.61483C4.5346 12.3471 4.45773 12.3151 4.401 12.2584C4.34427 12.2016 4.31228 12.1248 4.31201 12.0445V11.3883C4.31228 11.308 4.34427 11.2312 4.401 11.1744C4.45773 11.1177 4.5346 11.0857 4.61483 11.0854H13.4239C13.5041 11.0857 13.581 11.1177 13.6377 11.1744C13.6945 11.2312 13.7265 11.308 13.7267 11.3883V12.0446C13.7265 12.1249 13.6945 12.2017 13.6378 12.2584C13.5811 12.3151 13.5042 12.3471 13.424 12.3473Z" fill="black"/>
<path d="M5.32351 5.59404C5.3844 5.59404 5.43376 5.54468 5.43376 5.48379C5.43376 5.4229 5.3844 5.37354 5.32351 5.37354C5.26262 5.37354 5.21326 5.4229 5.21326 5.48379C5.21326 5.54468 5.26262 5.59404 5.32351 5.59404Z" fill="#3D6CB4"/>
<path d="M16.3848 6.86475H12.2273C11.5093 6.86475 10.91 7.46425 10.91 8.18214V10.0812C10.91 10.7993 11.4112 11.4409 12.1629 11.4409V12.6267L13.5121 11.5004H16.3848C17.1029 11.5004 17.6756 10.7991 17.6756 10.0812V8.18214C17.6756 7.46425 17.1029 6.86475 16.3848 6.86475ZM3.41247 8.61877H6.66393C7.22547 8.61877 7.65257 9.00453 7.65257 9.56607V11.0512C7.65257 11.5888 7.2202 12.0359 6.69437 12.0729C6.6945 12.0754 6.65027 12.0754 6.65027 12.0754V13.0419L5.659 12.1268H3.41247C2.85093 12.1268 2.3905 11.6128 2.3905 11.0512V9.56607C2.3905 9.00453 2.85093 8.61877 3.41247 8.61877Z" fill="white" stroke="#3D6CB4" stroke-width="0.0352371" stroke-miterlimit="10" stroke-linecap="round" stroke-linejoin="round"/>
<path d="M3.41247 8.61914H6.66393C7.22547 8.61914 7.65257 9.0049 7.65257 9.56644V11.0516C7.65257 11.5892 7.22021 12.0362 6.69437 12.0733C6.6945 12.0758 6.65027 12.0758 6.65027 12.0758V13.0423L5.659 12.1272H3.41247C2.85093 12.1272 2.3905 11.6131 2.3905 11.0516V9.56644C2.3905 9.0049 2.85093 8.61914 3.41247 8.61914Z" stroke="#3D6CB4" stroke-width="0.0352371" stroke-miterlimit="10" stroke-linecap="round" stroke-linejoin="round"/>
<path d="M3.20483 9.49564H6.58759H3.20483ZM3.20483 10.2474H6.08644H3.20483ZM3.20483 10.9991H5.20943H3.20483ZM12.1002 7.99219H16.36H12.1002ZM12.1002 8.99449H15.2324H12.1002ZM12.1002 9.8715H14.2301H12.1002Z" fill="white"/>
<path d="M3.20483 9.49564H6.58759M3.20483 10.2474H6.08644M3.20483 10.9991H5.20943M12.1002 7.99219H16.36M12.1002 8.99449H15.2324M12.1002 9.8715H14.2301" stroke="#3D6CB4" stroke-width="0.0352371" stroke-miterlimit="10" stroke-linecap="round" stroke-linejoin="round"/>
<path d="M0.873375 4.97607V6.19976M0.261597 5.58785H1.48528M2.26845 6.9293V7.66186M1.90223 7.29564H2.63479" stroke="#3D6CB4" stroke-width="0.0352371" stroke-miterlimit="10" stroke-linecap="round" stroke-linejoin="round"/>
<path d="M16.8082 12.6914V13.9151M16.1964 13.3032H17.4201" stroke="#3D6CB4" stroke-width="0.0352371" stroke-miterlimit="10" stroke-linecap="round" stroke-linejoin="round"/>
</g>
<defs>
<clipPath id="clip0_10_2692">
<rect width="18.0414" height="18.0414" fill="white" transform="translate(0.0275879 0.53125)"/>
</clipPath>
</defs>
</svg>
